{
.appVersion = "1141";
copyright = "Copyright 2011, 2017 Google Inc. All Rights Reserved.";
customParameters = (
{
name = glyphOrder;
value = (
space,
nbspace,
A,
Agrave,
Aacute,
Acircumflex,
Atilde,
Adieresis,
Aring,
Amacron,
Abreve,
Aogonek,
Aringacute,
Adblgrave,
Ainvertedbreve,
Adotbelow,
Ahookabove,
Acircumflexacute,
Acircumflexgrave,
Acircumflexhookabove,
Acircumflextilde,
Acircumflexdotbelow,
Abreveacute,
Abrevegrave,
Abrevehookabove,
Abrevetilde,
Abrevedotbelow,
B,
C,
Ccedilla,
Cacute,
Ccircumflex,
Cdotaccent,
Ccaron,
D,
Dcaron,
E,
Egrave,
Eacute,
Ecircumflex,
Edieresis,
Emacron,
Ebreve,
Edotaccent,
Eogonek,
Ecaron,
Edblgrave,
Einvertedbreve,
Edotbelow,
Ehookabove,
Etilde,
Ecircumflexacute,
Ecircumflexgrave,
Ecircumflexhookabove,
Ecircumflextilde,
Ecircumflexdotbelow,
F,
G,
Gcircumflex,
Gbreve,
Gdotaccent,
Gcommaaccent,
Gcaron,
H,
Hcircumflex,
I,
Igrave,
Iacute,
Icircumflex,
Idieresis,
Itilde,
Imacron,
Ibreve,
Iogonek,
Idotaccent,
Idblgrave,
Iinvertedbreve,
Ihookabove,
Idotbelow,
J,
Jcircumflex,
K,
Kcommaaccent,
L,
Lacute,
Lcommaaccent,
Lcaron,
M,
N,
Ntilde,
Nacute,
Ncommaaccent,
Ncaron,
O,
Ograve,
Oacute,
Ocircumflex,
Otilde,
Odieresis,
Omacron,
Obreve,
Ohungarumlaut,
Ohorn,
Oogonek,
Odblgrave,
Oinvertedbreve,
Odieresismacron,
Otildemacron,
Odotaccentmacron,
Odotbelow,
Ohookabove,
Ocircumflexacute,
Ocircumflexgrave,
Ocircumflexhookabove,
Ocircumflextilde,
Ocircumflexdotbelow,
Ohornacute,
Ohorngrave,
Ohornhookabove,
Ohorntilde,
Ohorndotbelow,
P,
Q,
R,
Racute,
Rcommaaccent,
Rcaron,
Rdblgrave,
Rinvertedbreve,
S,
Sacute,
Scircumflex,
Scedilla,
Scaron,
Scommaaccent,
T,
Tcedilla,
Tcaron,
Tcommaaccent,
U,
Ugrave,
Uacute,
Ucircumflex,
Udieresis,
Utilde,
Umacron,
Ubreve,
Uring,
Uhungarumlaut,
Uogonek,
Uhorn,
Udblgrave,
Uinvertedbreve,
Udotbelow,
Uhookabove,
Uhornacute,
Uhorngrave,
Uhornhookabove,
Uhorntilde,
Uhorndotbelow,
V,
W,
Wcircumflex,
Wgrave,
Wacute,
Wdieresis,
X,
Y,
Yacute,
Ycircumflex,
Ydieresis,
Ymacron,
Ygrave,
Ydotbelow,
Yhookabove,
Ytilde,
Z,
Zacute,

glyphs = (
{
glyphname = A;
layers = (
{
layerId = "15DF123F-E657-482A-A0A1-05C4B0BC92C6";
paths = (
{
closed = 1;
nodes = (
"180 1458 LINE",
"186 1458 LINE",
"66 0 LINE",
"60 0 LINE",
"175 1386 LINE SMOOTH",
"175 1387 OFFCURVE",
"180 1436 OFFCURVE",
"180 1436 QCURVE",
"180 1436 LINE",
"180 1436 OFFCURVE",
"171 1387 OFFCURVE",
"171 1386 QCURVE SMOOTH",
"-96 0 LINE",
"-102 0 LINE"
);
},
{
closed = 1;
nodes = (
"-14 432 LINE",
"97 432 LINE",
"97 426 LINE",
"-16 426 LINE"
);
}
);
width = 170;
}
);
leftKerningGroup = A_UC;
rightKerningGroup = A_UC;
unicode = 0041;
},
{
glyphname = B;
layers = (
{
layerId = "15DF123F-E657-482A-A0A1-05C4B0BC92C6";
paths = (
{
closed = 1;
nodes = (
"156 1456 LINE",
"186 1456 LINE SMOOTH",
"237 1456 OFFCURVE",
"264 1297 OFFCURVE",
"234 1110 QCURVE SMOOTH",
"204 925 OFFCURVE",
"153 770 OFFCURVE",
"108 766 QCURVE",
"108 766 LINE",
"154 762 OFFCURVE",
"178 610 OFFCURVE",
"150 408 QCURVE SMOOTH",
"122 204 OFFCURVE",
"48 0 OFFCURVE",
"6 0 QCURVE SMOOTH",
"-48 0 LINE"
);
},
{
closed = 1;
nodes = (
"6 5 LINE SMOOTH",
"45 5 OFFCURVE",
"117 210 OFFCURVE",
"144 408 QCURVE SMOOTH",
"172 610 OFFCURVE",
"150 763 OFFCURVE",
"102 762 QCURVE SMOOTH",
"65 762 LINE",
"-42 5 LINE"
);
},
{
closed = 1;
nodes = (
"96 768 LINE SMOOTH",
"149 768 OFFCURVE",
"199 931 OFFCURVE",
"228 1110 QCURVE SMOOTH",
"258 1297 OFFCURVE",
"233 1452 OFFCURVE",
"180 1452 QCURVE SMOOTH",
"160 1452 LINE",
"66 768 LINE"
);
}
);
width = 217;
}
);
leftKerningGroup = StraightRight_UC;
unicode = 0042;
},
{
glyphname = C;
layers = (
{
layerId = "15DF123F-E657-482A-A0A1-05C4B0BC92C6";
paths = (
{
closed = 1;
nodes = (
"114 1236 LINE SMOOTH",
"133 1368 OFFCURVE",
"180 1458 OFFCURVE",
"216 1458 QCURVE SMOOTH",
"252 1458 OFFCURVE",
"276 1386 OFFCURVE",
"264 1296 QCURVE SMOOTH",
"210 936 LINE",
"204 936 LINE",
"258 1290 LINE SMOOTH",
"270 1380 OFFCURVE",
"252 1452 OFFCURVE",
"216 1452 QCURVE SMOOTH",
"180 1452 OFFCURVE",
"140 1368 OFFCURVE",
"120 1230 QCURVE SMOOTH",
"-23 222 LINE SMOOTH",
"-41 97 OFFCURVE",
"-24 0 OFFCURVE",
"12 0 QCURVE SMOOTH",
"48 0 OFFCURVE",
"90 90 OFFCURVE",
"108 204 QCURVE SMOOTH",
"150 522 LINE",
"156 522 LINE",
"114 198 LINE SMOOTH",
"96 84 OFFCURVE",
"48 -6 OFFCURVE",
"12 -6 QCURVE SMOOTH",
"-24 -6 OFFCURVE",
"-48 90 OFFCURVE",
"-30 216 QCURVE SMOOTH"
);
}
);
width = 207;
}
);
leftKerningGroup = CG_UC;
rightKerningGroup = C_UC;
unicode = 0043;
},
{
glyphname = D;
layers = (
{
layerId = "15DF123F-E657-482A-A0A1-05C4B0BC92C6";
paths = (
{
closed = 1;
nodes = (
"156 1456 LINE",
"216 1456 LINE SMOOTH",
"262 1456 OFFCURVE",
"294 1382 OFFCURVE",
"284 1314 QCURVE SMOOTH",
"125 180 LINE SMOOTH",
"110 72 OFFCURVE",
"60 0 OFFCURVE",
"12 0 QCURVE SMOOTH",
"-48 0 LINE"
);
},
{
closed = 1;
nodes = (
"11 4 LINE SMOOTH",
"59 4 OFFCURVE",
"104 75 OFFCURVE",
"118 174 QCURVE SMOOTH",
"279 1320 LINE SMOOTH",
"288 1386 OFFCURVE",
"258 1452 OFFCURVE",
"210 1452 QCURVE SMOOTH",
"161 1452 LINE",
"-42 4 LINE"
);
}
);
width = 250;
}
);
leftKerningGroup = StraightRight_UC;
rightKerningGroup = D_UC;
unicode = 0044;
},
{
glyphname = E;
layers = (
{
layerId = "15DF123F-E657-482A-A0A1-05C4B0BC92C6";
paths = (
{
closed = 1;
nodes = (
"156 1456 LINE",
"282 1456 LINE",
"281 1451 LINE",
"160 1451 LINE",
"63 756 LINE",
"168 756 LINE",
"168 751 LINE",
"62 751 LINE",
"-42 5 LINE",
"90 5 LINE",
"90 0 LINE",
"-48 0 LINE"
);
}
);
width = 193;
}
);
leftKerningGroup = StraightRight_UC;
rightKerningGroup = E_UC;
unicode = 0045;
},
{
glyphname = F;
layers = (
{
layerId = "15DF123F-E657-482A-A0A1-05C4B0BC92C6";
paths = (
{
closed = 1;
nodes = (
"156 1456 LINE",
"288 1456 LINE",
"288 1451 LINE",
"160 1451 LINE",
"64 762 LINE",
"168 762 LINE",
"168 757 LINE",
"63 757 LINE",
"-43 0 LINE",
"-48 0 LINE"
);
}
);
width = 192;
}
);
leftKerningGroup = StraightRight_UC;
unicode = 0046;
},
{
glyphname = G;
layers = (
{
layerId = "15DF123F-E657-482A-A0A1-05C4B0BC92C6";
paths = (
{
closed = 1;
nodes = (
"116 1238 LINE SMOOTH",
"135 1370 OFFCURVE",
"184 1460 OFFCURVE",
"224 1460 QCURVE SMOOTH",
"266 1460 OFFCURVE",
"294 1376 OFFCURVE",
"272 1244 QCURVE SMOOTH",
"234 1020 LINE",
"228 1020 LINE",
"265 1238 LINE SMOOTH",
"288 1375 OFFCURVE",
"260 1454 OFFCURVE",
"224 1454 QCURVE SMOOTH",
"188 1454 OFFCURVE",
"141 1364 OFFCURVE",
"122 1232 QCURVE SMOOTH",
"-23 222 LINE SMOOTH",
"-40 103 OFFCURVE",
"-12 0 OFFCURVE",
"24 0 QCURVE SMOOTH",
"54 0 OFFCURVE",
"95 53 OFFCURVE",
"102 72 QCURVE",
"192 702 LINE",
"114 702 LINE",
"116 708 LINE",
"198 708 LINE",
"108 72 LINE",
"97 44 OFFCURVE",
"54 -6 OFFCURVE",
"22 -6 QCURVE SMOOTH",
"-14 -6 OFFCURVE",
"-46 97 OFFCURVE",
"-29 216 QCURVE SMOOTH"
);
}
);
width = 235;
}
);
leftKerningGroup = CG_UC;
rightKerningGroup = G_UC;
unicode = 0047;
},
{
glyphname = H;
layers = (
{
layerId = "15DF123F-E657-482A-A0A1-05C4B0BC92C6";
paths = (
{
closed = 1;
nodes = (
"156 1456 LINE",
"161 1456 LINE",
"64 762 LINE",
"202 762 LINE",
"299 1456 LINE",
"304 1456 LINE",
"100 0 LINE",
"95 0 LINE",
"201 756 LINE",
"63 756 LINE",
"-43 0 LINE",
"-48 0 LINE"
);
}
);
width = 258;
}
);
leftKerningGroup = StraightRight_UC;
rightKerningGroup = LeftStraight_UC;
unicode = 0048;
},
{
glyphname = I;
layers = (
{
layerId = "15DF123F-E657-482A-A0A1-05C4B0BC92C6";
paths = (
{
closed = 1;
nodes = (
"156 1456 LINE",
"161 1456 LINE",
"-42 0 LINE",
"-48 0 LINE"
);
}
);
width = 114;
}
);
leftKerningGroup = StraightRight_UC;
rightKerningGroup = LeftStraight_UC;
unicode = 0049;
},
{
glyphname = J;
layers = (
{
layerId = "15DF123F-E657-482A-A0A1-05C4B0BC92C6";
paths = (
{
closed = 1;
nodes = (
"-48 324 LINE",
"-42 324 LINE",
"-59 162 LINE SMOOTH",
"-70 53 OFFCURVE",
"-60 0 OFFCURVE",
"-42 0 QCURVE SMOOTH",
"-23 0 OFFCURVE",
"12 54 OFFCURVE",
"30 162 QCURVE SMOOTH",
"210 1456 LINE",
"217 1456 LINE",
"37 174 LINE SMOOTH",
"20 55 OFFCURVE",
"-19 -6 OFFCURVE",
"-42 -6 QCURVE SMOOTH",
"-65 -6 OFFCURVE",
"-76 53 OFFCURVE",
"-65 162 QCURVE SMOOTH"
);
}
);
width = 167;
}
);
leftKerningGroup = J_UC;
rightKerningGroup = JU_UC;
unicode = 004A;
},
{
glyphname = K;
layers = (
{
layerId = "15DF123F-E657-482A-A0A1-05C4B0BC92C6";
paths = (
{
closed = 1;
nodes = (
"156 1456 LINE",
"161 1456 LINE",
"42 612 LINE",
"288 1456 LINE",
"294 1456 LINE",
"40 591 LINE",
"-43 0 LINE",
"-48 0 LINE"
);
},
{
closed = 1;
nodes = (
"121 875 LINE",
"126 890 LINE",
"96 0 LINE",
"91 0 LINE"
);
}
);
width = 207;
}
);
leftKerningGroup = StraightRight_UC;
rightKerningGroup = K_UC;
unicode = 004B;
},
{
glyphname = L;
layers = (
{
layerId = "15DF123F-E657-482A-A0A1-05C4B0BC92C6";
paths = (
{
closed = 1;
nodes = (
"156 1456 LINE",
"161 1456 LINE",
"-42 5 LINE",
"54 5 LINE",
"54 0 LINE",
"-48 0 LINE"
);
}
);
width = 158;
}
);
leftKerningGroup = StraightRight_UC;
rightKerningGroup = L_UC;
unicode = 004C;
},
{
glyphname = M;
layers = (
{
layerId = "15DF123F-E657-482A-A0A1-05C4B0BC92C6";
paths = (
{
closed = 1;
nodes = (
"156 1456 LINE",
"162 1456 LINE",
"47 72 LINE SMOOTH",
"47 72 OFFCURVE",
"44 38 OFFCURVE",
"43 28 QCURVE",
"43 28 LINE",
"45 38 OFFCURVE",
"52 72 OFFCURVE",
"52 72 QCURVE SMOOTH",
"334 1456 LINE",
"340 1456 LINE",
"136 0 LINE",
"131 0 LINE",
"323 1372 LINE SMOOTH",
"323 1372 OFFCURVE",
"327 1396 OFFCURVE",
"327 1396 QCURVE",
"327 1396 LINE",
"327 1396 OFFCURVE",
"323 1372 OFFCURVE",
"323 1372 QCURVE SMOOTH",
"42 0 LINE",
"36 0 LINE",
"150 1372 LINE SMOOTH",
"150 1372 OFFCURVE",
"153 1396 OFFCURVE",
"153 1396 QCURVE",
"153 1396 LINE",
"153 1396 OFFCURVE",
"150 1372 OFFCURVE",
"150 1372 QCURVE SMOOTH",
"-43 0 LINE",
"-48 0 LINE"
);
}
);
width = 294;
}
);
leftKerningGroup = StraightRight_UC;
rightKerningGroup = LeftStraight_UC;
unicode = 004D;
},
{
glyphname = N;
layers = (
{
layerId = "15DF123F-E657-482A-A0A1-05C4B0BC92C6";
paths = (
{
closed = 1;
nodes = (
"156 1456 LINE",
"161 1456 LINE",
"102 72 LINE SMOOTH",
"102 66 OFFCURVE",
"100 36 OFFCURVE",
"99 22 QCURVE",
"99 22 LINE",
"100 32 OFFCURVE",
"104 66 OFFCURVE",
"105 71 QCURVE SMOOTH",
"299 1456 LINE",
"304 1456 LINE",
"100 0 LINE",
"94 0 LINE",
"153 1384 LINE SMOOTH",
"153 1390 OFFCURVE",
"154 1403 OFFCURVE",
"154 1403 QCURVE",
"154 1403 LINE",
"154 1403 OFFCURVE",
"150 1378 OFFCURVE",
"150 1378 QCURVE SMOOTH",
"-42 0 LINE",
"-48 0 LINE"
);
}
);
width = 259;
}
);
leftKerningGroup = StraightRight_UC;
rightKerningGroup = LeftStraight_UC;
unicode = 004E;
},
{
glyphname = O;
layers = (
{
layerId = "15DF123F-E657-482A-A0A1-05C4B0BC92C6";
paths = (
{
closed = 1;
nodes = (
"114 1236 LINE SMOOTH",
"133 1368 OFFCURVE",
"186 1458 OFFCURVE",
"228 1458 QCURVE SMOOTH",
"273 1458 OFFCURVE",
"301 1368 OFFCURVE",
"282 1236 QCURVE SMOOTH",
"137 216 LINE SMOOTH",
"120 96 OFFCURVE",
"66 -6 OFFCURVE",
"24 -6 QCURVE SMOOTH",
"-18 -6 OFFCURVE",
"-47 97 OFFCURVE",
"-30 216 QCURVE SMOOTH"
);
},
{
closed = 1;
nodes = (
"-42 99 OFFCURVE",
"-12 0 OFFCURVE",
"24 0 QCURVE SMOOTH",
"66 0 OFFCURVE",
"115 102 OFFCURVE",
"132 222 QCURVE SMOOTH",
"276 1230 LINE SMOOTH",
"295 1362 OFFCURVE",
"270 1453 OFFCURVE",
"228 1453 QCURVE SMOOTH",
"190 1453 OFFCURVE",
"139 1365 OFFCURVE",
"120 1230 QCURVE SMOOTH",
"-24 222 LINE SMOOTH"
);
}
);
width = 254;
}
);
leftKerningGroup = CG_UC;
rightKerningGroup = D_UC;
unicode = 004F;
},
{
glyphname = P;
layers = (
{
layerId = "15DF123F-E657-482A-A0A1-05C4B0BC92C6";
paths = (
{
closed = 1;
nodes = (
"156 1456 LINE",
"192 1456 LINE SMOOTH",
"240 1456 OFFCURVE",
"277 1296 OFFCURVE",
"246 1074 QCURVE SMOOTH",
"217 864 OFFCURVE",
"132 672 OFFCURVE",
"78 672 QCURVE SMOOTH",
"51 672 LINE",
"-43 0 LINE",
"-48 0 LINE"
);
},
{
closed = 1;
nodes = (
"78 677 LINE SMOOTH",
"132 677 OFFCURVE",
"210 864 OFFCURVE",
"240 1074 QCURVE SMOOTH",
"270 1290 OFFCURVE",
"238 1452 OFFCURVE",
"187 1452 QCURVE SMOOTH",
"161 1452 LINE",
"52 677 LINE"
);
}
);
width = 216;
}
);
leftKerningGroup = StraightRight_UC;
unicode = 0050;
},
{
glyphname = Q;
layers = (
{
layerId = "15DF123F-E657-482A-A0A1-05C4B0BC92C6";
paths = (
{
closed = 1;
nodes = (
"114 1236 LINE SMOOTH",
"133 1368 OFFCURVE",
"186 1458 OFFCURVE",
"228 1458 QCURVE SMOOTH",
"273 1458 OFFCURVE",
"301 1368 OFFCURVE",
"282 1236 QCURVE SMOOTH",
"137 216 LINE SMOOTH",
"120 96 OFFCURVE",
"66 -6 OFFCURVE",
"24 -6 QCURVE SMOOTH",
"-18 -6 OFFCURVE",
"-47 97 OFFCURVE",
"-30 216 QCURVE SMOOTH"
);
},
{
closed = 1;
nodes = (
"-42 99 OFFCURVE",
"-12 0 OFFCURVE",
"24 0 QCURVE SMOOTH",
"66 0 OFFCURVE",
"114 102 OFFCURVE",
"132 222 QCURVE SMOOTH",
"276 1230 LINE SMOOTH",
"295 1362 OFFCURVE",
"270 1453 OFFCURVE",
"228 1453 QCURVE SMOOTH",
"192 1453 OFFCURVE",
"139 1365 OFFCURVE",
"120 1230 QCURVE SMOOTH",
"-24 222 LINE SMOOTH"
);
},
{
closed = 1;
nodes = (
"48 126 LINE",
"52 129 LINE",
"154 -63 LINE",
"150 -66 LINE"
);
}
);
width = 254;
}
);
leftKerningGroup = CG_UC;
unicode = 0051;
},
{
glyphname = R;
layers = (
{
layerId = "15DF123F-E657-482A-A0A1-05C4B0BC92C6";
paths = (
{
closed = 1;
nodes = (
"156 1456 LINE",
"204 1456 LINE SMOOTH",
"241 1456 OFFCURVE",
"266 1351 OFFCURVE",
"228 1062 QCURVE SMOOTH",
"196 822 OFFCURVE",
"135 666 OFFCURVE",
"94 666 QCURVE SMOOTH",
"50 666 LINE",
"-43 0 LINE",
"-48 0 LINE"
);
},
{
closed = 1;
nodes = (
"90 671 LINE SMOOTH",
"132 671 OFFCURVE",
"192 828 OFFCURVE",
"222 1062 QCURVE SMOOTH",
"259 1351 OFFCURVE",
"238 1452 OFFCURVE",
"204 1452 QCURVE SMOOTH",
"160 1452 LINE",
"51 671 LINE"
);
},
{
closed = 1;
nodes = (
"85 669 LINE",
"90 669 LINE",
"132 0 LINE",
"127 0 LINE"
);
}
);
width = 236;
}
);
leftKerningGroup = StraightRight_UC;
rightKerningGroup = R_UC;
unicode = 0052;
},
{
glyphname = S;
layers = (
{
layerId = "15DF123F-E657-482A-A0A1-05C4B0BC92C6";
paths = (
{
closed = 1;
nodes = (
"-24 456 LINE",
"-18 456 LINE",
"-48 222 LINE SMOOTH",
"-66 96 OFFCURVE",
"-36 0 OFFCURVE",
"-6 0 QCURVE SMOOTH",
"30 0 OFFCURVE",
"84 108 OFFCURVE",
"114 324 QCURVE SMOOTH",
"138 492 OFFCURVE",
"139 674 OFFCURVE",
"109 786 QCURVE SMOOTH",
"80 894 OFFCURVE",
"60 1026 OFFCURVE",
"84 1212 QCURVE SMOOTH",
"108 1362 OFFCURVE",
"162 1458 OFFCURVE",
"198 1458 QCURVE SMOOTH",
"240 1458 OFFCURVE",
"264 1362 OFFCURVE",
"246 1230 QCURVE SMOOTH",
"216 1020 LINE",
"210 1020 LINE",
"240 1230 LINE SMOOTH",
"258 1362 OFFCURVE",
"234 1452 OFFCURVE",
"198 1452 QCURVE SMOOTH",
"162 1452 OFFCURVE",
"114 1356 OFFCURVE",
"90 1212 QCURVE SMOOTH",
"66 1032 OFFCURVE",
"84 902 OFFCURVE",
"115 788 QCURVE SMOOTH",
"144 681 OFFCURVE",
"144 498 OFFCURVE",
"120 324 QCURVE SMOOTH",
"90 102 OFFCURVE",
"30 -6 OFFCURVE",
"-6 -6 QCURVE SMOOTH",
"-42 -6 OFFCURVE",
"-72 96 OFFCURVE",
"-54 210 QCURVE SMOOTH"
);
}
);
width = 195;
}
);
leftKerningGroup = S_UC;
rightKerningGroup = S_UC;
unicode = 0053;
},
{
glyphname = T;
layers = (
{
layerId = "15DF123F-E657-482A-A0A1-05C4B0BC92C6";
paths = (
{
closed = 1;
nodes = (
"102 1456 LINE",
"312 1456 LINE",
"312 1451 LINE",
"210 1451 LINE",
"8 0 LINE",
"2 0 LINE",
"205 1451 LINE",
"102 1451 LINE"
);
}
);
width = 214;
}
);
leftKerningGroup = T_UC;
rightKerningGroup = T_UC;
unicode = 0054;
},
{
glyphname = U;
layers = (
{
layerId = "15DF123F-E657-482A-A0A1-05C4B0BC92C6";
paths = (
{
closed = 1;
nodes = (
"144 1456 LINE",
"149 1456 LINE",
"-26 186 LINE SMOOTH",
"-39 89 OFFCURVE",
"-12 -1 OFFCURVE",
"19 -1 QCURVE SMOOTH",
"54 -1 OFFCURVE",
"108 90 OFFCURVE",
"120 186 QCURVE SMOOTH",
"300 1456 LINE",
"305 1456 LINE",
"126 192 LINE SMOOTH",
"111 84 OFFCURVE",
"56 -6 OFFCURVE",
"18 -6 QCURVE SMOOTH",
"-14 -6 OFFCURVE",
"-45 84 OFFCURVE",
"-30 192 QCURVE SMOOTH"
);
}
);
width = 243;
}
);
leftKerningGroup = U_UC;
rightKerningGroup = JU_UC;
unicode = 0055;
},
{
glyphname = V;
layers = (
{
layerId = "15DF123F-E657-482A-A0A1-05C4B0BC92C6";
paths = (
{
closed = 1;
nodes = (
"125 1456 LINE",
"25 100 LINE SMOOTH",
"24 88 OFFCURVE",
"18 15 OFFCURVE",
"18 15 QCURVE",
"18 15 LINE",
"18 15 OFFCURVE",
"31 87 OFFCURVE",
"34 100 QCURVE SMOOTH",
"308 1456 LINE",
"312 1456 LINE",
"18 -3 LINE",
"12 -3 LINE",
"120 1456 LINE"
);
}
);
width = 228;
}
);
unicode = 0056;
},
{
glyphname = W;
layers = (
{
layerId = "15DF123F-E657-482A-A0A1-05C4B0BC92C6";
paths = (
{
closed = 1;
nodes = (
"120 1456 LINE",
"125 1456 LINE",
"4 76 LINE SMOOTH",
"4 76 OFFCURVE",
"-1 29 OFFCURVE",
"-2 23 QCURVE",
"-2 23 LINE",
"-1 29 OFFCURVE",
"7 76 OFFCURVE",
"7 76 QCURVE SMOOTH",
"300 1456 LINE",
"306 1456 LINE",
"203 75 LINE SMOOTH",
"203 75 OFFCURVE",
"198 23 OFFCURVE",
"198 23 QCURVE",
"198 23 LINE",
"198 23 OFFCURVE",
"207 75 OFFCURVE",
"207 75 QCURVE SMOOTH",
"469 1456 LINE",
"474 1456 LINE",
"198 -3 LINE",
"192 -3 LINE",
"291 1330 LINE SMOOTH",
"292 1344 OFFCURVE",
"295 1393 OFFCURVE",
"296 1406 QCURVE",
"294 1406 LINE",
"292 1393 OFFCURVE",
"282 1342 OFFCURVE",
"279 1330 QCURVE SMOOTH",
"-3 -3 LINE",
"-9 -3 LINE"
);
}
);
width = 391;
}
);
leftKerningGroup = W_UC;
rightKerningGroup = W_UC;
unicode = 0057;
},
{
glyphname = X;
layers = (
{
layerId = "15DF123F-E657-482A-A0A1-05C4B0BC92C6";
paths = (
{
closed = 1;
nodes = (
"94 774 LINE",
"94 774 LINE",
"264 1456 LINE",
"270 1456 LINE",
"95 758 LINE",
"95 758 LINE",
"-96 0 LINE",
"-102 0 LINE"
);
},
{
closed = 1;
nodes = (
"112 1456 LINE",
"97 770 LINE",
"97 770 LINE",
"79 0 LINE",
"74 0 LINE",
"92 770 LINE",
"92 770 LINE",
"107 1456 LINE"
);
}
);
width = 179;
}
);
unicode = 0058;
},
{
glyphname = Y;
layers = (
{
layerId = "15DF123F-E657-482A-A0A1-05C4B0BC92C6";
paths = (
{
closed = 1;
nodes = (
"84 576 LINE",
"102 1456 LINE",
"108 1456 LINE",
"90 612 LINE SMOOTH",
"90 612 OFFCURVE",
"90 597 OFFCURVE",
"90 596 QCURVE",
"90 596 LINE",
"90 597 OFFCURVE",
"93 612 OFFCURVE",
"93 612 QCURVE SMOOTH",
"288 1456 LINE",
"293 1456 LINE",
"90 576 LINE",
"6 0 LINE",
"0 0 LINE"
);
}
);
width = 193;
}
);
leftKerningGroup = Y_UC;
rightKerningGroup = Y_UC;
unicode = 0059;
},
{
glyphname = Z;
layers = (
{
layerId = "15DF123F-E657-482A-A0A1-05C4B0BC92C6";
paths = (
{
closed = 1;
nodes = (
"-96 6 LINE",
"234 1451 LINE",
"126 1451 LINE",
"126 1456 LINE",
"240 1456 LINE",
"240 1452 LINE",
"-91 5 LINE",
"30 5 LINE",
"30 0 LINE",
"-96 0 LINE"
);
}
);
width = 140;
}
);
leftKerningGroup = Z_UC;
rightKerningGroup = Z_UC;
unicode = 005A;
},
{
glyphname = AE;
layers = (
{
layerId = "15DF123F-E657-482A-A0A1-05C4B0BC92C6";
paths = (
{
closed = 1;
nodes = (
"367.101 528 LINE",
"1000.101 528 LINE",
"969.243 353 LINE",
"236.243 353 LINE"
);
},
{
closed = 1;
nodes = (
"994.732 1456 LINE",
"1964.732 1456 LINE",
"1936.872 1298 LINE",
"1222.872 1298 LINE",
"1140.351 830 LINE",
"1762.351 830 LINE",
"1734.492 672 LINE",
"1112.492 672 LINE",
"1021.86 158 LINE",
"1745.86 158 LINE",
"1718 0 LINE",
"802 0 LINE",
"1020.293 1238 LINE",
"84 0 LINE",
"-143 0 LINE"
);
}
);
width = 1914;
}
);
leftKerningGroup = AE_UC;
rightKerningGroup = E_UC;
unicode = 00C6;
},
{
glyphname = Thorn;
layers = (
{
guideLines = (
{
position = "{30.871, 901}";
},
{
position = "{-30.139, 555}";
}
);
layerId = "15DF123F-E657-482A-A0A1-05C4B0BC92C6";
paths = (
{
closed = 1;
nodes = (
"483.732 1456 LINE",
"432.068 1163 LINE",
"710.068 1163 LINE SMOOTH",
"945.068 1163 OFFCURVE",
"1156.866 935 OFFCURVE",
"1122.129 738 QCURVE SMOOTH",
"1087.393 541 OFFCURVE",
"795.367 314 OFFCURVE",
"560.367 314 QCURVE SMOOTH",
"282.367 314 LINE",
"227 0 LINE",
"42 0 LINE",
"298.732 1456 LINE"
);
},
{
closed = 1;
nodes = (
"405.443 1012 LINE",
"308.992 465 LINE",
"586.992 465 LINE SMOOTH",
"746.992 465 OFFCURVE",
"913.502 604 OFFCURVE",
"936.777 736 QCURVE SMOOTH",
"960.052 868 OFFCURVE",
"843.443 1012 OFFCURVE",
"683.443 1012 QCURVE SMOOTH"
);
}
);
width = 1170;
}
);
leftKerningGroup = StraightRight_UC;
unicode = 00DE;
userData = {
com.typemytype.robofont.guideline.magnetic.T8KKW8oxop = 5;
com.typemytype.robofont.guideline.magnetic.i9jYwjBDP4 = 5;
};
},
{
glyphname = OE;
layers = (
{
layerId = "15DF123F-E657-482A-A0A1-05C4B0BC92C6";
paths = (
{
closed = 1;
nodes = (
"878.435 1477 OFFCURVE",
"1027.143 1464 OFFCURVE",
"1092.732 1456 QCURVE",
"1929.732 1456 LINE",
"1901.872 1298 LINE",
"1179.872 1298 LINE",
"1097.351 830 LINE",
"1727.351 830 LINE",
"1699.668 673 LINE",
"1069.668 673 LINE",
"978.683 157 LINE",
"1710.683 157 LINE",
"1683 0 LINE",
"836 0 LINE",
"767.766 -7 OFFCURVE",
"616.297 -21 OFFCURVE",
"540.297 -21 QCURVE SMOOTH",
"326.297 -21 OFFCURVE",
"46.951 340 OFFCURVE",
"107.255 682 QCURVE SMOOTH",
"123.124 772 LINE SMOOTH",
"181.841 1105 OFFCURVE",
"587.435 1477 OFFCURVE",
"845.435 1477 QCURVE SMOOTH"
);
},
{
closed = 1;
nodes = (
"255.705 418 OFFCURVE",
"437.57 128 OFFCURVE",
"609.57 128 QCURVE SMOOTH",
"662.57 128 OFFCURVE",
"744.157 137 OFFCURVE",
"783.215 143 QCURVE",
"988.988 1310 LINE",
"938.223 1317 OFFCURVE",
"844.633 1325 OFFCURVE",
"822.633 1325 QCURVE SMOOTH",
"645.633 1325 OFFCURVE",
"363.617 1030 OFFCURVE",
"318.477 774 QCURVE SMOOTH",
"302.255 682 LINE SMOOTH"
);
}
);
width = 1879;
}
);
leftKerningGroup = CG_UC;
rightKerningGroup = E_UC;
unicode = 0152;
},
{
glyphname = Schwa;
layers = (
{
layerId = "15DF123F-E657-482A-A0A1-05C4B0BC92C6";
paths = (
{
closed = 1;
nodes = (
"273.099 1356 OFFCURVE",
"591.841 1519 OFFCURVE",
"808.841 1519 QCURVE SMOOTH",
"1141.841 1519 OFFCURVE",
"1430.902 1094 OFFCURVE",
"1377.122 789 QCURVE SMOOTH",
"1316.465 445 OFFCURVE",
"848.71 -30 OFFCURVE",
"558.71 -30 QCURVE SMOOTH",
"282.71 -30 OFFCURVE",
"23.548 281 OFFCURVE",
"75.917 578 QCURVE SMOOTH",
"94.96 686 LINE",
"1220.96 686 LINE",
"1197.685 554 LINE",
"636.096 562 LINE",
"268.038 556 LINE",
"254.813 481 LINE SMOOTH",
"225.543 315 OFFCURVE",
"392.104 97 OFFCURVE",
"591.104 97 QCURVE SMOOTH",
"801.104 97 OFFCURVE",
"1130.463 462 OFFCURVE",
"1179.069 749 QCURVE SMOOTH",
"1229.614 1047 OFFCURVE",
"974.45 1375 OFFCURVE",
"765.45 1375 QCURVE SMOOTH",
"583.45 1375 OFFCURVE",
"307.587 1234 OFFCURVE",
"227.544 1126 QCURVE",
"147.416 1199 LINE"
);
}
);
width = 1446;
}
);
rightKerningGroup = D_UC;
unicode = 018F;
},
{
glyphname = Germandbls;
layers = (
{
layerId = "15DF123F-E657-482A-A0A1-05C4B0BC92C6";
paths = (
{
closed = 1;
nodes = (
"273.406 1267 OFFCURVE",
"537.254 1510 OFFCURVE",
"749.254 1510 QCURVE SMOOTH",
"975.254 1510 OFFCURVE",
"1128.512 1347 OFFCURVE",
"1110.351 1244 QCURVE SMOOTH",
"1092.365 1142 OFFCURVE",
"966.09 1010 OFFCURVE",
"898.332 966 QCURVE SMOOTH",
"840.808 929 OFFCURVE",
"777.344 881 OFFCURVE",
"773.818 861 QCURVE SMOOTH",
"770.291 841 OFFCURVE",
"829.943 805 OFFCURVE",
"1007.777 736 QCURVE SMOOTH",
"1188.434 666 OFFCURVE",
"1326.695 486 OFFCURVE",
"1300.246 336 QCURVE SMOOTH",
"1274.502 190 OFFCURVE",
"992.71 -30 OFFCURVE",
"806.71 -30 QCURVE SMOOTH",
"566.71 -30 OFFCURVE",
"363.802 152 OFFCURVE",
"396.599 338 QCURVE SMOOTH",
"398.714 350 LINE",
"601.714 350 LINE",
"599.599 338 LINE SMOOTH",
"581.966 238 OFFCURVE",
"688.804 135 OFFCURVE",
"824.804 135 QCURVE SMOOTH",
"929.804 135 OFFCURVE",
"1086.495 241 OFFCURVE",
"1102.188 330 QCURVE SMOOTH",
"1119.292 427 OFFCURVE",
"1003.866 521 OFFCURVE",
"843.975 584 QCURVE SMOOTH",
"630.786 668 OFFCURVE",
"530.008 760 OFFCURVE",
"542.528 831 QCURVE SMOOTH",
"555.4 904 OFFCURVE",
"644.387 989 OFFCURVE",
"750.201 1056 QCURVE SMOOTH",
"829.018 1106 OFFCURVE",
"902.655 1172 OFFCURVE",
"912.706 1229 QCURVE SMOOTH",
"922.404 1284 OFFCURVE",
"831.689 1348 OFFCURVE",
"726.689 1348 QCURVE SMOOTH",
"605.689 1348 OFFCURVE",
"453.24 1198 OFFCURVE",
"424.675 1036 QCURVE SMOOTH",
"304.596 355 LINE SMOOTH",
"274.444 184 OFFCURVE",
"72.179 -16 OFFCURVE",
"-62.821 -16 QCURVE SMOOTH",
"-75.821 -16 OFFCURVE",
"-102.469 -14 OFFCURVE",
"-115.116 -12 QCURVE",
"-84.672 172 LINE",
"-76.201 169 OFFCURVE",
"-57.553 167 OFFCURVE",
"-48.553 167 QCURVE SMOOTH",
"11.447 167 OFFCURVE",
"96.55 264 OFFCURVE",
"112.596 355 QCURVE SMOOTH",
"237.965 1066 LINE SMOOTH"
);
}
);
width = 1449;
}
);
unicode = 1E9E;
},
{
glyphname = micro;
layers = (
{
layerId = "15DF123F-E657-482A-A0A1-05C4B0BC92C6";
paths = (
{
closed = 1;
nodes = (
"485.496 1052 LINE",
"233.417 371 LINE SMOOTH",
"186.2 245 OFFCURVE",
"258.98 136 OFFCURVE",
"362.98 136 QCURVE SMOOTH",
"451.98 136 OFFCURVE",
"623.908 232 OFFCURVE",
"690.309 308 QCURVE",
"965.496 1052 LINE",
"1151.496 1052 LINE",
"762 0 LINE",
"594 0 LINE",
"635.804 135 LINE",
"629.804 135 LINE",
"546.109 63 OFFCURVE",
"350.473 -20 OFFCURVE",
"250.473 -20 QCURVE SMOOTH",
"204.473 -20 OFFCURVE",
"135.645 15 OFFCURVE",
"111.406 42 QCURVE",
"-57.352 -416 LINE",
"-243.352 -416 LINE",
"299.496 1052 LINE"
);
}
);
width = 1198;
}
);
unicode = 00B5;
},
{
glyphname = a;
layers = (
{
layerId = "15DF123F-E657-482A-A0A1-05C4B0BC92C6";
paths = (
{
closed = 1;
nodes = (
"-18 396 OFFCURVE",
"39 522 OFFCURVE",
"90 522 QCURVE SMOOTH",
"116 522 LINE",
"156 798 LINE SMOOTH",
"165 858 OFFCURVE",
"151 912 OFFCURVE",
"122 912 QCURVE SMOOTH",
"91 912 OFFCURVE",
"58 852 OFFCURVE",
"52 798 QCURVE SMOOTH",
"35 648 LINE",
"30 648 LINE",
"48 804 LINE SMOOTH",
"54 859 OFFCURVE",
"91 917 OFFCURVE",
"122 917 QCURVE SMOOTH",
"152 917 OFFCURVE",
"171 864 OFFCURVE",
"162 804 QCURVE SMOOTH",
"65 126 LINE SMOOTH",
"56 60 OFFCURVE",
"57 12 OFFCURVE",
"59 0 QCURVE",
"60 0 LINE",
"54 0 LINE",
"52 11 OFFCURVE",
"52 55 OFFCURVE",
"54 78 QCURVE",
"48 42 OFFCURVE",
"12 -2 OFFCURVE",
"-14 -2 QCURVE SMOOTH",
"-50 -2 OFFCURVE",
"-60 84 OFFCURVE",
"-36 246 QCURVE SMOOTH"
);
},
{
closed = 1;
nodes = (
"-53 87 OFFCURVE",
"-45 3 OFFCURVE",
"-14 3 QCURVE SMOOTH",
"12 3 OFFCURVE",
"48 54 OFFCURVE",
"60 126 QCURVE",
"115 517 LINE",
"90 517 LINE SMOOTH",
"43 517 OFFCURVE",
"-10 399 OFFCURVE",
"-31 246 QCURVE SMOOTH"
);
}
);
width = 197;
}
);
leftKerningGroup = a_LC;
rightKerningGroup = a_LC;
unicode = 0061;
},
{
glyphname = b;
layers = (
{
layerId = "15DF123F-E657-482A-A0A1-05C4B0BC92C6";
paths = (
{
closed = 1;
nodes = (
"147 1456 LINE",
"153 1456 LINE",
"68 840 LINE",
"74 870 OFFCURVE",
"116 917 OFFCURVE",
"141 917 QCURVE SMOOTH",
"167 917 OFFCURVE",
"192 876 OFFCURVE",
"183 810 QCURVE SMOOTH",
"89 116 LINE SMOOTH",
"80 53 OFFCURVE",
"45 -5 OFFCURVE",
"12 -5 QCURVE SMOOTH",
"-14 -5 OFFCURVE",
"-40 17 OFFCURVE",
"-44 33 QCURVE",
"-44 33 LINE",
"-48 0 LINE",
"-54 0 LINE"
);
},
{
closed = 1;
nodes = (
"-42 30 OFFCURVE",
"-16 0 OFFCURVE",
"12 0 QCURVE SMOOTH",
"43 0 OFFCURVE",
"76 57 OFFCURVE",
"84 116 QCURVE SMOOTH",
"178 810 LINE SMOOTH",
"186 870 OFFCURVE",
"164 912 OFFCURVE",
"141 912 QCURVE SMOOTH",
"116 912 OFFCURVE",
"76 864 OFFCURVE",
"65 816 QCURVE",
"-42 48 LINE"
);
}
);
width = 208;
}
);
leftKerningGroup = bhk_LC;
rightKerningGroup = b_LC;
unicode = 0062;
},
{
glyphname = c;
layers = (
{
layerId = "15DF123F-E657-482A-A0A1-05C4B0BC92C6";
paths = (
{
closed = 1;
nodes = (
"48 780 LINE SMOOTH",
"59 858 OFFCURVE",
"94 917 OFFCURVE",
"130 917 QCURVE SMOOTH",
"162 917 OFFCURVE",
"181 870 OFFCURVE",
"175 822 QCURVE SMOOTH",
"147 594 LINE",
"141 594 LINE",
"169 822 LINE SMOOTH",
"174 866 OFFCURVE",
"160 912 OFFCURVE",
"130 912 QCURVE SMOOTH",
"97 912 OFFCURVE",
"64 858 OFFCURVE",
"54 786 QCURVE SMOOTH",
"-43 120 LINE SMOOTH",
"-52 60 OFFCURVE",
"-31 0 OFFCURVE",
"1 0 QCURVE SMOOTH",
"31 0 OFFCURVE",
"68 60 OFFCURVE",
"77 120 QCURVE SMOOTH",
"108 330 LINE",
"115 330 LINE",
"83 120 LINE SMOOTH",
"73 56 OFFCURVE",
"36 -5 OFFCURVE",
"1 -5 QCURVE SMOOTH",
"-33 -5 OFFCURVE",
"-57 56 OFFCURVE",
"-48 120 QCURVE SMOOTH"
);
}
);
width = 188;
}
);
leftKerningGroup = alpha;
rightKerningGroup = c_LC;
unicode = 0063;
},
{
glyphname = d;
layers = (
{
layerId = "15DF123F-E657-482A-A0A1-05C4B0BC92C6";
paths = (
{
closed = 1;
nodes = (
"52 810 LINE SMOOTH",
"61 870 OFFCURVE",
"99 917 OFFCURVE",
"127 917 QCURVE SMOOTH",
"152 917 OFFCURVE",
"177 871 OFFCURVE",
"177 837 QCURVE",
"263 1456 LINE",
"269 1456 LINE",
"65 0 LINE",
"60 0 LINE",
"65 38 LINE",
"65 38 LINE",
"56 20 OFFCURVE",
"24 -5 OFFCURVE",
"0 -5 QCURVE SMOOTH",
"-31 -5 OFFCURVE",
"-58 53 OFFCURVE",
"-49 113 QCURVE SMOOTH"
);
},
{
closed = 1;
nodes = (
"-52 56 OFFCURVE",
"-28 0 OFFCURVE",
"1 0 QCURVE SMOOTH",
"24 0 OFFCURVE",
"55 27 OFFCURVE",
"66 48 QCURVE",
"174 816 LINE",
"175 867 OFFCURVE",
"150 912 OFFCURVE",
"127 912 QCURVE SMOOTH",
"102 912 OFFCURVE",
"65 866 OFFCURVE",
"57 810 QCURVE SMOOTH",
"-44 113 LINE SMOOTH"
);
}
);
width = 208;
}
);
leftKerningGroup = alpha;
unicode = 0064;
},
{
glyphname = e;
layers = (
{
layerId = "15DF123F-E657-482A-A0A1-05C4B0BC92C6";
paths = (
{
closed = 1;
nodes = (
"48 780 LINE SMOOTH",
"59 858 OFFCURVE",
"94 917 OFFCURVE",
"130 917 QCURVE SMOOTH",
"159 917 OFFCURVE",
"175 857 OFFCURVE",
"166 798 QCURVE SMOOTH",
"124 510 LINE",
"11 510 LINE",
"12 515 LINE",
"119 515 LINE",
"161 798 LINE SMOOTH",
"169 855 OFFCURVE",
"156 912 OFFCURVE",
"130 912 QCURVE SMOOTH",
"96 912 OFFCURVE",
"64 858 OFFCURVE",
"54 786 QCURVE SMOOTH",
"-43 120 LINE SMOOTH",
"-52 58 OFFCURVE",
"-32 0 OFFCURVE",
"-2 0 QCURVE SMOOTH",
"27 0 OFFCURVE",
"63 76 OFFCURVE",
"73 144 QCURVE",
"77 144 LINE",
"67 73 OFFCURVE",
"29 -5 OFFCURVE",
"-3 -5 QCURVE SMOOTH",
"-35 -5 OFFCURVE",
"-58 54 OFFCURVE",
"-48 120 QCURVE SMOOTH"
);
}
);
width = 178;
}
);
leftKerningGroup = alpha;
rightKerningGroup = e_LC;
unicode = 0065;
},
{
glyphname = f;
layers = (
{
layerId = "15DF123F-E657-482A-A0A1-05C4B0BC92C6";
paths = (
{
closed = 1;
nodes = (
"141 1356 LINE SMOOTH",
"151 1426 OFFCURVE",
"201 1475 OFFCURVE",
"231 1475 QCURVE SMOOTH",
"241 1475 OFFCURVE",
"256 1472 OFFCURVE",
"261 1470 QCURVE",
"261 1464 LINE",
"256 1466 OFFCURVE",
"239 1470 OFFCURVE",
"231 1470 QCURVE SMOOTH",
"202 1470 OFFCURVE",
"155 1421 OFFCURVE",
"145 1350 QCURVE SMOOTH",
"83 909 LINE",
"83 909 LINE",
"-46 0 LINE",
"-51 0 LINE"
);
},
{
closed = 1;
nodes = (
"33 912 LINE",
"80 912 LINE",
"80 912 LINE",
"135 912 LINE",
"135 907 LINE",
"33 907 LINE"
);
}
);
width = 110;
}
);
leftKerningGroup = f_LC;
rightKerningGroup = f_LC;
unicode = 0066;
},
{
glyphname = g;
layers = (
{
layerId = "15DF123F-E657-482A-A0A1-05C4B0BC92C6";
paths = (
{
closed = 1;
nodes = (
"-114 -408 LINE",
"-109 -412 OFFCURVE",
"-84 -420 OFFCURVE",
"-62 -420 QCURVE SMOOTH",
"-36 -420 OFFCURVE",
"11 -347 OFFCURVE",
"24 -252 QCURVE SMOOTH",
"65 38 LINE",
"59 26 OFFCURVE",
"24 -5 OFFCURVE",
"0 -5 QCURVE SMOOTH",
"-31 -5 OFFCURVE",
"-58 53 OFFCURVE",
"-49 113 QCURVE SMOOTH",
"52 810 LINE SMOOTH",
"61 870 OFFCURVE",
"99 917 OFFCURVE",
"127 917 QCURVE SMOOTH",
"152 917 OFFCURVE",
"177 871 OFFCURVE",
"177 836 QCURVE",
"177 836 LINE",
"187 912 LINE",
"192 912 LINE",
"29 -258 LINE SMOOTH",
"16 -352 OFFCURVE",
"-33 -426 OFFCURVE",
"-63 -426 QCURVE SMOOTH",
"-84 -426 OFFCURVE",
"-109 -418 OFFCURVE",
"-114 -414 QCURVE"
);
},
{
closed = 1;
nodes = (
"-52 56 OFFCURVE",
"-28 0 OFFCURVE",
"0 0 QCURVE SMOOTH",
"24 0 OFFCURVE",
"60 30 OFFCURVE",
"66 48 QCURVE",
"174 816 LINE",
"175 867 OFFCURVE",
"150 912 OFFCURVE",
"127 912 QCURVE SMOOTH",
"102 912 OFFCURVE",
"65 866 OFFCURVE",
"57 810 QCURVE SMOOTH",
"-44 113 LINE SMOOTH"
);
}
);
width = 208;
}
);
leftKerningGroup = alpha;
unicode = 0067;
},
{
glyphname = h;
layers = (
{
layerId = "15DF123F-E657-482A-A0A1-05C4B0BC92C6";
paths = (
{
closed = 1;
nodes = (
"147 1456 LINE",
"154 1456 LINE",
"68 840 LINE",
"77 869 OFFCURVE",
"114 917 OFFCURVE",
"138 917 QCURVE SMOOTH",
"167 917 OFFCURVE",
"186 870 OFFCURVE",
"180 822 QCURVE SMOOTH",
"60 0 LINE",
"54 0 LINE",
"174 822 LINE SMOOTH",
"180 870 OFFCURVE",
"163 912 OFFCURVE",
"138 912 QCURVE SMOOTH",
"114 912 OFFCURVE",
"75 858 OFFCURVE",
"65 816 QCURVE",
"-49 0 LINE",
"-54 0 LINE"
);
}
);
width = 206;
}
);
leftKerningGroup = bhk_LC;
rightKerningGroup = hmn_LC;
unicode = 0068;
},
{
glyphname = i;
layers = (
{
layerId = "15DF123F-E657-482A-A0A1-05C4B0BC92C6";
paths = (
{
closed = 1;
nodes = (
"72 912 LINE",
"78 912 LINE",
"-49 0 LINE",
"-54 0 LINE"
);
},
{
closed = 1;
nodes = (
"103 1246 OFFCURVE",
"112 1254 OFFCURVE",
"118 1254 QCURVE SMOOTH",
"124 1254 OFFCURVE",
"133 1246 OFFCURVE",
"133 1240 QCURVE SMOOTH",
"133 1233 OFFCURVE",
"125 1224 OFFCURVE",
"118 1224 QCURVE SMOOTH",
"111 1224 OFFCURVE",
"103 1233 OFFCURVE",
"103 1239 QCURVE SMOOTH"
);
}
);
width = 106;
}
);
leftKerningGroup = i_LC;
rightKerningGroup = i_LC;
unicode = 0069;
},
{
glyphname = j;
layers = (
{
layerId = "15DF123F-E657-482A-A0A1-05C4B0BC92C6";
paths = (
{
closed = 1;
nodes = (
"-216 -420 LINE",
"-212 -424 OFFCURVE",
"-192 -432 OFFCURVE",
"-175 -432 QCURVE SMOOTH",
"-146 -432 OFFCURVE",
"-107 -380 OFFCURVE",
"-98 -318 QCURVE SMOOTH",
"72 912 LINE",
"78 912 LINE",
"-94 -324 LINE SMOOTH",
"-102 -384 OFFCURVE",
"-144 -437 OFFCURVE",
"-176 -437 QCURVE SMOOTH",
"-192 -437 OFFCURVE",
"-211 -430 OFFCURVE",
"-216 -426 QCURVE"
);
},
{
closed = 1;
nodes = (
"103 1246 OFFCURVE",
"112 1254 OFFCURVE",
"118 1254 QCURVE SMOOTH",
"124 1254 OFFCURVE",
"133 1246 OFFCURVE",
"133 1240 QCURVE SMOOTH",
"133 1233 OFFCURVE",
"125 1224 OFFCURVE",
"118 1224 QCURVE SMOOTH",
"111 1224 OFFCURVE",
"103 1233 OFFCURVE",
"103 1239 QCURVE SMOOTH"
);
}
);
width = 97;
}
);
rightKerningGroup = j_LC;
unicode = 006A;
},
{
glyphname = k;
layers = (
{
layerId = "15DF123F-E657-482A-A0A1-05C4B0BC92C6";
paths = (
{
closed = 1;
nodes = (
"148 1456 LINE",
"155 1456 LINE",
"8 408 LINE",
"162 912 LINE",
"167 912 LINE",
"5 385 LINE",
"-49 0 LINE",
"-54 0 LINE"
);
},
{
closed = 1;
nodes = (
"53 547 LINE",
"58 564 LINE",
"60 0 LINE",
"55 0 LINE"
);
}
);
width = 160;
}
);
leftKerningGroup = bhk_LC;
rightKerningGroup = k_LC;
unicode = 006B;
},
{
glyphname = l;
layers = (
{
layerId = "15DF123F-E657-482A-A0A1-05C4B0BC92C6";
paths = (
{
closed = 1;
nodes = (
"147 1456 LINE",
"154 1456 LINE",
"-49 0 LINE",
"-54 0 LINE"
);
}
);
width = 106;
}
);
leftKerningGroup = bhk_LC;
rightKerningGroup = l_LC;
unicode = 006C;
},
{
glyphname = m;
layers = (
{
layerId = "15DF123F-E657-482A-A0A1-05C4B0BC92C6";
paths = (
{
closed = 1;
nodes = (
"72 912 LINE",
"78 912 LINE",
"68 840 LINE",
"68 840 LINE",
"77 870 OFFCURVE",
"114 917 OFFCURVE",
"140 917 QCURVE SMOOTH",
"165 917 OFFCURVE",
"180 872 OFFCURVE",
"174 834 QCURVE",
"174 834 LINE",
"184 870 OFFCURVE",
"228 917 OFFCURVE",
"250 917 QCURVE SMOOTH",
"275 917 OFFCURVE",
"294 870 OFFCURVE",
"288 822 QCURVE SMOOTH",
"174 0 LINE",
"168 0 LINE",
"282 822 LINE SMOOTH",
"288 870 OFFCURVE",
"271 912 OFFCURVE",
"250 912 QCURVE SMOOTH",
"228 912 OFFCURVE",
"186 864 OFFCURVE",
"174 822 QCURVE",
"60 0 LINE",
"54 0 LINE",
"168 822 LINE SMOOTH",
"175 870 OFFCURVE",
"163 912 OFFCURVE",
"139 912 QCURVE SMOOTH",
"114 912 OFFCURVE",
"74 858 OFFCURVE",
"64 816 QCURVE",
"-49 0 LINE",
"-54 0 LINE"
);
}
);
width = 314;
}
);
leftKerningGroup = mnpr_LC;
rightKerningGroup = hmn_LC;
unicode = 006D;
},
{
glyphname = n;
layers = (
{
layerId = "15DF123F-E657-482A-A0A1-05C4B0BC92C6";
paths = (
{
closed = 1;
nodes = (
"72 912 LINE",
"78 912 LINE",
"68 840 LINE",
"68 840 LINE",
"77 870 OFFCURVE",
"114 917 OFFCURVE",
"138 917 QCURVE SMOOTH",
"167 917 OFFCURVE",
"186 870 OFFCURVE",
"180 822 QCURVE SMOOTH",
"60 0 LINE",
"54 0 LINE",
"174 822 LINE SMOOTH",
"180 870 OFFCURVE",
"163 912 OFFCURVE",
"138 912 QCURVE SMOOTH",
"114 912 OFFCURVE",
"75 858 OFFCURVE",
"65 816 QCURVE",
"-49 0 LINE",
"-54 0 LINE"
);
}
);
width = 206;
}
);
leftKerningGroup = mnpr_LC;
rightKerningGroup = hmn_LC;
unicode = 006E;
},
{
glyphname = o;
layers = (
{
layerId = "15DF123F-E657-482A-A0A1-05C4B0BC92C6";
paths = (
{
closed = 1;
nodes = (
"48 780 LINE SMOOTH",
"59 858 OFFCURVE",
"94 917 OFFCURVE",
"130 917 QCURVE SMOOTH",
"165 917 OFFCURVE",
"184 858 OFFCURVE",
"173 780 QCURVE SMOOTH",
"83 120 LINE SMOOTH",
"75 59 OFFCURVE",
"36 -5 OFFCURVE",
"1 -5 QCURVE",
"-33 -5 OFFCURVE",
"-57 56 OFFCURVE",
"-48 120 QCURVE SMOOTH"
);
},
{
closed = 1;
nodes = (
"-43 120 LINE SMOOTH",
"-52 60 OFFCURVE",
"-30 0 OFFCURVE",
"1 0 QCURVE",
"31 0 OFFCURVE",
"70 59 OFFCURVE",
"78 120 QCURVE SMOOTH",
"169 786 LINE SMOOTH",
"179 858 OFFCURVE",
"162 912 OFFCURVE",
"130 912 QCURVE SMOOTH",
"97 912 OFFCURVE",
"64 858 OFFCURVE",
"54 786 QCURVE SMOOTH"
);
}
);
width = 209;
}
);
leftKerningGroup = o_LC;
rightKerningGroup = o_LC;
unicode = 006F;
},
{
glyphname = p;
layers = (
{
layerId = "15DF123F-E657-482A-A0A1-05C4B0BC92C6";
paths = (
{
closed = 1;
nodes = (
"72 912 LINE",
"78 912 LINE",
"68 840 LINE",
"68 840 LINE",
"74 870 OFFCURVE",
"116 917 OFFCURVE",
"141 917 QCURVE SMOOTH",
"167 917 OFFCURVE",
"191 871 OFFCURVE",
"183 810 QCURVE SMOOTH",
"89 116 LINE SMOOTH",
"80 53 OFFCURVE",
"45 -5 OFFCURVE",
"12 -5 QCURVE SMOOTH",
"-14 -5 OFFCURVE",
"-41 17 OFFCURVE",
"-45 33 QCURVE",
"-105 -414 LINE",
"-112 -414 LINE"
);
},
{
closed = 1;
nodes = (
"-43 30 OFFCURVE",
"-16 0 OFFCURVE",
"12 0 QCURVE SMOOTH",
"43 0 OFFCURVE",
"76 57 OFFCURVE",
"84 116 QCURVE SMOOTH",
"178 810 LINE SMOOTH",
"186 867 OFFCURVE",
"164 912 OFFCURVE",
"141 912 QCURVE SMOOTH",
"116 912 OFFCURVE",
"75 864 OFFCURVE",
"64 816 QCURVE",
"-43 48 LINE"
);
}
);
width = 215;
}
);
leftKerningGroup = mnpr_LC;
rightKerningGroup = b_LC;
unicode = 0070;
},
{
glyphname = q;
layers = (
{
layerId = "15DF123F-E657-482A-A0A1-05C4B0BC92C6";
paths = (
{
closed = 1;
nodes = (
"52 810 LINE SMOOTH",
"61 870 OFFCURVE",
"99 917 OFFCURVE",
"127 917 QCURVE SMOOTH",
"152 917 OFFCURVE",
"177 871 OFFCURVE",
"177 836 QCURVE",
"177 836 LINE",
"187 912 LINE",
"193 912 LINE",
"7 -414 LINE",
"1 -414 LINE",
"65 38 LINE",
"65 38 LINE",
"56 20 OFFCURVE",
"24 -5 OFFCURVE",
"0 -5 QCURVE SMOOTH",
"-31 -5 OFFCURVE",
"-58 53 OFFCURVE",
"-49 113 QCURVE SMOOTH"
);
},
{
closed = 1;
nodes = (
"-52 57 OFFCURVE",
"-28 0 OFFCURVE",
"1 0 QCURVE SMOOTH",
"24 0 OFFCURVE",
"55 27 OFFCURVE",
"66 48 QCURVE",
"174 816 LINE",
"175 867 OFFCURVE",
"150 912 OFFCURVE",
"127 912 QCURVE SMOOTH",
"102 912 OFFCURVE",
"65 866 OFFCURVE",
"57 810 QCURVE SMOOTH",
"-44 113 LINE SMOOTH"
);
}
);
width = 208;
}
);
leftKerningGroup = alpha;
unicode = 0071;
},
{
glyphname = r;
layers = (
{
layerId = "15DF123F-E657-482A-A0A1-05C4B0BC92C6";
paths = (
{
closed = 1;
nodes = (
"72 912 LINE",
"78 912 LINE",
"68 840 LINE",
"68 840 LINE",
"76 872 OFFCURVE",
"114 917 OFFCURVE",
"137 917 QCURVE SMOOTH",
"145 917 OFFCURVE",
"159 913 OFFCURVE",
"162 911 QCURVE",
"162 905 LINE",
"159 907 OFFCURVE",
"145 912 OFFCURVE",
"138 912 QCURVE SMOOTH",
"115 912 OFFCURVE",
"77 863 OFFCURVE",
"65 818 QCURVE",
"-49 0 LINE",
"-54 0 LINE"
);
}
);
width = 135;
}
);
leftKerningGroup = mnpr_LC;
rightKerningGroup = r_LC;
unicode = 0072;
},
{
glyphname = s;
layers = (
{
layerId = "15DF123F-E657-482A-A0A1-05C4B0BC92C6";
paths = (
{
closed = 1;
nodes = (
"-37 282 LINE",
"-62 120 LINE SMOOTH",
"-72 53 OFFCURVE",
"-55 0 OFFCURVE",
"-25 0 QCURVE SMOOTH",
"5 0 OFFCURVE",
"40 66 OFFCURVE",
"58 191 QCURVE SMOOTH",
"75 306 OFFCURVE",
"66 426 OFFCURVE",
"41 488 QCURVE SMOOTH",
"18 546 OFFCURVE",
"12 630 OFFCURVE",
"27 739 QCURVE SMOOTH",
"43 856 OFFCURVE",
"81 917 OFFCURVE",
"108 917 QCURVE SMOOTH",
"134 917 OFFCURVE",
"154 862 OFFCURVE",
"144 786 QCURVE SMOOTH",
"126 648 LINE",
"121 648 LINE",
"138 780 LINE SMOOTH",
"148 858 OFFCURVE",
"132 912 OFFCURVE",
"108 912 QCURVE SMOOTH",
"83 912 OFFCURVE",
"48 852 OFFCURVE",
"33 739 QCURVE SMOOTH",
"18 630 OFFCURVE",
"22 552 OFFCURVE",
"46 491 QCURVE SMOOTH",
"70 432 OFFCURVE",
"81 312 OFFCURVE",
"63 191 QCURVE SMOOTH",
"44 62 OFFCURVE",
"8 -5 OFFCURVE",
"-25 -5 QCURVE SMOOTH",
"-58 -5 OFFCURVE",
"-78 51 OFFCURVE",
"-67 120 QCURVE SMOOTH",
"-42 282 LINE"
);
}
);
width = 162;
}
);
leftKerningGroup = s_LC;
rightKerningGroup = s_LC;
unicode = 0073;
},
{
glyphname = t;
layers = (
{
layerId = "15DF123F-E657-482A-A0A1-05C4B0BC92C6";
paths = (
{
closed = 1;
nodes = (
"35 912 LINE",
"149 912 LINE",
"149 907 LINE",
"35 907 LINE"
);
},
{
closed = 1;
nodes = (
"80 909 LINE",
"80 909 LINE",
"103 1074 LINE",
"108 1074 LINE",
"-31 99 LINE SMOOTH",
"-39 45 OFFCURVE",
"-15 0 OFFCURVE",
"10 0 QCURVE SMOOTH",
"24 0 OFFCURVE",
"40 6 OFFCURVE",
"43 8 QCURVE",
"45 4 LINE",
"41 1 OFFCURVE",
"23 -5 OFFCURVE",
"9 -5 QCURVE SMOOTH",
"-18 -5 OFFCURVE",
"-45 42 OFFCURVE",
"-37 99 QCURVE SMOOTH"
);
}
);
width = 120;
}
);
leftKerningGroup = t_LC;
rightKerningGroup = t_LC;
unicode = 0074;
},
{
glyphname = u;
layers = (
{
layerId = "15DF123F-E657-482A-A0A1-05C4B0BC92C6";
paths = (
{
closed = 1;
nodes = (
"72 912 LINE",
"77 912 LINE",
"-40 60 LINE SMOOTH",
"-44 29 OFFCURVE",
"-29 0 OFFCURVE",
"-8 0 QCURVE SMOOTH",
"14 0 OFFCURVE",
"57 49 OFFCURVE",
"69 96 QCURVE",
"186 912 LINE",
"191 912 LINE",
"60 0 LINE",
"56 0 LINE",
"66 72 LINE",
"66 72 LINE",
"55 41 OFFCURVE",
"15 -5 OFFCURVE",
"-9 -5 QCURVE SMOOTH",
"-31 -5 OFFCURVE",
"-50 25 OFFCURVE",
"-45 60 QCURVE SMOOTH"
);
}
);
width = 206;
}
);
leftKerningGroup = u_LC;
rightKerningGroup = u_LC;
unicode = 0075;
},
{
glyphname = v;
layers = (
{
layerId = "15DF123F-E657-482A-A0A1-05C4B0BC92C6";
paths = (
{
closed = 1;
nodes = (
"41 912 LINE",
"-11 36 LINE SMOOTH",
"-11 36 OFFCURVE",
"-12 22 OFFCURVE",
"-12 22 QCURVE",
"-12 22 LINE",
"-12 22 OFFCURVE",
"-9 36 OFFCURVE",
"-9 36 QCURVE SMOOTH",
"186 912 LINE",
"191 912 LINE",
"-12 0 LINE",
"-18 0 LINE",
"36 912 LINE"
);
}
);
width = 174;
}
);
leftKerningGroup = gamma;
rightKerningGroup = gamma;
unicode = 0076;
},
{
glyphname = w;
layers = (
{
layerId = "15DF123F-E657-482A-A0A1-05C4B0BC92C6";
paths = (
{
closed = 1;
nodes = (
"29 912 LINE",
"-27 48 LINE SMOOTH",
"-27 48 OFFCURVE",
"-28 30 OFFCURVE",
"-28 30 QCURVE",
"-28 30 LINE",
"-28 30 OFFCURVE",
"-25 48 OFFCURVE",
"-25 48 QCURVE SMOOTH",
"156 912 LINE",
"162 912 LINE",
"99 48 LINE SMOOTH",
"99 48 OFFCURVE",
"97 30 OFFCURVE",
"97 30 QCURVE",
"97 30 LINE",
"97 30 OFFCURVE",
"101 48 OFFCURVE",
"101 48 QCURVE SMOOTH",
"283 912 LINE",
"288 912 LINE",
"96 0 LINE",
"90 0 LINE",
"154 870 LINE SMOOTH",
"154 870 OFFCURVE",
"156 888 OFFCURVE",
"156 888 QCURVE",
"156 888 LINE",
"156 888 OFFCURVE",
"152 870 OFFCURVE",
"152 870 QCURVE SMOOTH",
"-30 0 LINE",
"-36 0 LINE",
"24 912 LINE"
);
}
);
width = 262;
}
);
leftKerningGroup = w_LC;
rightKerningGroup = w_LC;
unicode = 0077;
},
{
glyphname = x;
layers = (
{
layerId = "15DF123F-E657-482A-A0A1-05C4B0BC92C6";
paths = (
{
closed = 1;
nodes = (
"36 487 LINE",
"36 487 LINE",
"157 912 LINE",
"162 912 LINE",
"37 473 LINE",
"37 473 LINE",
"-97 0 LINE",
"-102 0 LINE"
);
},
{
closed = 1;
nodes = (
"36 912 LINE",
"39 488 LINE",
"39 488 LINE",
"42 0 LINE",
"37 0 LINE",
"34 473 LINE",
"34 473 LINE",
"31 912 LINE"
);
}
);
width = 143;
}
);
unicode = 0078;
},
{
glyphname = y;
layers = (
{
layerId = "15DF123F-E657-482A-A0A1-05C4B0BC92C6";
paths = (
{
closed = 1;
nodes = (
"-255 -386 LINE",
"-249 -390 OFFCURVE",
"-222 -397 OFFCURVE",
"-198 -397 QCURVE SMOOTH",
"-150 -397 OFFCURVE",
"-77 -275 OFFCURVE",
"-17 -5 QCURVE",
"-17 -5 LINE",
"36 912 LINE",
"41 912 LINE",
"-7 102 LINE SMOOTH",
"-8 90 OFFCURVE",
"-12 24 OFFCURVE",
"-13 12 QCURVE",
"-13 12 LINE",
"-11 24 OFFCURVE",
"4 89 OFFCURVE",
"7 102 QCURVE SMOOTH",
"186 912 LINE",
"191 912 LINE",
"-13 -6 LINE SMOOTH",
"-73 -276 OFFCURVE",
"-147 -403 OFFCURVE",
"-198 -402 QCURVE SMOOTH",
"-222 -402 OFFCURVE",
"-251 -395 OFFCURVE",
"-258 -390 QCURVE"
);
}
);
width = 164;
}
);
leftKerningGroup = gamma;
rightKerningGroup = gamma;
unicode = 0079;
},
{
glyphname = z;
layers = (
{
layerId = "15DF123F-E657-482A-A0A1-05C4B0BC92C6";
paths = (
{
closed = 1;
nodes = (
"-90 6 LINE",
"139 907 LINE",
"42 907 LINE",
"42 912 LINE",
"144 912 LINE",
"144 906 LINE",
"-85 5 LINE",
"30 5 LINE",
"30 0 LINE",
"-90 0 LINE"
);
}
);
width = 131;
}
);
leftKerningGroup = z_LC;
rightKerningGroup = z_LC;
unicode = 007A;
},
{
glyphname = germandbls;
layers = (
{
layerId = "15DF123F-E657-482A-A0A1-05C4B0BC92C6";
paths = (
{
closed = 1;
nodes = (
"204 0 LINE",
"20 0 LINE",
"212.549 1092 LINE SMOOTH",
"248.343 1295 OFFCURVE",
"498.486 1534 OFFCURVE",
"697.486 1534 QCURVE SMOOTH",
"861.486 1534 OFFCURVE",
"1028.981 1361 OFFCURVE",
"1003.237 1215 QCURVE SMOOTH",
"987.721 1127 OFFCURVE",
"918.148 1016 OFFCURVE",
"873.566 973 QCURVE SMOOTH",
"834.866 935 OFFCURVE",
"762.465 859 OFFCURVE",
"757.351 830 QCURVE SMOOTH",
"748.888 782 OFFCURVE",
"864.079 681 OFFCURVE",
"934.146 619 QCURVE SMOOTH",
"1001.743 560 OFFCURVE",
"1082.47 411 OFFCURVE",
"1059.724 282 QCURVE SMOOTH",
"1037.683 157 OFFCURVE",
"788.473 -20 OFFCURVE",
"621.473 -20 QCURVE SMOOTH",
"457.473 -20 OFFCURVE",
"286.746 129 OFFCURVE",
"313.019 278 QCURVE SMOOTH",
"317.603 304 LINE",
"480.603 304 LINE",
"479.016 295 LINE SMOOTH",
"464.205 211 OFFCURVE",
"555.099 131 OFFCURVE",
"650.099 131 QCURVE SMOOTH",
"751.099 131 OFFCURVE",
"873.439 218 OFFCURVE",
"888.251 302 QCURVE SMOOTH",
"900.417 371 OFFCURVE",
"818.168 466 OFFCURVE",
"769.279 512 QCURVE SMOOTH",
"707.33 569 OFFCURVE",
"559.487 706 OFFCURVE",
"575.533 797 QCURVE SMOOTH",
"588.581 871 OFFCURVE",
"691.153 982 OFFCURVE",
"730.911 1026 QCURVE SMOOTH",
"766.965 1066 OFFCURVE",
"816.6 1149 OFFCURVE",
"826.298 1204 QCURVE SMOOTH",
"841.991 1293 OFFCURVE",
"748.86 1383 OFFCURVE",
"666.86 1383 QCURVE SMOOTH",
"563.86 1383 OFFCURVE",
"422.822 1241 OFFCURVE",
"396.549 1092 QCURVE {name = hr00;}"
);
}
);
width = 1186;
}
);
unicode = 00DF;
},
{
glyphname = ae;
layers = (
{
layerId = "15DF123F-E657-482A-A0A1-05C4B0BC92C6";
paths = (
{
closed = 1;
nodes = (
"188.555 230 OFFCURVE",
"274.57 128 OFFCURVE",
"384.57 128 QCURVE SMOOTH",
"494.57 128 OFFCURVE",
"699.372 280 OFFCURVE",
"714.359 365 QCURVE",
"740.985 516 LINE",
"522.985 516 LINE SMOOTH",
"382.985 516 OFFCURVE",
"220.294 410 OFFCURVE",
"204.425 320 QCURVE SMOOTH"
);
},
{
closed = 1;
nodes = (
"44.874 470 OFFCURVE",
"330.26 648 OFFCURVE",
"526.26 648 QCURVE SMOOTH",
"764.26 648 LINE",
"776.955 720 LINE SMOOTH",
"793.706 815 OFFCURVE",
"716.689 934 OFFCURVE",
"596.689 934 QCURVE SMOOTH",
"476.689 934 OFFCURVE",
"356.233 835 OFFCURVE",
"344.772 770 QCURVE SMOOTH",
"343.89 765 LINE",
"158.89 765 LINE",
"159.772 770 LINE SMOOTH",
"181.813 895 OFFCURVE",
"437.786 1082 OFFCURVE",
"627.786 1082 QCURVE SMOOTH",
"791.786 1082 OFFCURVE",
"940.334 949 OFFCURVE",
"936.757 872 QCURVE",
"970.511 950 OFFCURVE",
"1161.786 1082 OFFCURVE",
"1307.786 1082 QCURVE SMOOTH",
"1522.786 1082 OFFCURVE",
"1705.062 800 OFFCURVE",
"1662.743 560 QCURVE SMOOTH",
"1649.342 484 LINE",
"840.342 484 LINE",
"866.439 632 LINE",
"1487.439 632 LINE",
"1492.671 656 LINE",
"1511.772 770 OFFCURVE",
"1410.984 930 OFFCURVE",
"1277.984 930 QCURVE SMOOTH",
"1140.984 930 OFFCURVE",
"955.311 705 OFFCURVE",
"926.569 542 QCURVE SMOOTH",
"920.927 510 LINE SMOOTH",
"892.185 347 OFFCURVE",
"1006.512 122 OFFCURVE",
"1168.512 122 QCURVE SMOOTH",
"1268.512 122 OFFCURVE",
"1428.029 210 OFFCURVE",
"1483.608 270 QCURVE",
"1586.857 175 LINE",
"1523.633 100 OFFCURVE",
"1291.71 -30 OFFCURVE",
"1141.71 -30 QCURVE SMOOTH",
"995.71 -30 OFFCURVE",
"784.869 90 OFFCURVE",
"752.558 213 QCURVE",
"691.456 99 OFFCURVE",
"470.473 -20 OFFCURVE",
"318.473 -20 QCURVE SMOOTH",
"168.473 -20 OFFCURVE",
"-11.551 150 OFFCURVE",
"14.898 300 QCURVE SMOOTH"
);
}
);
width = 1748;
}
);
leftKerningGroup = a_LC;
rightKerningGroup = e_LC;
unicode = 00E6;
},
{
glyphname = eth;
layers = (
{
layerId = "15DF123F-E657-482A-A0A1-05C4B0BC92C6";
paths = (
{
closed = 1;
nodes = (
"421.773 1581 LINE",
"745.548 1506 OFFCURVE",
"1078.738 1008 OFFCURVE",
"1012.615 633 QCURVE",
"995.335 535 LINE",
"951.958 289 OFFCURVE",
"631.473 -20 OFFCURVE",
"429.473 -20 QCURVE SMOOTH",
"219.473 -20 OFFCURVE",
"3.727 265 OFFCURVE",
"39.521 468 QCURVE SMOOTH",
"80.076 698 OFFCURVE",
"384.448 978 OFFCURVE",
"577.448 978 QCURVE SMOOTH",
"746.448 978 OFFCURVE",
"936.893 748 OFFCURVE",
"913.088 613 QCURVE",
"844.265 614 LINE",
"855.902 680 OFFCURVE",
"737.646 826 OFFCURVE",
"594.646 826 QCURVE SMOOTH",
"448.646 826 OFFCURVE",
"254.439 632 OFFCURVE",
"225.521 468 QCURVE SMOOTH",
"203.833 345 OFFCURVE",
"319.275 132 OFFCURVE",
"460.275 132 QCURVE SMOOTH",
"588.275 132 OFFCURVE",
"779.007 363 OFFCURVE",
"809.335 535 QCURVE SMOOTH",
"826.968 635 LINE SMOOTH",
"888.506 984 OFFCURVE",
"578.923 1355 OFFCURVE",
"336.561 1421 QCURVE"
);
},
{
closed = 1;
nodes = (
"459.083 1061 LINE",
"397.242 1181 LINE",
"998.602 1546 LINE",
"1060.619 1427 LINE"
);
}
);
width = 1114;
}
);
unicode = 00F0;
},
{
glyphname = thorn;
layers = (
{
layerId = "15DF123F-E657-482A-A0A1-05C4B0BC92C6";
paths = (
{
closed = 1;
nodes = (
"290.838 1536 LINE",
"476.838 1536 LINE",
"369.631 928 LINE",
"427.093 993 OFFCURVE",
"596.023 1072 OFFCURVE",
"706.023 1072 QCURVE SMOOTH",
"906.023 1072 OFFCURVE",
"1093.124 772 OFFCURVE",
"1052.569 542 QCURVE SMOOTH",
"1046.927 510 LINE SMOOTH",
"1006.372 280 OFFCURVE",
"713.473 -20 OFFCURVE",
"513.473 -20 QCURVE SMOOTH",
"403.473 -20 OFFCURVE",
"267.051 57 OFFCURVE",
"237.63 117 QCURVE",
"233.63 117 LINE",
"131.648 -416 LINE",
"-53.352 -416 LINE"
);
},
{
closed = 1;
nodes = (
"279.671 242 OFFCURVE",
"400.275 132 OFFCURVE",
"500.275 132 QCURVE SMOOTH",
"650.275 132 OFFCURVE",
"828.714 350 OFFCURVE",
"856.927 510 QCURVE SMOOTH",
"862.569 542 LINE SMOOTH",
"890.782 702 OFFCURVE",
"789.221 920 OFFCURVE",
"639.221 920 QCURVE SMOOTH",
"539.221 920 OFFCURVE",
"379.825 810 OFFCURVE",
"336.482 740 QCURVE",
"261.014 312 LINE"
);
}
);
width = 1170;
}
);
rightKerningGroup = b_LC;
unicode = 00FE;
},
{
glyphname = kgreenlandic;
layers = (
{
layerId = "15DF123F-E657-482A-A0A1-05C4B0BC92C6";
paths = (
{
closed = 1;
nodes = (
"212 0 LINE",
"27 0 LINE",
"217.786 1082 LINE",
"402.786 1082 LINE"
);
},
{
closed = 1;
nodes = (
"470.463 462 LINE",
"203.463 462 LINE",
"232.028 624 LINE",
"414.028 624 LINE",
"890.786 1082 LINE",
"1114.786 1082 LINE"
);
},
{
closed = 1;
nodes = (
"381.4 490 LINE",
"524.028 624 LINE",
"960 0 LINE",
"726 0 LINE"
);
}
);
width = 1072;
}
);
leftKerningGroup = mnpr_LC;
rightKerningGroup = k_LC;
unicode = 0138;
},
{
glyphname = oe;
layers = (
{
layerId = "15DF123F-E657-482A-A0A1-05C4B0BC92C6";
paths = (
{
closed = 1;
nodes = (
"236.927 510 LINE SMOOTH",
"208.185 347 OFFCURVE",
"322.512 122 OFFCURVE",
"474.512 122 QCURVE SMOOTH",
"626.512 122 OFFCURVE",
"820.009 346 OFFCURVE",
"848.927 510 QCURVE SMOOTH",
"854.569 542 LINE SMOOTH",
"883.487 706 OFFCURVE",
"768.984 930 OFFCURVE",
"616.984 930 QCURVE SMOOTH",
"464.984 930 OFFCURVE",
"271.311 705 OFFCURVE",
"242.569 542 QCURVE SMOOTH"
);
},
{
closed = 1;
nodes = (
"1032.279 926 OFFCURVE",
"1274.786 1082 OFFCURVE",
"1452.786 1082 QCURVE SMOOTH",
"1639.786 1082 OFFCURVE",
"1822.062 800 OFFCURVE",
"1779.743 560 QCURVE SMOOTH",
"1766.342 484 LINE",
"957.342 484 LINE",
"983.439 632 LINE",
"1604.439 632 LINE",
"1609.671 656 LINE",
"1628.772 770 OFFCURVE",
"1527.984 930 OFFCURVE",
"1405.984 930 QCURVE SMOOTH",
"1257.984 930 OFFCURVE",
"1072.487 706 OFFCURVE",
"1043.569 542 QCURVE SMOOTH",
"1037.927 510 LINE SMOOTH",
"1009.009 346 OFFCURVE",
"1113.512 122 OFFCURVE",
"1275.512 122 QCURVE SMOOTH",
"1375.512 122 OFFCURVE",
"1545.029 210 OFFCURVE",
"1600.608 270 QCURVE",
"1703.857 175 LINE",
"1640.633 100 OFFCURVE",
"1408.71 -30 OFFCURVE",
"1279.71 -30 QCURVE SMOOTH",
"1082.71 -30 OFFCURVE",
"900.396 110 OFFCURVE",
"883.62 185 QCURVE",
"840.572 111 OFFCURVE",
"612.71 -30 OFFCURVE",
"417.71 -30 QCURVE SMOOTH",
"221.71 -30 OFFCURVE",
"4.961 272 OFFCURVE",
"46.927 510 QCURVE SMOOTH",
"52.569 542 LINE SMOOTH",
"94.535 780 OFFCURVE",
"416.609 1081 OFFCURVE",
"631.609 1081 QCURVE SMOOTH",
"817.609 1081 OFFCURVE",
"991.397 921 OFFCURVE",
"1001.699 866 QCURVE"
);
}
);
width = 1861;
}
);
leftKerningGroup = alpha;
rightKerningGroup = e_LC;
unicode = 0153;
},
{
glyphname = schwa;
layers = (
{
layerId = "15DF123F-E657-482A-A0A1-05C4B0BC92C6";
paths = (
{
closed = 1;
nodes = (
"936.927 510 LINE SMOOTH",
"894.961 272 OFFCURVE",
"580.71 -30 OFFCURVE",
"365.71 -30 QCURVE SMOOTH",
"150.71 -30 OFFCURVE",
"-31.566 252 OFFCURVE",
"10.753 492 QCURVE SMOOTH",
"24.154 568 LINE",
"833.154 568 LINE",
"807.057 420 LINE",
"186.057 420 LINE",
"180.825 396 LINE",
"161.724 282 OFFCURVE",
"262.512 122 OFFCURVE",
"384.512 122 QCURVE SMOOTH",
"532.512 122 OFFCURVE",
"718.185 347 OFFCURVE",
"746.927 510 QCURVE SMOOTH",
"752.569 542 LINE SMOOTH",
"781.311 705 OFFCURVE",
"666.984 930 OFFCURVE",
"504.984 930 QCURVE SMOOTH",
"404.984 930 OFFCURVE",
"245.467 842 OFFCURVE",
"189.888 782 QCURVE",
"86.639 877 LINE",
"149.863 952 OFFCURVE",
"381.786 1082 OFFCURVE",
"531.786 1082 QCURVE SMOOTH",
"776.786 1082 OFFCURVE",
"984.535 780 OFFCURVE",
"942.569 542 QCURVE SMOOTH"
);
}
);
width = 1060;
}
);
rightKerningGroup = o_LC;
unicode = 0259;
},
{
glyphname = primemod;
layers = (
{
layerId = "15DF123F-E657-482A-A0A1-05C4B0BC92C6";
paths = (
{
closed = 1;
nodes = (
"549.843 1502 LINE",
"340.74 991 LINE",
"219.622 996 LINE",
"360.843 1502 LINE"
);
}
);
width = 600;
}
);
unicode = 02B9;
},
{
glyphname = doubleprimemod;
layers = (
{
layerId = "15DF123F-E657-482A-A0A1-05C4B0BC92C6";
paths = (
{
closed = 1;
nodes = (
"549.843 1502 LINE",
"344.032 1004 LINE",
"222.914 1009 LINE",
"360.843 1502 LINE"
);
},
{
closed = 1;
nodes = (
"849.843 1502 LINE",
"644.032 1004 LINE",
"522.914 1009 LINE",
"660.843 1502 LINE"
);
}
);
width = 788;
}
);
unicode = 02BA;
},
{
glyphname = apostrophemod;
layers = (
{
layerId = "15DF123F-E657-482A-A0A1-05C4B0BC92C6";
paths = (
{
closed = 1;
nodes = (
"259.549 1092 OFFCURVE",
"384.356 1210 OFFCURVE",
"411.17 1277 QCURVE",
"340.17 1277 OFFCURVE",
"273.394 1352 OFFCURVE",
"283.797 1411 QCURVE SMOOTH",
"294.024 1469 OFFCURVE",
"388.602 1546 OFFCURVE",
"451.602 1546 QCURVE SMOOTH",
"510.602 1546 OFFCURVE",
"589.674 1450 OFFCURVE",
"576.097 1373 QCURVE SMOOTH",
"554.585 1251 OFFCURVE",
"362.436 1063 OFFCURVE",
"248.619 1013 QCURVE",
"214.259 1062 LINE"
);
}
);
width = 600;
}
);
leftKerningGroup = minute;
rightKerningGroup = minute;
unicode = 02BC;
},
{
glyphname = ordfeminine;
layers = (
{
guideLines = (
{
position = "{168.406, 1681}";
},
{
position = "{32.281, 909}";
}
);
layerId = "15DF123F-E657-482A-A0A1-05C4B0BC92C6";
paths = (
{
closed = 1;
nodes = (
"622.764 821 OFFCURVE",
"627.777 736 OFFCURVE",
"645.487 706 QCURVE",
"780.487 706 LINE",
"774.069 749 OFFCURVE",
"777.762 838 OFFCURVE",
"786.402 887 QCURVE SMOOTH",
"841.769 1201 LINE SMOOTH",
"865.925 1338 OFFCURVE",
"731.435 1477 OFFCURVE",
"596.435 1477 QCURVE SMOOTH",
"469.435 1477 OFFCURVE",
"276.099 1356 OFFCURVE",
"259.348 1261 QCURVE SMOOTH",
"254.587 1234 LINE",
"409.587 1234 LINE",
"411.88 1247 LINE SMOOTH",
"419.814 1292 OFFCURVE",
"504.336 1346 OFFCURVE",
"575.336 1346 QCURVE SMOOTH",
"642.336 1346 OFFCURVE",
"702.993 1276 OFFCURVE",
"689.945 1202 QCURVE SMOOTH",
"629.994 862 LINE"
);
},
{
closed = 1;
nodes = (
"551.6 1149 LINE SMOOTH",
"382.6 1149 OFFCURVE",
"194.264 1028 OFFCURVE",
"174.868 918 QCURVE SMOOTH",
"156.883 816 OFFCURVE",
"262.018 692 OFFCURVE",
"381.018 692 QCURVE SMOOTH",
"482.018 692 OFFCURVE",
"629.946 788 OFFCURVE",
"660.586 837 QCURVE",
"662.334 949 LINE",
"655.634 911 OFFCURVE",
"506.941 822 OFFCURVE",
"442.941 822 QCURVE SMOOTH",
"378.941 822 OFFCURVE",
"324.991 879 OFFCURVE",
"332.573 922 QCURVE SMOOTH",
"340.861 969 OFFCURVE",
"443.733 1042 OFFCURVE",
"533.733 1042 QCURVE SMOOTH",
"690.733 1042 LINE",
"709.6 1149 LINE"
);
}
);
width = 916;
}
);
unicode = 00AA;
userData = {
com.typemytype.robofont.guideline.magnetic.3CJlALCfkl = 5;
com.typemytype.robofont.guideline.magnetic.Zdl6NZVQAy = 5;
};
},
{
glyphname = ordmasculine;
layers = (
{
guideLines = (
{
position = "{220.246, 1975}";
}
);
layerId = "15DF123F-E657-482A-A0A1-05C4B0BC92C6";
paths = (
{
closed = 1;
nodes = (
"193.192 1124 LINE",
"220.346 1278 OFFCURVE",
"440.719 1477 OFFCURVE",
"597.435 1477 QCURVE SMOOTH",
"755.644 1477 OFFCURVE",
"904.299 1277.731 OFFCURVE",
"877.192 1124 QCURVE",
"862.909 1043 LINE",
"835.802 889.269 OFFCURVE",
"617.558 691 OFFCURVE",
"460.842 691 QCURVE SMOOTH",
"302.633 691 OFFCURVE",
"151.755 889 OFFCURVE",
"178.909 1043 QCURVE"
);
},
{
closed = 1;
nodes = (
"341.909 1043 LINE",
"325.855 951.955 OFFCURVE",
"393.56 830 OFFCURVE",
"485.351 830 QCURVE SMOOTH",
"574.157 830 OFFCURVE",
"684.855 951.955 OFFCURVE",
"700.909 1043 QCURVE",
"715.192 1124 LINE",
"730.85 1212.806 OFFCURVE",
"662.871 1336 OFFCURVE",
"572.573 1336 QCURVE SMOOTH",
"482.274 1336 OFFCURVE",
"371.85 1212.806 OFFCURVE",
"356.192 1124 QCURVE"
);
}
);
width = 932;
}
);
unicode = 00BA;
userData = {
com.typemytype.robofont.guideline.magnetic.Jnt0R9CyOf = 5;
};
},
{
glyphname = hookabovecomb;
layers = (
{
layerId = "15DF123F-E657-482A-A0A1-05C4B0BC92C6";
paths = (
{
closed = 1;
nodes = (
"129.624 979 LINE SMOOTH",
"130.329 983 OFFCURVE",
"135.035 987 OFFCURVE",
"142.035 987 QCURVE SMOOTH",
"170.035 987 OFFCURVE",
"211.675 1036 OFFCURVE",
"219.433 1080 QCURVE SMOOTH",
"226.486 1120 OFFCURVE",
"206.068 1163 OFFCURVE",
"185.068 1163 QCURVE SMOOTH",
"170.068 1163 OFFCURVE",
"141.776 1150 OFFCURVE",
"130.836 1139 QCURVE",
"127.718 1144 LINE",
"140.834 1156 OFFCURVE",
"171.126 1169 OFFCURVE",
"186.126 1169 QCURVE SMOOTH",
"210.126 1169 OFFCURVE",
"233.015 1123 OFFCURVE",
"225.433 1080 QCURVE SMOOTH",
"216.969 1032 OFFCURVE",
"170.977 981 OFFCURVE",
"135.977 981 QCURVE",
"133.508 967 LINE",
"127.508 967 LINE"
);
}
);
width = 250;
}
);
unicode = 0309;
},
{
glyphname = breveinvertedcomb;
layers = (
{
layerId = "15DF123F-E657-482A-A0A1-05C4B0BC92C6";
paths = (
{
closed = 1;
nodes = (
"98.156 965 LINE",
"126.199 1073 OFFCURVE",
"176.303 1170 OFFCURVE",
"203.303 1170 QCURVE SMOOTH",
"229.303 1170 OFFCURVE",
"245.199 1073 OFFCURVE",
"236.156 965 QCURVE",
"229.979 964 LINE",
"239.494 1069 OFFCURVE",
"226.245 1164 OFFCURVE",
"202.245 1164 QCURVE SMOOTH",
"177.245 1164 OFFCURVE",
"130.494 1069 OFFCURVE",
"103.979 964 QCURVE"
);
}
);
width = 250;
}
);
unicode = 030F;
},
{
glyphname = horncomb;
layers = (
{
layerId = "15DF123F-E657-482A-A0A1-05C4B0BC92C6";
paths = (
{
closed = 1;
nodes = (
"44.163 914 LINE SMOOTH",
"68.163 914 OFFCURVE",
"97.216 954 OFFCURVE",
"103.74 991 QCURVE SMOOTH",
"108.148 1016 OFFCURVE",
"112.025 1055 OFFCURVE",
"112.375 1074 QCURVE",
"117.375 1074 LINE",
"117.025 1055 OFFCURVE",
"114.148 1016 OFFCURVE",
"109.74 991 QCURVE SMOOTH",
"102.863 952 OFFCURVE",
"70.105 908 OFFCURVE",
"43.105 908 QCURVE SMOOTH",
"40.105 908 OFFCURVE",
"36.105 908 OFFCURVE",
"32.105 908 QCURVE",
"33.163 914 LINE"
);
}
);
width = 250;
}
);
unicode = 031B;
},
{
glyphname = dotbelowcomb;
layers = (
{
layerId = "15DF123F-E657-482A-A0A1-05C4B0BC92C6";
paths = (
{
closed = 1;
nodes = (
"-49.157 -137 OFFCURVE",
"-33.688 -123 OFFCURVE",
"-22.688 -123 QCURVE SMOOTH",
"-11.688 -123 OFFCURVE",
"-1.157 -137 OFFCURVE",
"-2.744 -146 QCURVE SMOOTH",
"-4.331 -155 OFFCURVE",
"-19.799 -169 OFFCURVE",
"-30.799 -169 QCURVE SMOOTH",
"-41.799 -169 OFFCURVE",
"-52.331 -155 OFFCURVE",
"-50.744 -146 QCURVE SMOOTH"
);
}
);
width = 250;
}
);
unicode = 0323;
},
{
glyphname = dieresisbelowcomb;
layers = (
{
layerId = "15DF123F-E657-482A-A0A1-05C4B0BC92C6";
paths = (
{
closed = 1;
nodes = (
"-85.509 -139 OFFCURVE",
"-74.57 -128 OFFCURVE",
"-65.57 -128 QCURVE SMOOTH",
"-56.57 -128 OFFCURVE",
"-48.509 -139 OFFCURVE",
"-49.744 -146 QCURVE SMOOTH",
"-50.978 -153 OFFCURVE",
"-62.918 -164 OFFCURVE",
"-71.918 -164 QCURVE SMOOTH",
"-80.918 -164 OFFCURVE",
"-87.978 -153 OFFCURVE",
"-86.744 -146 QCURVE SMOOTH"
);
},
{
closed = 1;
nodes = (
"-12.509 -139 OFFCURVE",
"-1.57 -128 OFFCURVE",
"8.43 -128 QCURVE SMOOTH",
"17.43 -128 OFFCURVE",
"24.491 -139 OFFCURVE",
"23.08 -147 QCURVE SMOOTH",
"21.846 -154 OFFCURVE",
"11.082 -164 OFFCURVE",
"2.082 -164 QCURVE SMOOTH",
"-7.918 -164 OFFCURVE",
"-15.154 -154 OFFCURVE",
"-13.92 -147 QCURVE SMOOTH"
);
}
);
width = 250;
}
);
unicode = 0324;
},
{
glyphname = commaaccentcomb;
layers = (
{
layerId = "15DF123F-E657-482A-A0A1-05C4B0BC92C6";
paths = (
{
closed = 1;
nodes = (
"-58.425 -320 OFFCURVE",
"-47.077 -284 OFFCURVE",
"-4.507 -156 QCURVE",
"1.669 -155 LINE",
"-89.115 -426 LINE",
"-94.763 -424 LINE"
);
}
);
width = 250;
}
);
unicode = 0326;
},
{
glyphname = brevebelowcomb;
layers = (
{
layerId = "15DF123F-E657-482A-A0A1-05C4B0BC92C6";
paths = (
{
closed = 1;
nodes = (
"106.254 -129 LINE",
"86.085 -181 OFFCURVE",
"3.097 -266 OFFCURVE",
"-49.903 -266 QCURVE SMOOTH",
"-97.903 -266 OFFCURVE",
"-152.797 -186 OFFCURVE",
"-157.57 -128 QCURVE",
"-150.217 -126 LINE",
"-144.915 -181 OFFCURVE",
"-93.669 -259 OFFCURVE",
"-48.669 -259 QCURVE SMOOTH",
"1.331 -259 OFFCURVE",
"79.085 -181 OFFCURVE",
"99.783 -126 QCURVE"
);
}
);
width = 250;
}
);
unicode = 032E;
},
{
glyphname = macronbelowcomb;
layers = (
{
layerId = "15DF123F-E657-482A-A0A1-05C4B0BC92C6";
paths = (
{
closed = 1;
nodes = (
"-126.807 -118 LINE",
"79.193 -118 LINE",
"78.135 -124 LINE",
"-127.865 -124 LINE"
);
}
);
width = 250;
}
);
unicode = 0331;
},
{
glyphname = zero;
layers = (
{
layerId = "15DF123F-E657-482A-A0A1-05C4B0BC92C6";
paths = (
{
closed = 1;
nodes = (
"126 1308 LINE SMOOTH",
"138 1392 OFFCURVE",
"180 1458 OFFCURVE",
"216 1458 QCURVE SMOOTH",
"252 1458 OFFCURVE",
"276 1392 OFFCURVE",
"264 1308 QCURVE SMOOTH",
"102 150 LINE SMOOTH",
"90 66 OFFCURVE",
"42 -6 OFFCURVE",
"12 -6 QCURVE SMOOTH",
"-24 -6 OFFCURVE",
"-54 66 OFFCURVE",
"-36 150 QCURVE SMOOTH"
);
},
{
closed = 1;
nodes = (
"-42 72 OFFCURVE",
"-18 0 OFFCURVE",
"12 0 QCURVE SMOOTH",
"42 0 OFFCURVE",
"84 72 OFFCURVE",
"96 150 QCURVE SMOOTH",
"258 1308 LINE SMOOTH",
"270 1392 OFFCURVE",
"246 1452 OFFCURVE",
"216 1452 QCURVE SMOOTH",
"186 1452 OFFCURVE",
"138 1392 OFFCURVE",
"132 1308 QCURVE SMOOTH",
"-30 150 LINE SMOOTH"
);
}
);
width = 227;
}
);
unicode = 0030;
},
{
glyphname = one;
layers = (
{
layerId = "15DF123F-E657-482A-A0A1-05C4B0BC92C6";
paths = (
{
closed = 1;
nodes = (
"237 1448 LINE",
"107 1366 LINE",
"103 1373 LINE",
"240 1458 LINE",
"245 1458 LINE",
"35 0 LINE",
"28 0 LINE"
);
}
);
width = 227;
}
);
unicode = 0031;
},
{
glyphname = two;
layers = (
{
layerId = "15DF123F-E657-482A-A0A1-05C4B0BC92C6";
paths = (
{
closed = 1;
nodes = (
"-72 6 LINE",
"133 666 LINE SMOOTH",
"178 810 OFFCURVE",
"227 1001 OFFCURVE",
"251 1164 QCURVE SMOOTH",
"279 1356 OFFCURVE",
"260 1452 OFFCURVE",
"220 1452 QCURVE SMOOTH",
"184 1452 OFFCURVE",
"126 1358 OFFCURVE",
"108 1230 QCURVE SMOOTH",
"84 1056 LINE",
"78 1056 LINE",
"102 1230 LINE SMOOTH",
"120 1362 OFFCURVE",
"180 1458 OFFCURVE",
"222 1458 QCURVE SMOOTH",
"262 1458 OFFCURVE",
"287 1361 OFFCURVE",
"257 1164 QCURVE SMOOTH",
"230 985 OFFCURVE",
"186 811 OFFCURVE",
"139 662 QCURVE SMOOTH",
"-65 8 LINE",
"105 8 LINE",
"102 0 LINE",
"-72 0 LINE"
);
}
);
width = 227;
}
);
unicode = 0032;
},
{
glyphname = three;
layers = (
{
layerId = "15DF123F-E657-482A-A0A1-05C4B0BC92C6";
paths = (
{
closed = 1;
nodes = (
"-18 396 LINE",
"-12 396 LINE",
"-36 222 LINE SMOOTH",
"-54 102 OFFCURVE",
"-30 -1 OFFCURVE",
"6 -1 QCURVE SMOOTH",
"47 -1 OFFCURVE",
"93 104 OFFCURVE",
"126 330 QCURVE SMOOTH",
"160 565 OFFCURVE",
"161 756 OFFCURVE",
"114 756 QCURVE SMOOTH",
"90 756 LINE",
"90 764 LINE",
"114 764 LINE SMOOTH",
"150 764 OFFCURVE",
"207 936 OFFCURVE",
"233 1144 QCURVE SMOOTH",
"260 1362 OFFCURVE",
"245 1453 OFFCURVE",
"210 1453 QCURVE SMOOTH",
"172 1453 OFFCURVE",
"132 1356 OFFCURVE",
"120 1266 QCURVE SMOOTH",
"96 1086 LINE",
"90 1086 LINE",
"114 1266 LINE SMOOTH",
"126 1356 OFFCURVE",
"168 1458 OFFCURVE",
"210 1458 QCURVE SMOOTH",
"246 1458 OFFCURVE",
"267 1368 OFFCURVE",
"239 1144 QCURVE SMOOTH",
"213 936 OFFCURVE",
"160 770 OFFCURVE",
"126 761 QCURVE",
"126 759 LINE",
"167 752 OFFCURVE",
"166 567 OFFCURVE",
"132 330 QCURVE SMOOTH",
"99 102 OFFCURVE",
"50 -6 OFFCURVE",
"6 -6 QCURVE SMOOTH",
"-36 -6 OFFCURVE",
"-60 96 OFFCURVE",
"-42 222 QCURVE SMOOTH"
);
}
);
width = 227;
}
);
unicode = 0033;
},
{
glyphname = four;
layers = (
{
layerId = "15DF123F-E657-482A-A0A1-05C4B0BC92C6";
paths = (
{
closed = 1;
nodes = (
"108 378 LINE",
"108 378 LINE",
"257 1452 LINE",
"257 1452 LINE",
"-36 378 LINE",
"114 378 LINE",
"114 378 LINE",
"162 378 LINE",
"162 372 LINE",
"-41 372 LINE",
"-42 376 LINE",
"252 1458 LINE",
"264 1458 LINE",
"60 0 LINE",
"54 0 LINE"
);
}
);
width = 227;
}
);
unicode = 0034;
},
{
glyphname = five;
layers = (
{
layerId = "15DF123F-E657-482A-A0A1-05C4B0BC92C6";
paths = (
{
closed = 1;
nodes = (
"-30 390 LINE",
"-24 390 LINE",
"-48 210 LINE SMOOTH",
"-66 84 OFFCURVE",
"-36 0 OFFCURVE",
"6 0 QCURVE SMOOTH",
"48 0 OFFCURVE",
"99 115 OFFCURVE",
"150 462 QCURVE SMOOTH",
"203 825 OFFCURVE",
"187 908 OFFCURVE",
"150 908 QCURVE SMOOTH",
"120 908 OFFCURVE",
"70 851 OFFCURVE",
"49 768 QCURVE",
"43 768 LINE",
"162 1456 LINE",
"288 1456 LINE",
"288 1450 LINE",
"167 1450 LINE",
"52 795 LINE",
"69 857 OFFCURVE",
"120 912 OFFCURVE",
"151 912 QCURVE SMOOTH",
"188 912 OFFCURVE",
"208 828 OFFCURVE",
"156 462 QCURVE SMOOTH",
"106 111 OFFCURVE",
"51 -6 OFFCURVE",
"6 -6 QCURVE SMOOTH",
"-42 -6 OFFCURVE",
"-72 84 OFFCURVE",
"-54 210 QCURVE SMOOTH"
);
}
);
width = 227;
}
);
unicode = 0035;
},
{
glyphname = six;
layers = (
{
layerId = "15DF123F-E657-482A-A0A1-05C4B0BC92C6";
paths = (
{
closed = 1;
nodes = (
"17 637 LINE SMOOTH",
"100 1157 OFFCURVE",
"192 1458 OFFCURVE",
"258 1458 QCURVE SMOOTH",
"276 1458 LINE",
"276 1452 LINE",
"258 1452 LINE SMOOTH",
"200 1452 OFFCURVE",
"106 1158 OFFCURVE",
"22 636 QCURVE SMOOTH",
"18 611 LINE SMOOTH",
"-56 146 OFFCURVE",
"-39 0 OFFCURVE",
"16 0 QCURVE SMOOTH",
"60 0 OFFCURVE",
"114 138 OFFCURVE",
"156 456 QCURVE SMOOTH",
"204 768 OFFCURVE",
"186 864 OFFCURVE",
"144 864 QCURVE SMOOTH",
"90 864 OFFCURVE",
"18 612 OFFCURVE",
"-6 462 QCURVE",
"-6 462 LINE",
"18 636 OFFCURVE",
"90 870 OFFCURVE",
"144 870 QCURVE SMOOTH",
"192 870 OFFCURVE",
"210 774 OFFCURVE",
"162 456 QCURVE SMOOTH",
"120 138 OFFCURVE",
"66 -6 OFFCURVE",
"12 -6 QCURVE SMOOTH",
"-42 -6 OFFCURVE",
"-62 145 OFFCURVE",
"13 612 QCURVE SMOOTH"
);
}
);
width = 227;
}
);
unicode = 0036;
},
{
glyphname = seven;
layers = (
{
layerId = "15DF123F-E657-482A-A0A1-05C4B0BC92C6";
paths = (
{
closed = 1;
nodes = (
"312 1449 LINE",
"114 1449 LINE",
"114 1456 LINE",
"318 1456 LINE",
"318 1450 LINE",
"-24 0 LINE",
"-30 0 LINE"
);
}
);
width = 227;
}
);
unicode = 0037;
},
{
glyphname = eight;
layers = (
{
layerId = "15DF123F-E657-482A-A0A1-05C4B0BC92C6";
paths = (
{
closed = 1;
nodes = (
"0 564 OFFCURVE",
"53 741 OFFCURVE",
"102 751 QCURVE",
"102 752 LINE",
"60 764 OFFCURVE",
"67 942 OFFCURVE",
"96 1128 QCURVE SMOOTH",
"129 1343 OFFCURVE",
"172 1458 OFFCURVE",
"216 1458 QCURVE SMOOTH",
"262 1458 OFFCURVE",
"273 1344 OFFCURVE",
"245 1128 QCURVE SMOOTH",
"221 942 OFFCURVE",
"177 763 OFFCURVE",
"132 752 QCURVE",
"132 751 LINE",
"179 741 OFFCURVE",
"181 558 OFFCURVE",
"156 378 QCURVE SMOOTH",
"126 162 OFFCURVE",
"61 -6 OFFCURVE",
"12 -6 QCURVE SMOOTH",
"-40 -6 OFFCURVE",
"-64 170 OFFCURVE",
"-30 378 QCURVE SMOOTH"
);
},
{
closed = 1;
nodes = (
"-56 176 OFFCURVE",
"-36 0 OFFCURVE",
"12 0 QCURVE SMOOTH",
"57 0 OFFCURVE",
"121 172 OFFCURVE",
"150 378 QCURVE SMOOTH",
"174 552 OFFCURVE",
"174 747 OFFCURVE",
"116 747 QCURVE SMOOTH",
"60 747 OFFCURVE",
"5 559 OFFCURVE",
"-24 378 QCURVE SMOOTH"
);
},
{
closed = 1;
nodes = (
"74 948 OFFCURVE",
"66 756 OFFCURVE",
"120 756 QCURVE SMOOTH",
"168 756 OFFCURVE",
"216 948 OFFCURVE",
"240 1128 QCURVE SMOOTH",
"267 1333 OFFCURVE",
"259 1452 OFFCURVE",
"216 1452 QCURVE SMOOTH",
"174 1452 OFFCURVE",
"134 1331 OFFCURVE",
"102 1128 QCURVE SMOOTH"
);
}
);
width = 227;
}
);
unicode = 0038;
},
{
glyphname = nine;
layers = (
{
layerId = "15DF123F-E657-482A-A0A1-05C4B0BC92C6";
paths = (
{
closed = 1;
nodes = (
"108 1326 OFFCURVE",
"162 1458 OFFCURVE",
"210 1458 QCURVE SMOOTH",
"264 1458 OFFCURVE",
"295 1312 OFFCURVE",
"216 840 QCURVE SMOOTH",
"211 810 LINE SMOOTH",
"124 290 OFFCURVE",
"36 -6 OFFCURVE",
"-36 -6 QCURVE SMOOTH",
"-54 -6 LINE",
"-54 0 LINE",
"-36 0 LINE SMOOTH",
"30 0 OFFCURVE",
"118 291 OFFCURVE",
"205 811 QCURVE SMOOTH",
"211 847 LINE SMOOTH",
"288 1311 OFFCURVE",
"259 1452 OFFCURVE",
"210 1452 QCURVE SMOOTH",
"168 1452 OFFCURVE",
"114 1326 OFFCURVE",
"66 1002 QCURVE SMOOTH",
"24 684 OFFCURVE",
"42 588 OFFCURVE",
"85 588 QCURVE SMOOTH",
"138 588 OFFCURVE",
"215 847 OFFCURVE",
"237 996 QCURVE",
"240 996 LINE",
"215 824 OFFCURVE",
"138 582 OFFCURVE",
"84 582 QCURVE SMOOTH",
"36 582 OFFCURVE",
"18 678 OFFCURVE",
"60 1002 QCURVE SMOOTH"
);
}
);
width = 227;
}
);
unicode = 0039;
},
{
glyphname = onesuperior;
layers = (
{
layerId = "15DF123F-E657-482A-A0A1-05C4B0BC92C6";
paths = (
{
closed = 1;
nodes = (
"126.921 1372 LINE",
"263.732 1456 LINE",
"269.732 1456 LINE",
"127.613 650 LINE",
"121.613 650 LINE",
"262.498 1449 LINE",
"128.51 1364 LINE"
);
}
);
width = 250;
}
);
unicode = 00B9;
},
{
glyphname = twosuperior;
layers = (
{
layerId = "15DF123F-E657-482A-A0A1-05C4B0BC92C6";
paths = (
{
closed = 1;
nodes = (
"26.782 702 LINE",
"175.438 1046 LINE SMOOTH",
"207.663 1121 OFFCURVE",
"241.237 1215 OFFCURVE",
"257.636 1308 QCURVE SMOOTH",
"274.387 1403 OFFCURVE",
"255.027 1452 OFFCURVE",
"228.027 1452 QCURVE SMOOTH",
"197.027 1452 OFFCURVE",
"156.976 1395 OFFCURVE",
"131.409 1250 QCURVE",
"124.409 1250 LINE",
"151.563 1404 OFFCURVE",
"197.085 1458 OFFCURVE",
"229.085 1458 QCURVE SMOOTH",
"259.085 1458 OFFCURVE",
"281.739 1405 OFFCURVE",
"264.636 1308 QCURVE SMOOTH",
"248.061 1214 OFFCURVE",
"214.663 1121 OFFCURVE",
"181.262 1045 QCURVE SMOOTH",
"34.663 707 LINE",
"168.663 707 LINE",
"167.429 700 LINE",
"26.429 700 LINE"
);
}
);
width = 207;
}
);
unicode = 00B2;
},
{
glyphname = threesuperior;
layers = (
{
layerId = "15DF123F-E657-482A-A0A1-05C4B0BC92C6";
paths = (
{
closed = 1;
nodes = (
"65.049 885 LINE",
"37.366 728 OFFCURVE",
"50.373 677 OFFCURVE",
"77.373 677 QCURVE SMOOTH",
"103.373 677 OFFCURVE",
"134.308 722 OFFCURVE",
"156.878 850 QCURVE SMOOTH",
"178.037 970 OFFCURVE",
"175.965 1066 OFFCURVE",
"145.965 1066 QCURVE SMOOTH",
"127.965 1066 LINE",
"128.846 1071 LINE",
"144.846 1071 LINE SMOOTH",
"167.846 1071 OFFCURVE",
"205.95 1168 OFFCURVE",
"223.054 1265 QCURVE SMOOTH",
"248.092 1407 OFFCURVE",
"236.556 1455 OFFCURVE",
"211.556 1455 QCURVE SMOOTH",
"185.556 1455 OFFCURVE",
"159.387 1403 OFFCURVE",
"132.585 1251 QCURVE",
"126.585 1251 LINE",
"153.563 1404 OFFCURVE",
"183.437 1460 OFFCURVE",
"212.437 1460 QCURVE SMOOTH",
"239.437 1460 OFFCURVE",
"254.445 1409 OFFCURVE",
"228.877 1264 QCURVE SMOOTH",
"210.892 1162 OFFCURVE",
"173.199 1073 OFFCURVE",
"155.494 1069 QCURVE",
"180.141 1067 OFFCURVE",
"183.919 975 OFFCURVE",
"161.878 850 QCURVE SMOOTH",
"138.955 720 OFFCURVE",
"105.492 672 OFFCURVE",
"76.492 672 QCURVE SMOOTH",
"47.492 672 OFFCURVE",
"30.837 725 OFFCURVE",
"59.049 885 QCURVE"
);
}
);
width = 194;
}
);
unicode = 00B3;
},
{
glyphname = foursuperior;
layers = (
{
layerId = "15DF123F-E657-482A-A0A1-05C4B0BC92C6";
paths = (
{
closed = 1;
nodes = (
"59.813 895 LINE",
"275.732 1456 LINE",
"282.732 1456 LINE",
"194 1225 LINE",
"65.46 893 LINE",
"239.46 893 LINE",
"238.402 887 LINE",
"58.402 887 LINE"
);
},
{
closed = 1;
nodes = (
"149.789 651 LINE",
"143.789 651 LINE",
"285.732 1456 LINE",
"291.732 1456 LINE"
);
}
);
width = 247;
}
);
unicode = 2074;
},
{
glyphname = underscore;
layers = (
{
layerId = "15DF123F-E657-482A-A0A1-05C4B0BC92C6";
paths = (
{
closed = 1;
nodes = (
"-138 -252 LINE",
"60 -252 LINE",
"60 -258 LINE",
"-138 -258 LINE"
);
}
);
width = 200;
}
);
unicode = 005F;
},
{
glyphname = hyphen;
layers = (
{
layerId = "15DF123F-E657-482A-A0A1-05C4B0BC92C6";
paths = (
{
closed = 1;
nodes = (
"-6 636 LINE",
"120 636 LINE",
"120 630 LINE",
"-6 630 LINE"
);
}
);
width = 146;
}
);
leftKerningGroup = emdash;
rightKerningGroup = emdash;
unicode = 002D;
},
{
glyphname = endash;
layers = (
{
layerId = "15DF123F-E657-482A-A0A1-05C4B0BC92C6";
paths = (
{
closed = 1;
nodes = (
"-22.204 600 LINE",
"491.796 600 LINE",
"491.033 590 LINE",
"-22.967 590 LINE"
);
}
);
width = 515;
}
);
leftKerningGroup = emdash;
rightKerningGroup = emdash;
unicode = 2013;
},
{
glyphname = emdash;
layers = (
{
layerId = "15DF123F-E657-482A-A0A1-05C4B0BC92C6";
paths = (
{
closed = 1;
nodes = (
"37.796 600 LINE",
"651.796 600 LINE",
"651.033 590 LINE",
"37.033 590 LINE"
);
}
);
width = 768;
}
);
leftKerningGroup = emdash;
rightKerningGroup = emdash;
unicode = 2014;
},
{
glyphname = horizontalbar;
layers = (
{
layerId = "15DF123F-E657-482A-A0A1-05C4B0BC92C6";
paths = (
{
closed = 1;
nodes = (
"13.011 743 LINE",
"148.011 743 LINE",
"146.953 737 LINE",
"11.953 737 LINE"
);
}
);
width = 240;
}
);
leftKerningGroup = emdash;
rightKerningGroup = emdash;
unicode = 2015;
},
{
glyphname = parenleft;
layers = (
{
layerId = "15DF123F-E657-482A-A0A1-05C4B0BC92C6";
paths = (
{
closed = 1;
nodes = (
"-79 -364 OFFCURVE",
"-31 138 OFFCURVE",
"9 516 QCURVE SMOOTH",
"11 535 LINE SMOOTH",
"51 911 OFFCURVE",
"162 1404 OFFCURVE",
"222 1476 QCURVE",
"226 1472 LINE",
"171 1405 OFFCURVE",
"58 903 OFFCURVE",
"19 534 QCURVE SMOOTH",
"17 515 LINE SMOOTH",
"-22 141 OFFCURVE",
"-69 -361 OFFCURVE",
"-39 -431 QCURVE",
"-46 -437 LINE"
);
}
);
width = 126;
}
);
rightKerningGroup = parens;
unicode = 0028;
},
{
glyphname = parenright;
layers = (
{
layerId = "15DF123F-E657-482A-A0A1-05C4B0BC92C6";
paths = (
{
closed = 1;
nodes = (
"-156 -432 LINE",
"-102 -360 OFFCURVE",
"4 136 OFFCURVE",
"51 508 QCURVE SMOOTH",
"54 532 LINE SMOOTH",
"100 898 OFFCURVE",
"150 1404 OFFCURVE",
"108 1470 QCURVE",
"114 1476 LINE",
"156 1404 OFFCURVE",
"113 922 OFFCURVE",
"62 531 QCURVE SMOOTH",
"59 508 LINE SMOOTH",
"8 117 OFFCURVE",
"-96 -366 OFFCURVE",
"-150 -438 QCURVE"
);
}
);
width = 126;
}
);
leftKerningGroup = parens;
unicode = 0029;
},
{
glyphname = bracketleft;
layers = (
{
layerId = "15DF123F-E657-482A-A0A1-05C4B0BC92C6";
paths = (
{
closed = 1;
nodes = (
"132 1458 LINE",
"216 1458 LINE",
"210 1452 LINE",
"138 1452 LINE",
"-108 -306 LINE",
"-36 -306 LINE",
"-36 -312 LINE",
"-114 -312 LINE"
);
}
);
width = 126;
}
);
rightKerningGroup = parens;
unicode = 005B;
},
{
glyphname = bracketright;
layers = (
{
layerId = "15DF123F-E657-482A-A0A1-05C4B0BC92C6";
paths = (
{
closed = 1;
nodes = (
"-132 -312 LINE",
"-132 -306 LINE",
"-54 -306 LINE",
"192 1452 LINE",
"114 1452 LINE",
"120 1458 LINE",
"198 1458 LINE",
"-48 -312 LINE"
);
}
);
width = 126;
}
);
leftKerningGroup = parens;
unicode = 005D;
},
{
glyphname = braceleft;
layers = (
{
layerId = "15DF123F-E657-482A-A0A1-05C4B0BC92C6";
paths = (
{
closed = 1;
nodes = (
"-72 -312 OFFCURVE",
"-72 -78 OFFCURVE",
"-24 114 QCURVE SMOOTH",
"30 330 LINE SMOOTH",
"60 450 OFFCURVE",
"18 570 OFFCURVE",
"-18 570 QCURVE",
"-18 576 LINE",
"18 576 OFFCURVE",
"91 696 OFFCURVE",
"97 816 QCURVE SMOOTH",
"108 1032 LINE SMOOTH",
"118 1224 OFFCURVE",
"180 1459 OFFCURVE",
"222 1459 QCURVE",
"222 1458 LINE",
"183 1458 OFFCURVE",
"124 1224 OFFCURVE",
"114 1026 QCURVE SMOOTH",
"103 816 LINE SMOOTH",
"97 708 OFFCURVE",
"34 585 OFFCURVE",
"-6 573 QCURVE",
"33 556 OFFCURVE",
"63 443 OFFCURVE",
"36 336 QCURVE SMOOTH",
"-18 120 LINE SMOOTH",
"-67 -78 OFFCURVE",
"-66 -308 OFFCURVE",
"-24 -308 QCURVE",
"-24 -312 LINE"
);
}
);
width = 126;
}
);
rightKerningGroup = parens;
unicode = 007B;
},
{
glyphname = braceright;
layers = (
{
layerId = "15DF123F-E657-482A-A0A1-05C4B0BC92C6";
paths = (
{
closed = 1;
nodes = (
"-144 -308 LINE",
"-101 -308 OFFCURVE",
"-36 -78 OFFCURVE",
"-30 120 QCURVE SMOOTH",
"-24 336 LINE SMOOTH",
"-18 444 OFFCURVE",
"44 557 OFFCURVE",
"87 573 QCURVE",
"51 585 OFFCURVE",
"24 707 OFFCURVE",
"49 816 QCURVE SMOOTH",
"98 1026 LINE SMOOTH",
"144 1225 OFFCURVE",
"149 1447 OFFCURVE",
"107 1453 QCURVE",
"108 1458 LINE",
"157 1452 OFFCURVE",
"151 1224 OFFCURVE",
"106 1032 QCURVE SMOOTH",
"55 816 LINE SMOOTH",
"27 696 OFFCURVE",
"66 576 OFFCURVE",
"102 576 QCURVE",
"96 570 LINE",
"66 570 OFFCURVE",
"-12 450 OFFCURVE",
"-18 330 QCURVE SMOOTH",
"-24 114 LINE SMOOTH",
"-30 -78 OFFCURVE",
"-96 -312 OFFCURVE",
"-144 -312 QCURVE"
);
}
);
width = 126;
}
);
leftKerningGroup = parens;
unicode = 007D;
},
{
glyphname = leftanglebracket;
layers = (
{
layerId = "15DF123F-E657-482A-A0A1-05C4B0BC92C6";
paths = (
{
closed = 1;
nodes = (
"-26.743 665 LINE",
"722.314 1499 LINE",
"820.15 1413 LINE",
"153.501 604 LINE",
"531.384 -219 LINE",
"404.397 -304 LINE",
"-49.489 536 LINE"
);
}
);
width = 700;
}
);
rightKerningGroup = parens;
unicode = 27E8;
},
{
glyphname = rightanglebracket;
layers = (
{
layerId = "15DF123F-E657-482A-A0A1-05C4B0BC92C6";
paths = (
{
closed = 1;
nodes = (
"484.209 591 LINE",
"106.326 1414 LINE",
"233.314 1499 LINE",
"687.199 659 LINE",
"664.453 530 LINE",
"-84.603 -304 LINE",
"-182.439 -218 LINE"
);
}
);
width = 700;
}
);
leftKerningGroup = parens;
unicode = 27E9;
},
{
glyphname = numbersign;
layers = (
{
layerId = "15DF123F-E657-482A-A0A1-05C4B0BC92C6";
paths = (
{
closed = 1;
nodes = (
"246 1476 LINE",
"252 1476 LINE",
"-6 -18 LINE",
"-12 -18 LINE"
);
},
{
closed = 1;
nodes = (
"318 1476 LINE",
"324 1476 LINE",
"66 -18 LINE",
"60 -18 LINE"
);
},
{
closed = 1;
nodes = (
"12 678 LINE",
"264 678 LINE",
"264 672 LINE",
"12 672 LINE"
);
},
{
closed = 1;
nodes = (
"42 810 LINE",
"300 810 LINE",
"294 804 LINE",
"42 804 LINE"
);
}
);
width = 306;
}
);
unicode = 0023;
},
{
glyphname = quotesingle;
layers = (
{
layerId = "15DF123F-E657-482A-A0A1-05C4B0BC92C6";
paths = (
{
closed = 1;
nodes = (
"162 1362 LINE",
"174 1458 LINE",
"180 1458 LINE",
"168 1362 LINE",
"132 1110 LINE",
"126 1110 LINE"
);
}
);
width = 150;
}
);
leftKerningGroup = minute;
rightKerningGroup = minute;
unicode = 0027;
},
{
glyphname = quotedbl;
layers = (
{
layerId = "15DF123F-E657-482A-A0A1-05C4B0BC92C6";
paths = (
{
closed = 1;
nodes = (
"162 1362 LINE",
"174 1458 LINE",
"180 1458 LINE",
"168 1362 LINE",
"132 1110 LINE",
"126 1110 LINE"
);
},
{
closed = 1;
nodes = (
"252 1362 LINE",
"264 1458 LINE",
"270 1458 LINE",
"258 1362 LINE",
"222 1110 LINE",
"216 1110 LINE"
);
}
);
width = 242;
}
);
leftKerningGroup = minute;
rightKerningGroup = minute;
unicode = 0022;
},
{
glyphname = quoteleft;
layers = (
{
layerId = "15DF123F-E657-482A-A0A1-05C4B0BC92C6";
paths = (
{
closed = 1;
nodes = (
"133.469 1239 LINE SMOOTH",
"144.926 1338 OFFCURVE",
"192.911 1440 OFFCURVE",
"244.433 1494 QCURVE",
"246.727 1490 LINE",
"198.735 1439 OFFCURVE",
"150.749 1337 OFFCURVE",
"139.998 1242 QCURVE SMOOTH",
"136.179 1209 LINE",
"130.003 1208 LINE"
);
}
);
width = 132;
}
);
leftKerningGroup = minute;
rightKerningGroup = minute;
unicode = 2018;
},
{
glyphname = quoteright;
layers = (
{
layerId = "15DF123F-E657-482A-A0A1-05C4B0BC92C6";
paths = (
{
closed = 1;
nodes = (
"212.442 1426 LINE SMOOTH",
"200.986 1327 OFFCURVE",
"153 1225 OFFCURVE",
"101.479 1171 QCURVE",
"99.184 1175 LINE",
"147.177 1226 OFFCURVE",
"195.162 1328 OFFCURVE",
"205.913 1423 QCURVE SMOOTH",
"209.732 1456 LINE",
"215.908 1457 LINE"
);
}
);
width = 132;
}
);
leftKerningGroup = minute;
rightKerningGroup = minute;
unicode = 2019;
},
{
glyphname = quotedblleft;
layers = (
{
layerId = "15DF123F-E657-482A-A0A1-05C4B0BC92C6";
paths = (
{
closed = 1;
nodes = (
"133.469 1239 LINE SMOOTH",
"144.926 1338 OFFCURVE",
"192.911 1440 OFFCURVE",
"244.433 1494 QCURVE",
"246.727 1490 LINE",
"198.735 1439 OFFCURVE",
"150.749 1337 OFFCURVE",
"139.998 1242 QCURVE SMOOTH",
"136.179 1209 LINE",
"130.003 1208 LINE"
);
},
{
closed = 1;
nodes = (
"253.469 1239 LINE SMOOTH",
"264.926 1338 OFFCURVE",
"312.911 1440 OFFCURVE",
"364.432 1494 QCURVE",
"366.727 1490 LINE",
"318.735 1439 OFFCURVE",
"270.749 1337 OFFCURVE",
"259.998 1242 QCURVE SMOOTH",
"256.179 1209 LINE",
"250.003 1208 LINE"
);
}
);
width = 264;
}
);
leftKerningGroup = minute;
rightKerningGroup = minute;
unicode = 201C;
},
{
glyphname = quotedblright;
layers = (
{
layerId = "15DF123F-E657-482A-A0A1-05C4B0BC92C6";
paths = (
{
closed = 1;
nodes = (
"224.442 1426 LINE SMOOTH",
"212.986 1327 OFFCURVE",
"165 1225 OFFCURVE",
"113.479 1171 QCURVE",
"111.184 1175 LINE",
"159.177 1226 OFFCURVE",
"207.162 1328 OFFCURVE",
"217.913 1423 QCURVE SMOOTH",
"221.732 1456 LINE",
"227.908 1457 LINE"
);
},
{
closed = 1;
nodes = (
"344.442 1426 LINE SMOOTH",
"332.986 1327 OFFCURVE",
"285 1225 OFFCURVE",
"233.479 1171 QCURVE",
"231.184 1175 LINE",
"279.177 1226 OFFCURVE",
"327.162 1328 OFFCURVE",
"337.913 1423 QCURVE SMOOTH",
"341.732 1456 LINE",
"347.908 1457 LINE"
);
}
);
width = 264;
}
);
leftKerningGroup = minute;
rightKerningGroup = minute;
unicode = 201D;
},
{
glyphname = quotesinglbase;
layers = (
{
layerId = "15DF123F-E657-482A-A0A1-05C4B0BC92C6";
paths = (
{
closed = 1;
nodes = (
"6.326 189 LINE SMOOTH",
"-5.131 90 OFFCURVE",
"-53.116 -12 OFFCURVE",
"-104.638 -66 QCURVE",
"-106.932 -62 LINE",
"-58.94 -11 OFFCURVE",
"-10.954 91 OFFCURVE",
"-0.203 186 QCURVE SMOOTH",
"3.616 219 LINE",
"9.792 220 LINE"
);
}
);
width = 144;
}
);
leftKerningGroup = comma;
rightKerningGroup = comma;
unicode = 201A;
},
{
glyphname = quotedblbase;
layers = (
{
layerId = "15DF123F-E657-482A-A0A1-05C4B0BC92C6";
paths = (
{
closed = 1;
nodes = (
"6.326 189 LINE SMOOTH",
"-5.131 90 OFFCURVE",
"-53.116 -12 OFFCURVE",
"-104.638 -66 QCURVE",
"-106.932 -62 LINE",
"-58.94 -11 OFFCURVE",
"-10.954 91 OFFCURVE",
"-0.203 186 QCURVE SMOOTH",
"3.616 219 LINE",
"9.792 220 LINE"
);
},
{
closed = 1;
nodes = (
"126.326 189 LINE SMOOTH",
"114.869 90 OFFCURVE",
"66.884 -12 OFFCURVE",
"15.362 -66 QCURVE",
"13.068 -62 LINE",
"61.06 -11 OFFCURVE",
"109.046 91 OFFCURVE",
"119.797 186 QCURVE SMOOTH",
"123.616 219 LINE",
"129.792 220 LINE"
);
}
);
width = 264;
}
);
leftKerningGroup = comma;
rightKerningGroup = comma;
unicode = 201E;
},
{
glyphname = guilsinglleft;
layers = (
{
guideLines = (
{
position = "{30.871, 901}";
},
{
position = "{-30.139, 555}";
}
);
layerId = "15DF123F-E657-482A-A0A1-05C4B0BC92C6";
paths = (
{
closed = 1;
nodes = (
"82.446 581 LINE",
"442.334 949 LINE",
"604.334 949 LINE",
"276.156 551 LINE",
"463.978 153 LINE",
"301.978 153 LINE",
"72.043 522 LINE"
);
}
);
width = 652;
}
);
leftKerningGroup = guillemotleft;
rightKerningGroup = guillemotleft;
unicode = 2039;
userData = {
com.typemytype.robofont.guideline.magnetic.Amp5Ormvx4 = 5;
com.typemytype.robofont.guideline.magnetic.JDX5vz3jKp = 5;
};
},
{
glyphname = guilsinglright;
layers = (
{
guideLines = (
{
position = "{30.871, 901}";
},
{
position = "{-30.139, 555}";
}
);
layerId = "15DF123F-E657-482A-A0A1-05C4B0BC92C6";
paths = (
{
closed = 1;
nodes = (
"314.156 551 LINE",
"126.334 949 LINE",
"288.334 949 LINE",
"518.446 581 LINE",
"508.043 522 LINE",
"147.978 153 LINE",
"-14.022 153 LINE"
);
}
);
width = 652;
}
);
leftKerningGroup = guillemotright;
rightKerningGroup = guillemotright;
unicode = 203A;
userData = {
com.typemytype.robofont.guideline.magnetic.Amp5Ormvx4 = 5;
com.typemytype.robofont.guideline.magnetic.JDX5vz3jKp = 5;
};
},
{
glyphname = guillemotleft;
layers = (
{
guideLines = (
{
position = "{30.871, 901}";
},
{
position = "{-30.139, 555}";
}
);
layerId = "15DF123F-E657-482A-A0A1-05C4B0BC92C6";
paths = (
{
closed = 1;
nodes = (
"82.446 581 LINE",
"442.334 949 LINE",
"604.334 949 LINE",
"276.156 551 LINE",
"463.978 153 LINE",
"301.978 153 LINE",
"72.043 522 LINE"
);
},
{
closed = 1;
nodes = (
"522.446 581 LINE",
"882.334 949 LINE",
"1044.334 949 LINE",
"716.156 551 LINE",
"903.978 153 LINE",
"741.978 153 LINE",
"512.043 522 LINE"
);
}
);
width = 1092;
}
);
leftKerningGroup = guillemotleft;
rightKerningGroup = guillemotleft;
unicode = 00AB;
userData = {
com.typemytype.robofont.guideline.magnetic.MVJpdoVRVd = 5;
com.typemytype.robofont.guideline.magnetic.ZftBQarVKw = 5;
};
},
{
glyphname = guillemotright;
layers = (
{
guideLines = (
{
position = "{-110.72, 98}";
},
{
position = "{-49.887, 443}";
}
);
layerId = "15DF123F-E657-482A-A0A1-05C4B0BC92C6";
paths = (
{
closed = 1;
nodes = (
"314.156 551 LINE",
"126.334 949 LINE",
"288.334 949 LINE",
"518.446 581 LINE",
"508.043 522 LINE",
"147.978 153 LINE",
"-14.022 153 LINE"
);
},
{
closed = 1;
nodes = (
"754.156 551 LINE",
"566.334 949 LINE",
"728.334 949 LINE",
"958.446 581 LINE",
"948.043 522 LINE",
"587.978 153 LINE",
"425.978 153 LINE"
);
}
);
width = 1092;
}
);
leftKerningGroup = guillemotright;
rightKerningGroup = guillemotright;
unicode = 00BB;
userData = {
com.typemytype.robofont.guideline.magnetic.G9bQni2n1K = 5;
com.typemytype.robofont.guideline.magnetic.MTEldNnfdj = 5;
};
},
{
glyphname = asterisk;
layers = (
{
layerId = "15DF123F-E657-482A-A0A1-05C4B0BC92C6";
paths = (
{
closed = 1;
nodes = (
"96 1326 LINE",
"208 1255 LINE",
"231 1459 LINE",
"239 1459 LINE",
"214 1255 LINE",
"342 1326 LINE",
"348 1320 LINE",
"216 1250 LINE",
"276 1092 LINE",
"270 1086 LINE",
"210 1248 LINE",
"108 1087 LINE",
"102 1092 LINE",
"204 1251 LINE",
"93 1320 LINE"
);
}
);
width = 272;
}
);
unicode = 002A;
},
{
glyphname = dagger;
layers = (
{
layerId = "15DF123F-E657-482A-A0A1-05C4B0BC92C6";
paths = (
{
closed = 1;
nodes = (
"275.411 8 LINE",
"426.893 748 LINE",
"445.231 852 LINE",
"94.231 852 LINE",
"124.735 1025 LINE",
"471.735 1025 LINE",
"543.901 1508 LINE",
"734.901 1508 LINE",
"636.735 1025 LINE",
"983.735 1025 LINE",
"953.231 852 LINE",
"602.231 852 LINE",
"583.893 748 LINE",
"474.411 8 LINE",
"420.686 -274 LINE",
"322.824 -415 OFFCURVE",
"278.648 -416 OFFCURVE",
"229.686 -274 QCURVE"
);
}
);
width = 1008;
}
);
unicode = 2020;
},
{
glyphname = daggerdbl;
layers = (
{
layerId = "15DF123F-E657-482A-A0A1-05C4B0BC92C6";
paths = (
{
closed = 1;
nodes = (
"-15.029 204 LINE",
"335.971 204 LINE",
"374.159 534 LINE",
"445.76 855 LINE",
"99.76 855 LINE",
"129.206 1022 LINE",
"461.206 1022 LINE",
"543.901 1508 LINE",
"734.901 1508 LINE",
"646.206 1022 LINE",
"978.206 1022 LINE",
"948.76 855 LINE",
"602.76 855 LINE",
"561.159 534 LINE",
"482.971 204 LINE",
"833.971 204 LINE",
"804.7 38 LINE",
"467.7 38 LINE",
"384.3 -452 LINE",
"203.3 -452 LINE",
"292.7 38 LINE",
"-44.3 38 LINE"
);
}
);
width = 1008;
}
);
unicode = 2021;
},
{
glyphname = period;
layers = (
{
layerId = "15DF123F-E657-482A-A0A1-05C4B0BC92C6";
paths = (
{
closed = 1;
nodes = (
"-66 25 OFFCURVE",
"-56 34 OFFCURVE",
"-47 34 QCURVE SMOOTH",
"-39 34 OFFCURVE",
"-30 23 OFFCURVE",
"-30 16 QCURVE SMOOTH",
"-30 8 OFFCURVE",
"-40 -2 OFFCURVE",
"-49 -2 QCURVE SMOOTH",
"-58 -2 OFFCURVE",
"-66 9 OFFCURVE",
"-66 17 QCURVE SMOOTH"
);
}
);
width = 96;
}
);
leftKerningGroup = comma;
rightKerningGroup = comma;
unicode = 002E;
},
{
glyphname = comma;
layers = (
{
layerId = "15DF123F-E657-482A-A0A1-05C4B0BC92C6";
paths = (
{
closed = 1;
nodes = (
"-92 -98 OFFCURVE",
"-51 18 OFFCURVE",
"-46 102 QCURVE SMOOTH",
"-44 138 LINE",
"-36 138 LINE",
"-38 108 LINE SMOOTH",
"-44 15 OFFCURVE",
"-84 -96 OFFCURVE",
"-138 -150 QCURVE",
"-140 -146 LINE"
);
}
);
width = 96;
}
);
leftKerningGroup = comma;
rightKerningGroup = comma;
unicode = 002C;
},
{
glyphname = colon;
layers = (
{
layerId = "15DF123F-E657-482A-A0A1-05C4B0BC92C6";
paths = (
{
closed = 1;
nodes = (
"-66 25 OFFCURVE",
"-56 34 OFFCURVE",
"-47 34 QCURVE SMOOTH",
"-39 34 OFFCURVE",
"-30 23 OFFCURVE",
"-30 16 QCURVE SMOOTH",
"-30 8 OFFCURVE",
"-40 -2 OFFCURVE",
"-49 -2 QCURVE SMOOTH",
"-58 -2 OFFCURVE",
"-66 9 OFFCURVE",
"-66 17 QCURVE SMOOTH"
);
},
{
closed = 1;
nodes = (
"34 810 OFFCURVE",
"44 819 OFFCURVE",
"53 819 QCURVE SMOOTH",
"61 819 OFFCURVE",
"70 808 OFFCURVE",
"70 801 QCURVE SMOOTH",
"70 793 OFFCURVE",
"60 783 OFFCURVE",
"51 783 QCURVE SMOOTH",
"42 783 OFFCURVE",
"34 794 OFFCURVE",
"34 802 QCURVE SMOOTH"
);
}
);
width = 92;
}
);
leftKerningGroup = colon;
rightKerningGroup = colon;
unicode = 003A;
},
{
glyphname = semicolon;
layers = (
{
layerId = "15DF123F-E657-482A-A0A1-05C4B0BC92C6";
paths = (
{
closed = 1;
nodes = (
"-96 -96 OFFCURVE",
"-66 7 OFFCURVE",
"-48 102 QCURVE SMOOTH",
"-41 138 LINE",
"-29 138 LINE",
"-36 102 LINE SMOOTH",
"-55 5 OFFCURVE",
"-90 -96 OFFCURVE",
"-138 -150 QCURVE",
"-144 -144 LINE"
);
},
{
closed = 1;
nodes = (
"34 810 OFFCURVE",
"44 819 OFFCURVE",
"53 819 QCURVE SMOOTH",
"61 819 OFFCURVE",
"70 808 OFFCURVE",
"70 801 QCURVE SMOOTH",
"70 793 OFFCURVE",
"60 783 OFFCURVE",
"51 783 QCURVE SMOOTH",
"42 783 OFFCURVE",
"34 794 OFFCURVE",
"34 802 QCURVE SMOOTH"
);
}
);
width = 92;
}
);
leftKerningGroup = colon;
rightKerningGroup = colon;
unicode = 003B;
},
{
glyphname = exclam;
layers = (
{
layerId = "15DF123F-E657-482A-A0A1-05C4B0BC92C6";
paths = (
{
closed = 1;
nodes = (
"-48 12 OFFCURVE",
"-42 18 OFFCURVE",
"-36 18 QCURVE SMOOTH",
"-30 18 OFFCURVE",
"-24 12 OFFCURVE",
"-24 6 QCURVE SMOOTH",
"-24 0 OFFCURVE",
"-30 -6 OFFCURVE",
"-36 -6 QCURVE SMOOTH",
"-42 -6 OFFCURVE",
"-48 0 OFFCURVE",
"-48 6 QCURVE SMOOTH"
);
},
{
closed = 1;
nodes = (
"168 1458 LINE",
"174 1458 LINE",
"18 372 LINE",
"12 372 LINE"
);
}
);
width = 131;
}
);
unicode = 0021;
},
{
glyphname = exclamdown;
layers = (
{
layerId = "15DF123F-E657-482A-A0A1-05C4B0BC92C6";
paths = (
{
closed = 1;
nodes = (
"483.032 1004 OFFCURVE",
"406.689 934 OFFCURVE",
"346.689 934 QCURVE SMOOTH",
"286.689 934 OFFCURVE",
"235.032 1004 OFFCURVE",
"243.672 1053 QCURVE SMOOTH",
"252.312 1102 OFFCURVE",
"328.655 1172 OFFCURVE",
"388.655 1172 QCURVE SMOOTH",
"448.655 1172 OFFCURVE",
"500.312 1102 OFFCURVE",
"491.672 1053 QCURVE SMOOTH"
);
},
{
closed = 1;
nodes = (
"225.044 -306 LINE",
"31.044 -306 LINE",
"230.482 740 LINE",
"394.482 740 LINE"
);
}
);
width = 620;
}
);
unicode = 00A1;
},
{
glyphname = question;
layers = (
{
layerId = "15DF123F-E657-482A-A0A1-05C4B0BC92C6";
paths = (
{
closed = 1;
nodes = (
"21 25 OFFCURVE",
"31 34 OFFCURVE",
"40 34 QCURVE SMOOTH",
"48 34 OFFCURVE",
"57 23 OFFCURVE",
"57 16 QCURVE SMOOTH",
"57 8 OFFCURVE",
"47 -2 OFFCURVE",
"38 -2 QCURVE SMOOTH",
"29 -2 OFFCURVE",
"21 9 OFFCURVE",
"21 17 QCURVE SMOOTH"
);
},
{
closed = 1;
nodes = (
"126 1314 LINE SMOOTH",
"138 1403 OFFCURVE",
"172 1458 OFFCURVE",
"204 1458 QCURVE SMOOTH",
"228 1458 OFFCURVE",
"246 1392 OFFCURVE",
"228 1242 QCURVE SMOOTH",
"204 1074 OFFCURVE",
"162 942 OFFCURVE",
"144 888 QCURVE SMOOTH",
"120 816 OFFCURVE",
"94 689 OFFCURVE",
"77 576 QCURVE SMOOTH",
"42 336 LINE",
"36 336 LINE",
"71 576 LINE SMOOTH",
"88 689 OFFCURVE",
"114 822 OFFCURVE",
"138 888 QCURVE SMOOTH",
"156 948 OFFCURVE",
"198 1080 OFFCURVE",
"222 1242 QCURVE SMOOTH",
"240 1392 OFFCURVE",
"225 1452 OFFCURVE",
"200 1452 QCURVE SMOOTH",
"174 1452 OFFCURVE",
"142 1395 OFFCURVE",
"132 1320 QCURVE SMOOTH",
"96 1056 LINE",
"90 1056 LINE"
);
}
);
width = 171;
}
);
unicode = 003F;
},
{
glyphname = questiondown;
layers = (
{
guideLines = (
{
position = "{-159.915, -181}";
},
{
position = "{34.397, 921}";
}
);
layerId = "15DF123F-E657-482A-A0A1-05C4B0BC92C6";
paths = (
{
closed = 1;
nodes = (
"696.68 1002 OFFCURVE",
"620.337 932 OFFCURVE",
"560.337 932 QCURVE SMOOTH",
"500.337 932 OFFCURVE",
"448.68 1002 OFFCURVE",
"457.32 1051 QCURVE SMOOTH",
"465.96 1100 OFFCURVE",
"542.303 1170 OFFCURVE",
"602.303 1170 QCURVE SMOOTH",
"662.303 1170 OFFCURVE",
"713.96 1100 OFFCURVE",
"705.32 1051 QCURVE SMOOTH"
);
},
{
closed = 1;
nodes = (
"785.819 33 LINE SMOOTH",
"756.725 -132 OFFCURVE",
"502.165 -328 OFFCURVE",
"312.165 -328 QCURVE SMOOTH",
"122.165 -328 OFFCURVE",
"-55.512 -122 OFFCURVE",
"-25.536 48 QCURVE SMOOTH",
"-1.908 182 OFFCURVE",
"182.768 390 OFFCURVE",
"266.052 454 QCURVE SMOOTH",
"364.63 531 OFFCURVE",
"428.023 658 OFFCURVE",
"440.366 728 QCURVE SMOOTH",
"442.129 738 LINE",
"628.129 738 LINE",
"626.366 728 LINE SMOOTH",
"604.325 603 OFFCURVE",
"514.934 459 OFFCURVE",
"402.359 365 QCURVE SMOOTH",
"306.077 284 OFFCURVE",
"178.096 148 OFFCURVE",
"160.464 48 QCURVE SMOOTH",
"142.831 -52 OFFCURVE",
"230.73 -166 OFFCURVE",
"340.73 -166 QCURVE SMOOTH",
"450.73 -166 OFFCURVE",
"584.068 -62 OFFCURVE",
"600.819 33 QCURVE SMOOTH",
"604.345 53 LINE",
"789.345 53 LINE"
);
}
);
width = 968;
}
);
unicode = 00BF;
userData = {
com.typemytype.robofont.guideline.magnetic.5ZPZZL8Rim = 5;
com.typemytype.robofont.guideline.magnetic.apukwP5ffL = 5;
};
},
{
glyphname = slash;
layers = (
{
layerId = "15DF123F-E657-482A-A0A1-05C4B0BC92C6";
paths = (
{
closed = 1;
nodes = (
"294 1458 LINE",
"301 1458 LINE",
"-125 -48 LINE",
"-132 -48 LINE"
);
}
);
width = 181;
}
);
unicode = 002F;
},
{
glyphname = backslash;
layers = (
{
layerId = "15DF123F-E657-482A-A0A1-05C4B0BC92C6";
paths = (
{
closed = 1;
nodes = (
"90 1458 LINE",
"90 -48 LINE",
"84 -48 LINE",
"84 1458 LINE"
);
}
);
width = 181;
}
);
unicode = 005C;
},
{
glyphname = fraction;
layers = (
{
guideLines = (
{
position = "{30.871, 901}";
},
{
position = "{-30.139, 555}";
}
);
layerId = "15DF123F-E657-482A-A0A1-05C4B0BC92C6";
paths = (
{
closed = 1;
nodes = (
"-187.708 13 LINE",
"-192.355 15 LINE",
"273.382 1437 LINE",
"280.382 1437 LINE"
);
}
);
width = 102;
}
);
unicode = 2044;
userData = {
com.typemytype.robofont.guideline.magnetic.0lx51aIE0d = 5;
com.typemytype.robofont.guideline.magnetic.tcCoNUQTdD = 5;
};
},
{
glyphname = bar;
layers = (
{
layerId = "15DF123F-E657-482A-A0A1-05C4B0BC92C6";
paths = (
{
closed = 1;
nodes = (
"192 1458 LINE",
"198 1458 LINE",
"-66 -414 LINE",
"-72 -414 LINE"
);
}
);
width = 186;
}
);
unicode = 007C;
},
{
glyphname = brokenbar;
layers = (
{
guideLines = (
{
position = "{30.871, 901}";
},
{
position = "{-30.139, 555}";
}
);
layerId = "15DF123F-E657-482A-A0A1-05C4B0BC92C6";
paths = (
{
closed = 1;
nodes = (
"3.648 -416 LINE",
"140.301 359 LINE",
"322.301 359 LINE",
"185.648 -416 LINE"
);
},
{
closed = 1;
nodes = (
"393.185 761 LINE",
"211.185 761 LINE",
"347.838 1536 LINE",
"529.838 1536 LINE"
);
}
);
width = 592;
}
);
unicode = 00A6;
userData = {
com.typemytype.robofont.guideline.magnetic.Z0RZpP7MTi = 5;
com.typemytype.robofont.guideline.magnetic.jmguX8NWKI = 5;
};
},
{
glyphname = at;
layers = (
{
layerId = "15DF123F-E657-482A-A0A1-05C4B0BC92C6";
paths = (
{
closed = 1;
nodes = (
"138 804 OFFCURVE",
"222 1050 OFFCURVE",
"263 1050 QCURVE SMOOTH",
"282 1050 OFFCURVE",
"300 1008 OFFCURVE",
"294 972 QCURVE",
"299 972 LINE",
"185 348 LINE SMOOTH",
"156 192 OFFCURVE",
"154 6 OFFCURVE",
"180 6 QCURVE SMOOTH",
"216 6 OFFCURVE",
"292 234 OFFCURVE",
"346 648 QCURVE SMOOTH",
"400 1032 OFFCURVE",
"408 1434 OFFCURVE",
"312 1434 QCURVE SMOOTH",
"210 1434 OFFCURVE",
"68 1032 OFFCURVE",
"-10 462 QCURVE SMOOTH",
"-82 -42 OFFCURVE",
"-42 -396 OFFCURVE",
"24 -396 QCURVE SMOOTH",
"48 -396 OFFCURVE",
"96 -354 OFFCURVE",
"120 -306 QCURVE",
"126 -318 LINE",
"102 -360 OFFCURVE",
"54 -408 OFFCURVE",
"24 -408 QCURVE SMOOTH",
"-48 -408 OFFCURVE",
"-90 -60 OFFCURVE",
"-18 462 QCURVE SMOOTH",
"66 1044 OFFCURVE",
"210 1446 OFFCURVE",
"312 1446 QCURVE SMOOTH",
"414 1446 OFFCURVE",
"407 1044 OFFCURVE",
"354 648 QCURVE SMOOTH",
"298 228 OFFCURVE",
"220 0 OFFCURVE",
"180 0 QCURVE SMOOTH",
"152 0 OFFCURVE",
"147 132 OFFCURVE",
"164 258 QCURVE",
"134 126 OFFCURVE",
"89 0 OFFCURVE",
"68 0 QCURVE SMOOTH",
"45 0 OFFCURVE",
"42 126 OFFCURVE",
"90 462 QCURVE SMOOTH"
);
},
{
closed = 1;
nodes = (
"48 132 OFFCURVE",
"48 6 OFFCURVE",
"71 6 QCURVE SMOOTH",
"84 6 OFFCURVE",
"148 179 OFFCURVE",
"187 396 QCURVE SMOOTH",
"289 966 LINE SMOOTH",
"295 1002 OFFCURVE",
"282 1044 OFFCURVE",
"263 1044 QCURVE SMOOTH",
"225 1044 OFFCURVE",
"144 804 OFFCURVE",
"96 462 QCURVE SMOOTH"
);
}
);
width = 377;
}
);
unicode = 0040;
},
{
glyphname = ampersand;
layers = (
{
layerId = "15DF123F-E657-482A-A0A1-05C4B0BC92C6";
paths = (
{
closed = 1;
nodes = (
"-16 516 OFFCURVE",
"22 649 OFFCURVE",
"72 762 QCURVE SMOOTH",
"117 864 LINE SMOOTH",
"143 922 OFFCURVE",
"187 1086 OFFCURVE",
"198 1176 QCURVE SMOOTH",
"222 1372 OFFCURVE",
"216 1452 OFFCURVE",
"192 1452 QCURVE SMOOTH",
"168 1452 OFFCURVE",
"132 1368 OFFCURVE",
"102 1170 QCURVE SMOOTH",
"84 1050 OFFCURVE",
"80 912 OFFCURVE",
"85 768 QCURVE SMOOTH",
"114 0 LINE",
"106 0 LINE",
"79 768 LINE SMOOTH",
"74 912 OFFCURVE",
"78 1044 OFFCURVE",
"96 1170 QCURVE SMOOTH",
"126 1374 OFFCURVE",
"168 1458 OFFCURVE",
"192 1458 QCURVE SMOOTH",
"220 1458 OFFCURVE",
"229 1374 OFFCURVE",
"204 1176 QCURVE SMOOTH",
"193 1085 OFFCURVE",
"149 923 OFFCURVE",
"123 864 QCURVE SMOOTH",
"75 756 LINE SMOOTH",
"27 648 OFFCURVE",
"-11 510 OFFCURVE",
"-42 317 QCURVE SMOOTH",
"-71 139 OFFCURVE",
"-51 6 OFFCURVE",
"-14 6 QCURVE SMOOTH",
"43 6 OFFCURVE",
"137 384 OFFCURVE",
"179 672 QCURVE",
"186 672 LINE",
"144 378 OFFCURVE",
"48 0 OFFCURVE",
"-14 0 QCURVE SMOOTH",
"-56 0 OFFCURVE",
"-78 133 OFFCURVE",
"-48 317 QCURVE SMOOTH"
);
}
);
width = 221;
}
);
unicode = 0026;
},
{
glyphname = section;
layers = (
{
guideLines = (
{
position = "{164.35, 1658}";
},
{
position = "{-26.083, 578}";
}
);
layerId = "15DF123F-E657-482A-A0A1-05C4B0BC92C6";
paths = (
{
closed = 1;
nodes = (
"607.434 252 LINE",
"717.434 252 OFFCURVE",
"892.299 376 OFFCURVE",
"907.639 463 QCURVE",
"924.038 556 OFFCURVE",
"777.492 672 OFFCURVE",
"607.424 734 QCURVE SMOOTH",
"425.004 794 OFFCURVE",
"235.334 949 OFFCURVE",
"267.073 1129 QCURVE SMOOTH",
"298.107 1305 OFFCURVE",
"555.727 1490 OFFCURVE",
"757.904 1491 QCURVE SMOOTH",
"951.08 1492 OFFCURVE",
"1140.167 1294 OFFCURVE",
"1104.96 1100 QCURVE",
"939.96 1100 LINE",
"958.592 1200 OFFCURVE",
"851.749 1337 OFFCURVE",
"730.749 1337 QCURVE SMOOTH",
"590.749 1337 OFFCURVE",
"451.469 1239 OFFCURVE",
"434.013 1140 QCURVE SMOOTH",
"417.967 1049 OFFCURVE",
"525.45 961 OFFCURVE",
"714.165 897 QCURVE SMOOTH",
"887.938 839 OFFCURVE",
"1121.965 652 OFFCURVE",
"1091.284 478 QCURVE SMOOTH",
"1062.543 315 OFFCURVE",
"765.451 133 OFFCURVE",
"586.451 133 QCURVE"
);
},
{
closed = 1;
nodes = (
"541.303 756 LINE",
"430.303 756 OFFCURVE",
"287.436 649 OFFCURVE",
"272.977 567 QCURVE SMOOTH",
"258.871 487 OFFCURVE",
"387.239 387 OFFCURVE",
"563.896 317 QCURVE SMOOTH",
"728.434 252 OFFCURVE",
"931.638 66 OFFCURVE",
"900.075 -113 QCURVE SMOOTH",
"867.455 -298 OFFCURVE",
"576.25 -509 OFFCURVE",
"381.25 -509 QCURVE SMOOTH",
"186.25 -509 OFFCURVE",
"-50.427 -303 OFFCURVE",
"-9.696 -72 QCURVE",
"154.657 -70 LINE",
"126.445 -230 OFFCURVE",
"302.404 -355 OFFCURVE",
"408.404 -355 QCURVE SMOOTH",
"525.404 -355 OFFCURVE",
"712.976 -244 OFFCURVE",
"732.02 -136 QCURVE SMOOTH",
"749.829 -35 OFFCURVE",
"630.575 94 OFFCURVE",
"440.389 161 QCURVE SMOOTH",
"266.145 222 OFFCURVE",
"65.057 420 OFFCURVE",
"92.741 577 QCURVE SMOOTH",
"119.19 727 OFFCURVE",
"404.636 894 OFFCURVE",
"566.636 894 QCURVE"
);
}
);
width = 1256;
}
);
unicode = 00A7;
userData = {
com.typemytype.robofont.guideline.magnetic.9Hxjf2sdFw = 5;
com.typemytype.robofont.guideline.magnetic.QzZ5gIiCyn = 5;
};
},
{
glyphname = paragraph;
layers = (
{
guideLines = (
{
position = "{30.871, 901}";
},
{
position = "{-30.139, 555}";
}
);
layerId = "15DF123F-E657-482A-A0A1-05C4B0BC92C6";
paths = (
{
closed = 1;
nodes = (
"393.256 -146 LINE",
"541.724 696 LINE",
"454.724 696 LINE SMOOTH",
"259.724 696 OFFCURVE",
"88.81 912 OFFCURVE",
"117.728 1076 QCURVE SMOOTH",
"146.293 1238 OFFCURVE",
"393.732 1456 OFFCURVE",
"588.732 1456 QCURVE SMOOTH",
"861.732 1456 LINE",
"579.256 -146 LINE"
);
},
{
closed = 1;
nodes = (
"1190.261 1459 LINE",
"907.256 -146 LINE",
"721.256 -146 LINE",
"1004.261 1459 LINE"
);
}
);
width = 1261;
}
);
unicode = 00B6;
userData = {
com.typemytype.robofont.guideline.magnetic.27539Lsr1A = 5;
com.typemytype.robofont.guideline.magnetic.e34wUdCmXR = 5;
};
},
{
glyphname = numero;
layers = (
{
layerId = "15DF123F-E657-482A-A0A1-05C4B0BC92C6";
paths = (
{
closed = 1;
nodes = (
"298.732 1456 LINE",
"493.732 1456 LINE",
"912.352 416 LINE SMOOTH",
"925.062 386 OFFCURVE",
"950.483 326 OFFCURVE",
"958.074 301 QCURVE",
"968.074 301 LINE",
"969.364 331 OFFCURVE",
"980.589 406 OFFCURVE",
"985.879 436 QCURVE SMOOTH",
"1165.732 1456 LINE",
"1342.732 1456 LINE",
"1086 0 LINE",
"889 0 LINE",
"460.264 1028 LINE SMOOTH",
"446.73 1059 OFFCURVE",
"431.134 1118 OFFCURVE",
"428.894 1145 QCURVE",
"418.894 1145 LINE",
"417.605 1115 OFFCURVE",
"405.38 1040 OFFCURVE",
"400.09 1010 QCURVE SMOOTH",
"222 0 LINE",
"42 0 LINE"
);
},
{
closed = 1;
nodes = (
"1404.677 1019 LINE SMOOTH",
"1439.943 1219 OFFCURVE",
"1724.73 1473 OFFCURVE",
"1920.73 1473 QCURVE SMOOTH",
"2116.73 1473 OFFCURVE",
"2312.943 1219 OFFCURVE",
"2277.677 1019 QCURVE SMOOTH",
"2272.916 992 LINE SMOOTH",
"2237.651 792 OFFCURVE",
"1964.04 539 OFFCURVE",
"1756.04 539 QCURVE SMOOTH",
"1548.04 539 OFFCURVE",
"1364.651 792 OFFCURVE",
"1399.916 992 QCURVE SMOOTH"
);
},
{
closed = 1;
nodes = (
"1597.74 991 LINE SMOOTH",
"1575.347 864 OFFCURVE",
"1663.253 699 OFFCURVE",
"1784.253 699 QCURVE SMOOTH",
"1905.253 699 OFFCURVE",
"2052.346 864 OFFCURVE",
"2074.74 991 QCURVE SMOOTH",
"2079.148 1016 LINE SMOOTH",
"2101.542 1143 OFFCURVE",
"2011.636 1308 OFFCURVE",
"1891.636 1308 QCURVE SMOOTH",
"1771.636 1308 OFFCURVE",
"1624.542 1143 OFFCURVE",
"1602.148 1016 QCURVE SMOOTH"
);
},
{
closed = 1;
nodes = (
"1338 414 LINE",
"2131 414 LINE",
"2098.908 232 LINE",
"1305.908 232 LINE"
);
}
);
width = 2331;
}
);
unicode = 2116;
},
{
glyphname = periodcentered;
layers = (
{
layerId = "15DF123F-E657-482A-A0A1-05C4B0BC92C6";
paths = (
{
closed = 1;
nodes = (
"188.709 798 OFFCURVE",
"265.052 868 OFFCURVE",
"325.052 868 QCURVE SMOOTH",
"385.052 868 OFFCURVE",
"436.709 798 OFFCURVE",
"428.069 749 QCURVE SMOOTH",
"419.429 700 OFFCURVE",
"343.086 630 OFFCURVE",
"283.086 630 QCURVE SMOOTH",
"223.086 630 OFFCURVE",
"171.429 700 OFFCURVE",
"180.069 749 QCURVE SMOOTH"
);
}
);
width = 600;
}
);
unicode = 00B7;
},
{
glyphname = bullet;
layers = (
{
layerId = "15DF123F-E657-482A-A0A1-05C4B0BC92C6";
paths = (
{
closed = 1;
nodes = (
"132.755 889 OFFCURVE",
"325.083 1061 OFFCURVE",
"451.083 1061 QCURVE SMOOTH",
"577.083 1061 OFFCURVE",
"708.755 889 OFFCURVE",
"688.301 773 QCURVE SMOOTH",
"668.199 659 OFFCURVE",
"475.871 487 OFFCURVE",
"349.871 487 QCURVE SMOOTH",
"223.871 487 OFFCURVE",
"92.199 659 OFFCURVE",
"112.301 773 QCURVE SMOOTH"
);
}
);
width = 784;
}
);
unicode = 2022;
},
{
glyphname = minute;
layers = (
{
layerId = "15DF123F-E657-482A-A0A1-05C4B0BC92C6";
paths = (
{
closed = 1;
nodes = (
"541.894 1559 LINE",
"716.027 1452 LINE SMOOTH",
"258.873 884 LINE",
"141.979 964 LINE"
);
}
);
width = 654;
}
);
leftKerningGroup = minute;
rightKerningGroup = minute;
unicode = 2032;
},
{
glyphname = second;
layers = (
{
layerId = "15DF123F-E657-482A-A0A1-05C4B0BC92C6";
paths = (
{
closed = 1;
nodes = (
"541.894 1559 LINE",
"716.027 1452 LINE SMOOTH",
"258.873 884 LINE",
"141.979 964 LINE"
);
},
{
closed = 1;
nodes = (
"941.894 1559 LINE",
"1116.027 1452 LINE SMOOTH",
"658.873 884 LINE",
"541.979 964 LINE"
);
}
);
width = 1054;
}
);
leftKerningGroup = minute;
rightKerningGroup = minute;
unicode = 2033;
},
{
glyphname = plus;
layers = (
{
layerId = "15DF123F-E657-482A-A0A1-05C4B0BC92C6";
paths = (
{
closed = 1;
nodes = (
"12 738 LINE",
"276 738 LINE",
"270 732 LINE",
"12 732 LINE"
);
},
{
closed = 1;
nodes = (
"162 900 LINE",
"168 900 LINE",
"120 570 LINE",
"114 570 LINE"
);
}
);
width = 282;
}
);
unicode = 002B;
},
{
glyphname = minus;
layers = (
{
layerId = "15DF123F-E657-482A-A0A1-05C4B0BC92C6";
paths = (
{
closed = 1;
nodes = (
"64.419 768 LINE",
"974.419 768 LINE",
"942.68 588 LINE",
"32.68 588 LINE"
);
}
);
width = 1024;
}
);
unicode = 2212;
},
{
glyphname = plusminus;
layers = (
{
layerId = "15DF123F-E657-482A-A0A1-05C4B0BC92C6";
paths = (
{
closed = 1;
nodes = (
"65.653 775 LINE",
"975.653 775 LINE",
"946.736 611 LINE",
"36.736 611 LINE"
);
},
{
closed = 1;
nodes = (
"498.539 1160 LINE",
"678.539 1160 LINE",
"517.729 248 LINE",
"337.729 248 LINE"
);
},
{
closed = 1;
nodes = (
"-41.906 165 LINE",
"868.094 165 LINE",
"839.176 1 LINE",
"-70.824 1 LINE"
);
}
);
width = 1024;
}
);
unicode = 00B1;
},
{
glyphname = divide;
layers = (
{
layerId = "15DF123F-E657-482A-A0A1-05C4B0BC92C6";
paths = (
{
closed = 1;
nodes = (
"455.134 1118 OFFCURVE",
"530.476 1188 OFFCURVE",
"592.476 1188 QCURVE SMOOTH",
"653.476 1188 OFFCURVE",
"706.134 1118 OFFCURVE",
"696.788 1065 QCURVE SMOOTH",
"687.796 1014 OFFCURVE",
"610.629 945 OFFCURVE",
"549.629 945 QCURVE SMOOTH",
"487.629 945 OFFCURVE",
"436.796 1014 OFFCURVE",
"445.788 1065 QCURVE SMOOTH"
);
},
{
closed = 1;
nodes = (
"317.951 340 OFFCURVE",
"393.47 411 OFFCURVE",
"455.47 411 QCURVE SMOOTH",
"516.47 411 OFFCURVE",
"568.951 340 OFFCURVE",
"559.782 288 QCURVE SMOOTH",
"550.789 237 OFFCURVE",
"473.447 167 OFFCURVE",
"412.447 167 QCURVE SMOOTH",
"350.447 167 OFFCURVE",
"299.789 237 OFFCURVE",
"308.782 288 QCURVE SMOOTH"
);
},
{
closed = 1;
nodes = (
"64.419 768 LINE",
"974.419 768 LINE",
"942.68 588 LINE",
"32.68 588 LINE"
);
}
);
width = 1024;
}
);
unicode = 00F7;
},
{
glyphname = multiply;
layers = (
{
layerId = "15DF123F-E657-482A-A0A1-05C4B0BC92C6";
paths = (
{
closed = 1;
nodes = (
"15.538 349 LINE",
"886.665 1104 LINE",
"974.74 991 LINE",
"103.789 237 LINE"
);
},
{
closed = 1;
nodes = (
"129.8 980 LINE",
"270.665 1104 LINE",
"866.478 360 LINE",
"725.789 237 LINE"
);
}
);
width = 1024;
}
);
unicode = 00D7;
},
{
glyphname = equal;
layers = (
{
layerId = "15DF123F-E657-482A-A0A1-05C4B0BC92C6";
paths = (
{
closed = 1;
nodes = (
"-18 550 LINE",
"246 550 LINE",
"246 540 LINE",
"-18 540 LINE"
);
},
{
closed = 1;
nodes = (
"18 804 LINE",
"282 804 LINE",
"282 794 LINE",
"18 794 LINE"
);
}
);
width = 282;
}
);
unicode = 003D;
},
{
glyphname = less;
layers = (
{
layerId = "15DF123F-E657-482A-A0A1-05C4B0BC92C6";
paths = (
{
closed = 1;
nodes = (
"0 672 LINE",
"0 678 LINE",
"270 930 LINE",
"273 924 LINE",
"12 672 LINE",
"201 423 LINE",
"198 414 LINE"
);
}
);
width = 282;
}
);
unicode = 003C;
},
{
glyphname = greater;
layers = (
{
layerId = "15DF123F-E657-482A-A0A1-05C4B0BC92C6";
paths = (
{
closed = 1;
nodes = (
"0 426 LINE",
"258 672 LINE",
"65 922 LINE",
"72 930 LINE",
"264 678 LINE",
"264 672 LINE",
"1 416 LINE"
);
}
);
width = 282;
}
);
unicode = 003E;
},
{
glyphname = lessequal;
layers = (
{
layerId = "15DF123F-E657-482A-A0A1-05C4B0BC92C6";
paths = (
{
closed = 1;
nodes = (
"73.149 602 LINE",
"98.54 746 LINE",
"978.078 1095 LINE",
"944.047 902 LINE",
"317.726 679 LINE",
"865.405 456 LINE",
"829.611 253 LINE"
);
},
{
closed = 1;
nodes = (
"-46.024 170 LINE",
"863.976 170 LINE",
"834.176 1 LINE",
"-75.824 1 LINE"
);
}
);
width = 1024;
}
);
unicode = 2264;
},
{
glyphname = greaterequal;
layers = (
{
layerId = "15DF123F-E657-482A-A0A1-05C4B0BC92C6";
paths = (
{
closed = 1;
nodes = (
"63.405 456 LINE",
"689.726 679 LINE",
"142.047 902 LINE",
"176.078 1095 LINE",
"932.54 746 LINE",
"907.149 602 LINE",
"27.611 253 LINE"
);
},
{
closed = 1;
nodes = (
"-65.824 1 LINE",
"-36.024 170 LINE",
"873.976 170 LINE",
"844.176 1 LINE"
);
}
);
width = 1024;
}
);
unicode = 2265;
},
{
glyphname = approxequal;
layers = (
{
layerId = "15DF123F-E657-482A-A0A1-05C4B0BC92C6";
paths = (
{
closed = 1;
nodes = (
"76.871 901 LINE",
"132.863 952 OFFCURVE",
"275.09 1010 OFFCURVE",
"340.267 1011 QCURVE SMOOTH",
"419.443 1012 OFFCURVE",
"503.861 969 OFFCURVE",
"561.395 938 QCURVE SMOOTH",
"615.105 908 OFFCURVE",
"693.052 868 OFFCURVE",
"767.052 868 QCURVE SMOOTH",
"832.052 868 OFFCURVE",
"969.042 936 OFFCURVE",
"1026.622 996 QCURVE",
"991.885 799 LINE",
"935.893 748 OFFCURVE",
"801.666 690 OFFCURVE",
"736.666 690 QCURVE SMOOTH",
"662.666 690 OFFCURVE",
"584.542 729 OFFCURVE",
"530.832 759 QCURVE SMOOTH",
"473.298 790 OFFCURVE",
"387.704 832 OFFCURVE",
"308.704 832 QCURVE SMOOTH",
"243.704 832 OFFCURVE",
"99.714 764 OFFCURVE",
"42.134 704 QCURVE"
);
},
{
closed = 1;
nodes = (
"2.342 484 LINE",
"58.335 535 OFFCURVE",
"200.386 592 OFFCURVE",
"265.562 593 QCURVE SMOOTH",
"344.738 594 OFFCURVE",
"429.156 551 OFFCURVE",
"486.69 520 QCURVE SMOOTH",
"540.4 490 OFFCURVE",
"618.523 451 OFFCURVE",
"692.523 451 QCURVE SMOOTH",
"757.523 451 OFFCURVE",
"894.514 519 OFFCURVE",
"952.093 579 QCURVE",
"917.181 381 LINE",
"861.188 330 OFFCURVE",
"726.961 272 OFFCURVE",
"661.961 272 QCURVE SMOOTH",
"587.961 272 OFFCURVE",
"509.838 311 OFFCURVE",
"456.128 341 QCURVE SMOOTH",
"398.594 372 OFFCURVE",
"313 414 OFFCURVE",
"234 414 QCURVE SMOOTH",
"169 414 OFFCURVE",
"25.185 347 OFFCURVE",
"-32.394 287 QCURVE"
);
}
);
width = 1024;
}
);
unicode = 2248;
},
{
glyphname = notequal;
layers = (
{
layerId = "15DF123F-E657-482A-A0A1-05C4B0BC92C6";
paths = (
{
closed = 1;
nodes = (
"726.818 861 LINE",
"694.704 832 LINE",
"415.287 461 LINE",
"407.055 437 LINE",
"144.693 89 LINE",
"20.799 169 LINE",
"229.818 447 LINE",
"256.697 469 LINE",
"526.999 828 LINE",
"544.346 864 LINE",
"839.348 1261 LINE",
"963.242 1181 LINE"
);
},
{
closed = 1;
nodes = (
"25.98 550 LINE",
"935.98 550 LINE",
"906.181 381 LINE",
"-3.819 381 LINE"
);
},
{
closed = 1;
nodes = (
"95.629 945 LINE",
"1005.629 945 LINE",
"975.83 776 LINE",
"65.83 776 LINE"
);
}
);
width = 1024;
}
);
unicode = 2260;
},
{
glyphname = logicalnot;
layers = (
{
layerId = "15DF123F-E657-482A-A0A1-05C4B0BC92C6";
paths = (
{
closed = 1;
nodes = (
"866.299 376 LINE",
"681.299 376 LINE",
"727.32 637 LINE",
"42.32 637 LINE",
"71.238 801 LINE",
"941.238 801 LINE"
);
}
);
width = 1024;
}
);
unicode = 00AC;
},
{
glyphname = commercialMinusSign;
layers = (
{
layerId = "15DF123F-E657-482A-A0A1-05C4B0BC92C6";
paths = (
{
closed = 1;
nodes = (
"782.667 1501 LINE",
"943.085 1458 LINE",
"93.065 -45 LINE",
"-67.353 -2 LINE"
);
},
{
closed = 1;
nodes = (
"414.558 213 OFFCURVE",
"522.661 310 OFFCURVE",
"593.661 310 QCURVE SMOOTH",
"664.661 310 OFFCURVE",
"738.558 213 OFFCURVE",
"727.096 148 QCURVE SMOOTH",
"715.811 84 OFFCURVE",
"607.708 -13 OFFCURVE",
"536.708 -13 QCURVE SMOOTH",
"465.708 -13 OFFCURVE",
"391.811 84 OFFCURVE",
"403.096 148 QCURVE SMOOTH"
);
},
{
closed = 1;
nodes = (
"173.392 1369 OFFCURVE",
"281.495 1466 OFFCURVE",
"352.495 1466 QCURVE SMOOTH",
"423.495 1466 OFFCURVE",
"497.392 1369 OFFCURVE",
"485.93 1304 QCURVE SMOOTH",
"474.645 1240 OFFCURVE",
"366.542 1143 OFFCURVE",
"295.542 1143 QCURVE SMOOTH",
"224.542 1143 OFFCURVE",
"150.645 1240 OFFCURVE",
"161.93 1304 QCURVE SMOOTH"
);
}
);
width = 889;
}
);
unicode = 2052;
},
{
glyphname = divisionslash;
layers = (
{
layerId = "15DF123F-E657-482A-A0A1-05C4B0BC92C6";
paths = (
{
closed = 1;
nodes = (
"700.188 1555 LINE",
"833.606 1512 LINE",
"-77.389 -161 LINE",
"-210.807 -118 LINE"
);
}
);
width = 656;
}
);
unicode = 2215;
},
{
glyphname = bulletoperator;
layers = (
{
layerId = "15DF123F-E657-482A-A0A1-05C4B0BC92C6";
paths = (
{
closed = 1;
nodes = (
"369.071 732 OFFCURVE",
"465.235 818 OFFCURVE",
"528.235 818 QCURVE SMOOTH",
"591.235 818 OFFCURVE",
"657.071 732 OFFCURVE",
"646.844 674 QCURVE SMOOTH",
"636.794 617 OFFCURVE",
"540.63 531 OFFCURVE",
"477.63 531 QCURVE SMOOTH",
"414.63 531 OFFCURVE",
"348.794 617 OFFCURVE",
"358.844 674 QCURVE SMOOTH"
);
}
);
width = 1024;
}
);
unicode = 2219;
},
{
glyphname = dollar;
layers = (
{
layerId = "15DF123F-E657-482A-A0A1-05C4B0BC92C6";
paths = (
{
closed = 1;
nodes = (
"-4 456 LINE",
"2 456 LINE",
"-28 222 LINE SMOOTH",
"-46 96 OFFCURVE",
"-16 6 OFFCURVE",
"14 6 QCURVE SMOOTH",
"50 6 OFFCURVE",
"104 108 OFFCURVE",
"134 324 QCURVE SMOOTH",
"158 492 OFFCURVE",
"152 672 OFFCURVE",
"128 786 QCURVE SMOOTH",
"98 894 OFFCURVE",
"80 1026 OFFCURVE",
"104 1212 QCURVE SMOOTH",
"128 1356 OFFCURVE",
"182 1458 OFFCURVE",
"218 1458 QCURVE SMOOTH",
"260 1458 OFFCURVE",
"284 1362 OFFCURVE",
"266 1230 QCURVE SMOOTH",
"236 1020 LINE",
"230 1020 LINE",
"260 1230 LINE SMOOTH",
"278 1356 OFFCURVE",
"254 1452 OFFCURVE",
"218 1452 QCURVE SMOOTH",
"182 1452 OFFCURVE",
"134 1356 OFFCURVE",
"110 1212 QCURVE SMOOTH",
"86 1032 OFFCURVE",
"104 900 OFFCURVE",
"134 786 QCURVE SMOOTH",
"158 678 OFFCURVE",
"164 498 OFFCURVE",
"140 324 QCURVE SMOOTH",
"110 108 OFFCURVE",
"50 0 OFFCURVE",
"14 0 QCURVE SMOOTH",
"-22 0 OFFCURVE",
"-52 96 OFFCURVE",
"-34 216 QCURVE SMOOTH"
);
},
{
closed = 1;
nodes = (
"122 798 LINE",
"128 786 LINE",
"20 6 LINE",
"20 0 LINE",
"-4 -150 LINE",
"-10 -150 LINE"
);
},
{
closed = 1;
nodes = (
"218 1452 LINE",
"218 1452 LINE",
"236 1608 LINE",
"242 1608 LINE",
"128 786 LINE",
"122 798 LINE"
);
}
);
width = 227;
}
);
unicode = 0024;
},
{
glyphname = cent;
layers = (
{
layerId = "15DF123F-E657-482A-A0A1-05C4B0BC92C6";
paths = (
{
closed = 1;
nodes = (
"567.724 282 OFFCURVE",
"737.707 401 OFFCURVE",
"760.753 492 QCURVE",
"936.753 492 LINE",
"903.362 348 OFFCURVE",
"612.922 130 OFFCURVE",
"441.923 130 QCURVE",
"198.923 130 OFFCURVE",
"17.052 454 OFFCURVE",
"55.139 670 QCURVE SMOOTH",
"62.545 712 LINE SMOOTH",
"100.631 928 OFFCURVE",
"396.761 1252 OFFCURVE",
"639.761 1252 QCURVE SMOOTH",
"828.761 1252 OFFCURVE",
"1023.911 1026 OFFCURVE",
"1001.641 860 QCURVE",
"825.641 860 LINE",
"836.098 959 OFFCURVE",
"722.96 1100 OFFCURVE",
"612.96 1100 QCURVE",
"442.96 1100 OFFCURVE",
"273.231 852 OFFCURVE",
"248.545 712 QCURVE SMOOTH",
"241.139 670 LINE SMOOTH",
"216.101 528 OFFCURVE",
"296.724 282 OFFCURVE",
"468.724 282 QCURVE SMOOTH"
);
},
{
closed = 1;
nodes = (
"382.789 237 LINE",
"390.258 251 LINE",
"470.84 708 LINE",
"610.839 708 LINE",
"530.082 250 LINE",
"533.318 240 LINE",
"491 0 LINE",
"341 0 LINE"
);
},
{
closed = 1;
nodes = (
"554.419 1182 LINE",
"551.182 1192 LINE",
"588.21 1402 LINE",
"738.21 1402 LINE",
"701.182 1192 LINE",
"693.89 1179 LINE",
"610.839 708 LINE",
"470.84 708 LINE"
);
}
);
width = 1024;
}
);
unicode = 00A2;
},
{
glyphname = sterling;
layers = (
{
layerId = "15DF123F-E657-482A-A0A1-05C4B0BC92C6";
paths = (
{
closed = 1;
nodes = (
"-92 0 LINE",
"-63.788 160 LINE",
"-7.788 160 LINE SMOOTH",
"84.212 160 OFFCURVE",
"193.13 324 OFFCURVE",
"204.345 467 QCURVE SMOOTH",
"250.204 1039 LINE SMOOTH",
"265.53 1228 OFFCURVE",
"512.259 1476 OFFCURVE",
"713.259 1476 QCURVE SMOOTH",
"903.259 1476 OFFCURVE",
"1079.935 1270 OFFCURVE",
"1050.489 1103 QCURVE SMOOTH",
"1047.667 1087 LINE",
"855.667 1087 LINE",
"858.489 1103 LINE SMOOTH",
"871.766 1218 OFFCURVE",
"777.812 1309 OFFCURVE",
"685.812 1309 QCURVE SMOOTH",
"588.812 1309 OFFCURVE",
"449.947 1185 OFFCURVE",
"438.204 1039 QCURVE SMOOTH",
"395.574 508 LINE SMOOTH",
"384.594 372 OFFCURVE",
"300.5 207 OFFCURVE",
"223.27 166 QCURVE",
"929.27 166 LINE",
"900 0 LINE"
);
},
{
closed = 1;
nodes = (
"34.204 625 LINE",
"61.535 780 LINE",
"833.535 780 LINE",
"806.204 625 LINE"
);
}
);
width = 1024;
}
);
unicode = 00A3;
},
{
glyphname = currency;
layers = (
{
guideLines = (
{
position = "{30.871, 901}";
},
{
position = "{-30.139, 555}";
}
);
layerId = "15DF123F-E657-482A-A0A1-05C4B0BC92C6";
paths = (
{
closed = 1;
nodes = (
"232.977 567 OFFCURVE",
"382.77 373 OFFCURVE",
"513.77 373 QCURVE SMOOTH",
"643.77 373 OFFCURVE",
"860.977 567 OFFCURVE",
"886.545 712 QCURVE SMOOTH",
"911.76 855 OFFCURVE",
"762.967 1049 OFFCURVE",
"632.967 1049 QCURVE SMOOTH",
"501.967 1049 OFFCURVE",
"283.76 855 OFFCURVE",
"258.545 712 QCURVE"
);
},
{
closed = 1;
nodes = (
"114.513 933 OFFCURVE",
"462 1225 OFFCURVE",
"663 1225 QCURVE SMOOTH",
"864 1225 OFFCURVE",
"1108.513 933 OFFCURVE",
"1070.603 718 QCURVE SMOOTH",
"1032.869 504 OFFCURVE",
"684.852 209 OFFCURVE",
"483.852 209 QCURVE SMOOTH",
"282.852 209 OFFCURVE",
"38.869 504 OFFCURVE",
"76.603 718 QCURVE"
);
},
{
closed = 1;
nodes = (
"960.037 970 LINE",
"860.431 1097 LINE",
"1098.754 1303 LINE",
"1198.36 1176 LINE"
);
},
{
closed = 1;
nodes = (
"31.096 148 LINE",
"-67.686 274 LINE",
"170.461 479 LINE",
"269.42 354 LINE"
);
},
{
closed = 1;
nodes = (
"756.654 361 LINE",
"901.871 487 LINE",
"1067.724 282 LINE",
"922.331 155 LINE"
);
},
{
closed = 1;
nodes = (
"110.829 1190 LINE",
"254.046 1316 LINE",
"419.723 1110 LINE",
"276.506 984 LINE"
);
}
);
width = 1158;
}
);
unicode = 00A4;
userData = {
com.typemytype.robofont.guideline.magnetic.917FhrihjR = 5;
com.typemytype.robofont.guideline.magnetic.bRYxxRaQQf = 5;
};
},
{
glyphname = yen;
layers = (
{
layerId = "15DF123F-E657-482A-A0A1-05C4B0BC92C6";
paths = (
{
closed = 1;
nodes = (
"13.874 470 LINE",
"959.874 470 LINE",
"931.838 311 LINE",
"-14.162 311 LINE"
);
},
{
closed = 1;
nodes = (
"67.653 775 LINE",
"433.653 775 LINE",
"467.963 669 LINE",
"576.963 669 LINE",
"643.653 775 LINE",
"1013.653 775 LINE",
"986.499 621 LINE",
"40.499 621 LINE"
);
},
{
closed = 1;
nodes = (
"404.627 548 LINE",
"109.732 1456 LINE",
"318.732 1456 LINE",
"487.702 849 LINE SMOOTH",
"496.412 819 OFFCURVE",
"511.25 716 OFFCURVE",
"511.726 679 QCURVE",
"531.726 679 LINE",
"550.6 735 OFFCURVE",
"596.412 819 OFFCURVE",
"615.702 849 QCURVE SMOOTH",
"1002.732 1456 LINE",
"1203.732 1456 LINE",
"588.627 548 LINE",
"492 0 LINE",
"308 0 LINE"
);
}
);
width = 1056;
}
);
unicode = 00A5;
},
{
glyphname = coloncurrency;
layers = (
{
guideLines = (
{
position = "{148.833, 1570}";
}
);
layerId = "15DF123F-E657-482A-A0A1-05C4B0BC92C6";
paths = (
{
closed = 1;
nodes = (
"1028.457 1324 LINE",
"1011.401 1301 LINE",
"621.99 68 LINE",
"623.582 43 LINE",
"569.959 -125 LINE",
"410.959 -125 LINE",
"463.053 40 LINE",
"481.638 66 LINE",
"894.981 1361 LINE",
"891.508 1381 LINE",
"952.833 1570 LINE",
"1110.833 1570 LINE"
);
},
{
closed = 1;
nodes = (
"782.976 1395 LINE",
"766.273 1374 LINE",
"348.638 66 LINE",
"349.877 39 LINE",
"297.959 -125 LINE",
"138.959 -125 LINE",
"217.512 122 LINE",
"236.096 148 LINE",
"628.626 1376 LINE",
"625.681 1399 LINE",
"680.833 1570 LINE",
"838.833 1570 LINE"
);
},
{
closed = 1;
nodes = (
"105.82 844 LINE SMOOTH",
"160.481 1154 OFFCURVE",
"521.022 1486 OFFCURVE",
"755.022 1486 QCURVE SMOOTH",
"990.022 1486 OFFCURVE",
"1212.411 1233 OFFCURVE",
"1178.38 1040 QCURVE SMOOTH",
"1169.564 990 LINE",
"987.564 990 LINE",
"996.556 1041 LINE SMOOTH",
"1017.716 1161 OFFCURVE",
"890.868 1332 OFFCURVE",
"727.868 1332 QCURVE SMOOTH",
"565.868 1332 OFFCURVE",
"334.315 1085 OFFCURVE",
"291.82 844 QCURVE SMOOTH",
"247.386 592 LINE SMOOTH",
"208.065 369 OFFCURVE",
"361.101 114 OFFCURVE",
"523.101 114 QCURVE SMOOTH",
"686.101 114 OFFCURVE",
"869.311 291 OFFCURVE",
"890.647 412 QCURVE SMOOTH",
"900.168 466 LINE",
"1087.168 466 LINE",
"1080.115 426 LINE SMOOTH",
"1047.495 241 OFFCURVE",
"732.71 -30 OFFCURVE",
"497.71 -30 QCURVE SMOOTH",
"258.71 -30 OFFCURVE",
"11.309 308 OFFCURVE",
"64.912 612 QCURVE SMOOTH"
);
}
);
width = 1154;
}
);
unicode = 20A1;
userData = {
com.typemytype.robofont.guideline.magnetic.0DwZ2nfhdf = 5;
};
},
{
glyphname = franc;
layers = (
{
layerId = "15DF123F-E657-482A-A0A1-05C4B0BC92C6";
paths = (
{
closed = 1;
nodes = (
"308.732 1456 LINE",
"1130.732 1456 LINE",
"1102.872 1298 LINE",
"472.872 1298 LINE",
"395.818 861 LINE",
"936.818 861 LINE",
"908.958 703 LINE",
"367.958 703 LINE",
"244 0 LINE",
"52 0 LINE"
);
},
{
closed = 1;
nodes = (
"-27.948 454 LINE",
"677.052 454 LINE",
"649.193 296 LINE",
"-55.807 296 LINE"
);
}
);
width = 1024;
}
);
unicode = 20A3;
},
{
glyphname = lira;
layers = (
{
layerId = "15DF123F-E657-482A-A0A1-05C4B0BC92C6";
paths = (
{
closed = 1;
nodes = (
"-92 0 LINE",
"-63.788 160 LINE",
"-7.788 160 LINE SMOOTH",
"84.212 160 OFFCURVE",
"196.13 324 OFFCURVE",
"207.345 467 QCURVE SMOOTH",
"253.204 1039 LINE SMOOTH",
"268.53 1228 OFFCURVE",
"512.259 1476 OFFCURVE",
"713.259 1476 QCURVE SMOOTH",
"903.259 1476 OFFCURVE",
"1079.935 1270 OFFCURVE",
"1050.489 1103 QCURVE SMOOTH",
"1047.667 1087 LINE",
"855.667 1087 LINE",
"858.489 1103 LINE SMOOTH",
"871.766 1218 OFFCURVE",
"779.575 1319 OFFCURVE",
"687.575 1319 QCURVE SMOOTH",
"585.575 1319 OFFCURVE",
"444.892 1162 OFFCURVE",
"435.204 1039 QCURVE SMOOTH",
"392.574 508 LINE SMOOTH",
"381.594 372 OFFCURVE",
"300.5 207 OFFCURVE",
"223.27 166 QCURVE",
"929.27 166 LINE",
"900 0 LINE"
);
},
{
closed = 1;
nodes = (
"-9.298 435 LINE",
"16.27 580 LINE",
"778.27 580 LINE",
"752.702 435 LINE"
);
},
{
closed = 1;
nodes = (
"48.89 765 LINE",
"74.458 910 LINE",
"836.458 910 LINE",
"810.89 765 LINE"
);
}
);
width = 1024;
}
);
unicode = 20A4;
},
{
glyphname = naira;
layers = (
{
layerId = "15DF123F-E657-482A-A0A1-05C4B0BC92C6";
paths = (
{
closed = 1;
nodes = (
"25.035 987 LINE",
"207.035 987 LINE",
"205.271 977 LINE",
"871.271 977 LINE",
"873.035 987 LINE",
"1065.387 989 LINE",
"1041.231 852 LINE",
"848.878 850 LINE",
"849.76 855 LINE",
"183.76 855 LINE",
"182.878 850 LINE",
"0.878 850 LINE"
);
},
{
closed = 1;
nodes = (
"-29.627 677 LINE",
"152.373 677 LINE",
"151.492 672 LINE",
"817.492 672 LINE",
"818.373 677 LINE",
"1010.726 679 LINE",
"986.569 542 LINE",
"794.217 540 LINE",
"795.98 550 LINE",
"129.98 550 LINE",
"128.217 540 LINE",
"-53.783 540 LINE"
);
},
{
closed = 1;
nodes = (
"778 0 LINE",
"597 0 LINE",
"327.365 1142 LINE",
"324.938 1253 LINE",
"312.938 1253 LINE",
"303.368 1125 LINE",
"105 0 LINE",
"-45 0 LINE",
"211.732 1456 LINE",
"397.732 1456 LINE",
"656.185 347 LINE",
"664.026 227 LINE",
"678.555 230 LINE",
"689.891 351 LINE",
"884.732 1456 LINE",
"1034.732 1456 LINE"
);
}
);
width = 1024;
}
);
unicode = 20A6;
},
{
glyphname = peseta;
layers = (
{
layerId = "15DF123F-E657-482A-A0A1-05C4B0BC92C6";
paths = (
{
closed = 1;
nodes = (
"282.625 565 LINE",
"309.426 717 LINE",
"543.426 717 LINE",
"716.561 717 OFFCURVE",
"852.439 898.552 OFFCURVE",
"871.914 1009 QCURVE",
"891.652 1120.94 OFFCURVE",
"820.065 1304 OFFCURVE",
"646.93 1304 QCURVE",
"453.93 1304 LINE",
"224 0 LINE",
"39 0 LINE",
"295.732 1456 LINE",
"673.732 1456 LINE",
"920 1456 OFFCURVE",
"1091.953 1202.045 OFFCURVE",
"1058.267 1011 QCURVE",
"1024.449 819.209 OFFCURVE",
"762.893 565 OFFCURVE",
"516.625 565 QCURVE"
);
},
{
closed = 1;
nodes = (
"1581.873 884 LINE",
"977.873 884 LINE",
"1002.911 1026 LINE",
"1606.911 1026 LINE"
);
},
{
closed = 1;
nodes = (
"1441.16 1345 LINE",
"1251.256 268 LINE",
"1236.649 185.164 OFFCURVE",
"1301.241 139 OFFCURVE",
"1347.509 139 QCURVE SMOOTH",
"1370.644 139 OFFCURVE",
"1440.862 141 OFFCURVE",
"1503.741 163 QCURVE",
"1477.116 12 LINE",
"1424.942 -6 OFFCURVE",
"1313.981 -20 OFFCURVE",
"1265.474 -20 QCURVE SMOOTH",
"1163.235 -20 OFFCURVE",
"1037.878 107.06 OFFCURVE",
"1066.432 269 QCURVE",
"1256.16 1345 LINE"
);
}
);
width = 1681;
}
);
unicode = 20A7;
},
{
glyphname = won;
layers = (
{
layerId = "15DF123F-E657-482A-A0A1-05C4B0BC92C6";
paths = (
{
closed = 1;
nodes = (
"99.325 1017 LINE",
"387.325 1017 LINE",
"385.561 1007 LINE",
"1521.561 1007 LINE",
"1523.325 1017 LINE",
"1799.677 1019 LINE",
"1775.52 882 LINE",
"1499.168 880 LINE",
"1500.049 885 LINE",
"364.049 885 LINE",
"363.168 880 LINE",
"75.168 880 LINE"
);
},
{
closed = 1;
nodes = (
"66.847 657 LINE",
"414.847 657 LINE",
"413.965 652 LINE",
"1379.965 652 LINE",
"1380.847 657 LINE",
"1697.199 659 LINE",
"1673.043 522 LINE",
"1356.69 520 LINE",
"1358.453 530 LINE",
"392.453 530 LINE",
"390.69 520 LINE",
"42.69 520 LINE"
);
},
{
closed = 1;
nodes = (
"243.732 1456 LINE",
"417.732 1456 LINE",
"476.652 378 LINE",
"472.082 250 LINE",
"478.082 250 LINE",
"518.652 378 LINE SMOOTH",
"926.732 1456 LINE",
"1124.732 1456 LINE",
"1182.652 378 LINE",
"1178.082 250 LINE",
"1184.082 250 LINE",
"1224.652 378 LINE SMOOTH",
"1633.732 1456 LINE",
"1795.732 1456 LINE",
"1219.237 -10 LINE",
"1041.237 -10 LINE",
"990.96 1100 LINE",
"992.53 1228 LINE",
"986.53 1228 LINE",
"942.96 1100 LINE SMOOTH",
"521.237 -10 LINE",
"343.237 -10 LINE"
);
}
);
width = 1796;
}
);
unicode = 20A9;
},
{
glyphname = dong;
layers = (
{
layerId = "15DF123F-E657-482A-A0A1-05C4B0BC92C6";
paths = (
{
closed = 1;
nodes = (
"-26.247 492 LINE SMOOTH",
"12.897 714 OFFCURVE",
"281.916 992 OFFCURVE",
"461.916 992 QCURVE SMOOTH",
"571.916 992 OFFCURVE",
"704.102 925 OFFCURVE",
"741.052 868 QCURVE",
"844.732 1456 LINE",
"1020.732 1456 LINE",
"764 0 LINE",
"606 0 LINE",
"622.157 137 LINE",
"616.157 137 LINE",
"564.696 72 OFFCURVE",
"393.473 -20 OFFCURVE",
"302.473 -20 QCURVE SMOOTH",
"103.473 -20 OFFCURVE",
"-68.742 251 OFFCURVE",
"-28.363 480 QCURVE SMOOTH"
);
},
{
closed = 1;
nodes = (
"131.661 310 OFFCURVE",
"220.275 132 OFFCURVE",
"340.275 132 QCURVE SMOOTH",
"450.275 132 OFFCURVE",
"599.671 242 OFFCURVE",
"643.014 312 QCURVE",
"707.902 680 LINE",
"689.245 750 OFFCURVE",
"575.115 840 OFFCURVE",
"475.115 840 QCURVE SMOOTH",
"345.115 840 OFFCURVE",
"195.492 672 OFFCURVE",
"163.753 492 QCURVE SMOOTH",
"161.637 480 LINE SMOOTH"
);
},
{
closed = 1;
nodes = (
"380.834 1156 LINE",
"406.578 1302 LINE",
"1122.578 1302 LINE",
"1096.834 1156 LINE"
);
},
{
closed = 1;
nodes = (
"-127.903 -266 LINE",
"-103.57 -128 LINE",
"820.43 -128 LINE",
"796.097 -266 LINE"
);
}
);
width = 1024;
}
);
unicode = 20AB;
},
{
glyphname = Euro;
layers = (
{
layerId = "15DF123F-E657-482A-A0A1-05C4B0BC92C6";
paths = (
{
closed = 1;
nodes = (
"824.822 827 LINE",
"39.822 827 LINE",
"68.035 987 LINE",
"850.035 987 LINE"
);
},
{
closed = 1;
nodes = (
"767.516 502 LINE",
"-17.484 502 LINE",
"10.552 661 LINE",
"795.552 661 LINE"
);
},
{
closed = 1;
nodes = (
"234.223 903 LINE SMOOTH",
"293.998 1242 OFFCURVE",
"603.669 1484 OFFCURVE",
"787.669 1484 QCURVE SMOOTH",
"932.669 1484 OFFCURVE",
"1081.505 1398 OFFCURVE",
"1125.749 1337 QCURVE",
"985.65 1206 LINE",
"958.998 1242 OFFCURVE",
"857.283 1306 OFFCURVE",
"770.283 1306 QCURVE SMOOTH",
"656.283 1306 OFFCURVE",
"455.365 1142 OFFCURVE",
"413.752 906 QCURVE SMOOTH",
"349.393 541 LINE SMOOTH",
"309.014 312 OFFCURVE",
"464.567 145 OFFCURVE",
"586.567 145 QCURVE SMOOTH",
"672.567 145 OFFCURVE",
"799.676 208 OFFCURVE",
"842.671 242 QCURVE",
"925.217 126 LINE",
"864.285 64 OFFCURVE",
"673.71 -30 OFFCURVE",
"522.71 -30 QCURVE SMOOTH",
"348.71 -30 OFFCURVE",
"117.671 242 OFFCURVE",
"170.922 544 QCURVE SMOOTH"
);
}
);
width = 1024;
}
);
unicode = 20AC;
},
{
glyphname = florin;
layers = (
{
layerId = "15DF123F-E657-482A-A0A1-05C4B0BC92C6";
paths = (
{
closed = 1;
nodes = (
"870.482 740 LINE",
"557.482 740 LINE",
"446.572 111 LINE SMOOTH",
"396.495 -173 OFFCURVE",
"143.945 -437 OFFCURVE",
"-102.055 -437 QCURVE SMOOTH",
"-133.055 -437 OFFCURVE",
"-184.821 -430 OFFCURVE",
"-211.057 -420 QCURVE",
"-170.785 -271 LINE",
"-156.843 -277 OFFCURVE",
"-89.077 -284 OFFCURVE",
"-75.077 -284 QCURVE SMOOTH",
"45.923 -284 OFFCURVE",
"220.488 -122 OFFCURVE",
"261.572 111 QCURVE SMOOTH",
"372.482 740 LINE",
"131.482 740 LINE",
"156.52 882 LINE",
"397.52 882 LINE",
"440.544 1126 LINE SMOOTH",
"471.401 1301 OFFCURVE",
"685.198 1487 OFFCURVE",
"842.198 1487 QCURVE SMOOTH",
"928.198 1487 OFFCURVE",
"1047.853 1434 OFFCURVE",
"1082.563 1404 QCURVE",
"975.996 1259 LINE",
"942.462 1290 OFFCURVE",
"863.752 1320 OFFCURVE",
"816.752 1320 QCURVE SMOOTH",
"746.752 1320 OFFCURVE",
"642.824 1224 OFFCURVE",
"625.544 1126 QCURVE SMOOTH",
"582.52 882 LINE",
"895.52 882 LINE"
);
}
);
width = 1024;
}
);
unicode = 0192;
},
{
glyphname = uni20AD;
layers = (
{
layerId = "15DF123F-E657-482A-A0A1-05C4B0BC92C6";
paths = (
{
closed = 1;
nodes = (
"130 1456 LINE",
"317 1456 LINE",
"317 769 LINE",
"835 1456 LINE",
"1037 1456 LINE",
"317 500 LINE",
"317 0 LINE",
"130 0 LINE"
);
},
{
closed = 1;
nodes = (
"441 756 LINE",
"557 901 LINE",
"1061 0 LINE",
"845 0 LINE"
);
},
{
closed = 1;
nodes = (
"-9 661 LINE",
"-9 809 LINE",
"267 809 LINE",
"267 661 LINE"
);
},
{
closed = 1;
nodes = (
"1021 661 LINE",
"590 661 LINE",
"590 809 LINE",
"1021 809 LINE"
);
}
);
width = 1024;
}
);
unicode = 20AD;
},
{
glyphname = uni20B1;
layers = (
{
layerId = "15DF123F-E657-482A-A0A1-05C4B0BC92C6";
paths = (
{
closed = 1;
nodes = (
"133.234 421 LINE",
"160.741 577 LINE",
"415.741 577 LINE SMOOTH",
"569.741 577 OFFCURVE",
"713.832 759 OFFCURVE",
"746.629 945 QCURVE SMOOTH",
"779.426 1131 OFFCURVE",
"697.225 1300 OFFCURVE",
"543.225 1300 QCURVE SMOOTH",
"378.225 1300 LINE",
"149 0 LINE",
"-39 0 LINE",
"217.732 1456 LINE",
"573.732 1456 LINE SMOOTH",
"808.732 1456 OFFCURVE",
"978.121 1203 OFFCURVE",
"934.392 955 QCURVE SMOOTH",
"893.837 725 OFFCURVE",
"625.234 421 OFFCURVE",
"390.234 421 QCURVE SMOOTH"
);
},
{
closed = 1;
nodes = (
"71.484 1137 LINE",
"273.484 1137 LINE",
"269.076 1112 LINE",
"855.076 1112 LINE",
"859.484 1137 LINE",
"1091.836 1139 LINE",
"1064.153 982 LINE",
"851.8 980 LINE",
"854.445 995 LINE",
"248.445 995 LINE",
"245.8 980 LINE",
"43.8 980 LINE"
);
},
{
closed = 1;
nodes = (
"23.875 867 LINE",
"225.875 867 LINE",
"223.231 852 LINE",
"829.231 852 LINE",
"831.875 867 LINE",
"1044.228 869 LINE",
"1016.545 712 LINE",
"764.192 710 LINE",
"768.424 734 LINE",
"202.424 734 LINE",
"198.192 710 LINE",
"-3.808 710 LINE"
);
}
);
width = 1024;
}
);
unicode = 20B1;
},
{
glyphname = uni20B2;
layers = (
{
layerId = "15DF123F-E657-482A-A0A1-05C4B0BC92C6";
paths = (
{
closed = 1;
nodes = (
"361.051 57 LINE",
"381.519 71 LINE",
"493.84 708 LINE",
"623.839 708 LINE",
"511.343 70 LINE",
"531.58 60 LINE",
"487.498 -190 LINE",
"317.498 -190 LINE"
);
},
{
closed = 1;
nodes = (
"605.631 1342 LINE",
"592.394 1352 LINE",
"632.949 1582 LINE",
"792.949 1582 LINE",
"752.394 1352 LINE",
"735.102 1339 LINE",
"623.839 708 LINE",
"493.84 708 LINE"
);
},
{
closed = 1;
nodes = (
"946.7 452 LINE SMOOTH",
"912.669 259 OFFCURVE",
"625.118 -5 OFFCURVE",
"442.118 -5 QCURVE SMOOTH",
"221.118 -5 OFFCURVE",
"16.782 288 OFFCURVE",
"61.569 542 QCURVE SMOOTH",
"124.165 897 LINE SMOOTH",
"176.887 1196 OFFCURVE",
"483.846 1485 OFFCURVE",
"682.846 1485 QCURVE SMOOTH",
"860.846 1485 OFFCURVE",
"1049.278 1340 OFFCURVE",
"1084.054 1265 QCURVE",
"944.426 1131 LINE",
"902.298 1204 OFFCURVE",
"775.812 1309 OFFCURVE",
"659.812 1309 QCURVE SMOOTH",
"527.812 1309 OFFCURVE",
"356.076 1112 OFFCURVE",
"318.518 899 QCURVE SMOOTH",
"255.922 544 LINE SMOOTH",
"223.301 359 OFFCURVE",
"332.038 142 OFFCURVE",
"482.038 142 QCURVE SMOOTH",
"569.038 142 OFFCURVE",
"747.722 299 OFFCURVE",
"771.35 433 QCURVE SMOOTH",
"795.33 569 LINE",
"668.33 569 LINE",
"695.837 725 LINE",
"994.837 725 LINE"
);
}
);
width = 1024;
}
);
unicode = 20B2;
},
{
glyphname = uni20B5;
layers = (
{
guideLines = (
{
position = "{-150.041, -125}";
}
);
layerId = "15DF123F-E657-482A-A0A1-05C4B0BC92C6";
paths = (
{
closed = 1;
nodes = (
"351.524 37 LINE",
"366.993 51 LINE",
"482.84 708 LINE",
"627.839 708 LINE",
"511.816 50 LINE",
"522.053 40 LINE",
"481.498 -190 LINE",
"311.498 -190 LINE"
);
},
{
closed = 1;
nodes = (
"598.157 1362 LINE",
"589.921 1372 LINE",
"626.949 1582 LINE",
"786.949 1582 LINE",
"749.921 1372 LINE",
"742.628 1359 LINE",
"627.839 708 LINE",
"482.84 708 LINE"
);
},
{
closed = 1;
nodes = (
"774.11 460 LINE",
"962.758 458 LINE",
"957.879 436 LINE SMOOTH",
"907.024 244 OFFCURVE",
"646.592 -25 OFFCURVE",
"432.592 -25 QCURVE SMOOTH",
"211.592 -25 OFFCURVE",
"15.789 237 OFFCURVE",
"55.463 462 QCURVE SMOOTH",
"150.68 1002 LINE SMOOTH",
"188.414 1216 OFFCURVE",
"477.846 1485 OFFCURVE",
"696.846 1485 QCURVE SMOOTH",
"913.846 1485 OFFCURVE",
"1089.94 1236 OFFCURVE",
"1062.617 1030 QCURVE SMOOTH",
"1059.738 1008 LINE",
"865.385 1006 LINE",
"869.617 1030 LINE SMOOTH",
"884.131 1135 OFFCURVE",
"818.339 1329 OFFCURVE",
"672.339 1329 QCURVE SMOOTH",
"525.339 1329 OFFCURVE",
"370.776 1150 OFFCURVE",
"345.032 1004 QCURVE SMOOTH",
"249.816 464 LINE SMOOTH",
"222.838 311 OFFCURVE",
"322.512 122 OFFCURVE",
"472.512 122 QCURVE SMOOTH",
"590.512 122 OFFCURVE",
"746.251 302 OFFCURVE",
"769.879 436 QCURVE SMOOTH"
);
}
);
width = 1024;
}
);
unicode = 20B5;
userData = {
com.typemytype.robofont.guideline.magnetic.1Am3eQoiKr = 5;
};
},
{
glyphname = rupeeIndian;
layers = (
{
layerId = "15DF123F-E657-482A-A0A1-05C4B0BC92C6";
paths = (
{
closed = 1;
nodes = (
"83.02 1089 LINE",
"1054.02 1089 LINE",
"1026.689 934 LINE",
"55.689 934 LINE"
);
},
{
closed = 1;
nodes = (
"579.079 267 LINE SMOOTH",
"515.408 439 OFFCURVE",
"293.801 566 OFFCURVE",
"105.212 574 QCURVE SMOOTH",
"-6.907 579 LINE",
"20.071 732 LINE",
"308.071 732 LINE SMOOTH",
"499.071 732 OFFCURVE",
"681.049 885 OFFCURVE",
"704.677 1019 QCURVE SMOOTH",
"726.894 1145 OFFCURVE",
"593.049 1299 OFFCURVE",
"422.049 1299 QCURVE SMOOTH",
"120.049 1299 LINE",
"147.732 1456 LINE",
"1127.732 1456 LINE",
"1100.225 1300 LINE",
"865.225 1300 LINE",
"789.636 1308 LINE",
"790.225 1300 LINE",
"842.288 1272 OFFCURVE",
"906.076 1112 OFFCURVE",
"889.677 1019 QCURVE SMOOTH",
"856.528 831 OFFCURVE",
"649.905 663 OFFCURVE",
"460.202 642 QCURVE",
"550.146 619 OFFCURVE",
"715.287 461 OFFCURVE",
"766.896 317 QCURVE SMOOTH",
"881 0 LINE",
"678 0 LINE"
);
}
);
width = 1024;
}
);
unicode = 20B9;
},
{
glyphname = liraTurkish;
layers = (
{
layerId = "15DF123F-E657-482A-A0A1-05C4B0BC92C6";
paths = (
{
closed = 1;
nodes = (
"-33.484 502 LINE",
"882.462 876 LINE",
"847.016 709 LINE",
"-63.107 334 LINE"
);
},
{
closed = 1;
nodes = (
"308.732 1456 LINE",
"490.732 1456 LINE",
"260.978 153 LINE",
"337.978 153 LINE SMOOTH",
"545.978 153 OFFCURVE",
"775.007 363 OFFCURVE",
"798.866 521 QCURVE SMOOTH",
"805.39 558 LINE",
"985.39 558 LINE",
"979.219 523 LINE SMOOTH",
"939.545 298 OFFCURVE",
"598.118 -5 OFFCURVE",
"273.647 -2 QCURVE SMOOTH",
"52 0 LINE"
);
},
{
closed = 1;
nodes = (
"29.994 862 LINE",
"945.94 1236 LINE",
"910.494 1069 LINE",
"0.371 694 LINE"
);
}
);
width = 1024;
}
);
unicode = 20BA;
},
{
glyphname = manat;
layers = (
{
layerId = "15DF123F-E657-482A-A0A1-05C4B0BC92C6";
paths = (
{
closed = 1;
nodes = (
"934 0 LINE",
"752 0 LINE",
"913.516 916 LINE SMOOTH",
"941.491 1086 OFFCURVE",
"796.761 1252 OFFCURVE",
"657.761 1252 QCURVE SMOOTH",
"518.761 1252 OFFCURVE",
"313.491 1086 OFFCURVE",
"283.516 916 QCURVE SMOOTH",
"122 0 LINE",
"-60 0 LINE",
"101.516 916 LINE SMOOTH",
"148.597 1166 OFFCURVE",
"477.679 1416 OFFCURVE",
"686.679 1416 QCURVE SMOOTH",
"896.679 1416 OFFCURVE",
"1139.597 1166 OFFCURVE",
"1095.516 916 QCURVE SMOOTH"
);
},
{
closed = 1;
nodes = (
"357 0 LINE",
"635.949 1582 LINE",
"795.949 1582 LINE",
"517 0 LINE"
);
}
);
width = 1130;
}
);
unicode = 20BC;
},
{
glyphname = ruble;
layers = (
{
layerId = "15DF123F-E657-482A-A0A1-05C4B0BC92C6";
paths = (
{
closed = 1;
nodes = (
"9.736 611 LINE",
"37.419 768 LINE",
"533.419 768 LINE SMOOTH",
"696.419 768 OFFCURVE",
"874.987 913 OFFCURVE",
"896.146 1033 QCURVE SMOOTH",
"914.66 1138 OFFCURVE",
"795.872 1298 OFFCURVE",
"626.872 1298 QCURVE SMOOTH",
"467.872 1298 LINE",
"239 0 LINE",
"60 0 LINE",
"316.732 1456 LINE",
"654.732 1456 LINE SMOOTH",
"900.732 1456 OFFCURVE",
"1120.59 1217 OFFCURVE",
"1088.498 1035 QCURVE SMOOTH",
"1053.233 835 OFFCURVE",
"751.736 611 OFFCURVE",
"505.736 611 QCURVE SMOOTH"
);
},
{
closed = 1;
nodes = (
"672.903 266 LINE",
"-51.097 266 LINE",
"-23.237 424 LINE",
"700.763 424 LINE"
);
}
);
width = 1024;
}
);
unicode = 20BD;
},
{
glyphname = asciicircum;
layers = (
{
layerId = "15DF123F-E657-482A-A0A1-05C4B0BC92C6";
paths = (
{
closed = 1;
nodes = (
"234 1416 LINE",
"239 1416 LINE",
"257 954 LINE",
"249 954 LINE",
"234 1394 LINE",
"91 954 LINE",
"84 954 LINE"
);
}
);
width = 282;
}
);
unicode = 005E;
},
{
glyphname = asciitilde;
layers = (
{
layerId = "15DF123F-E657-482A-A0A1-05C4B0BC92C6";
paths = (
{
closed = 1;
nodes = (
"53 692 LINE",
"59 702 OFFCURVE",
"84 720 OFFCURVE",
"96 720 QCURVE SMOOTH",
"108 720 OFFCURVE",
"126 714 OFFCURVE",
"138 708 QCURVE SMOOTH",
"150 702 OFFCURVE",
"162 696 OFFCURVE",
"168 696 QCURVE SMOOTH",
"180 696 OFFCURVE",
"198 709 OFFCURVE",
"204 720 QCURVE",
"206 717 LINE",
"198 704 OFFCURVE",
"177 690 OFFCURVE",
"168 690 QCURVE SMOOTH",
"162 690 OFFCURVE",
"143 696 OFFCURVE",
"132 702 QCURVE SMOOTH",
"123 707 OFFCURVE",
"108 714 OFFCURVE",
"96 714 QCURVE SMOOTH",
"84 714 OFFCURVE",
"66 702 OFFCURVE",
"54 690 QCURVE"
);
}
);
width = 282;
}
);
unicode = 007E;
},
{
glyphname = acute;
layers = (
{
layerId = "15DF123F-E657-482A-A0A1-05C4B0BC92C6";
paths = (
{
closed = 1;
nodes = (
"258.706 1229 LINE",
"265.353 1227 LINE",
"159.448 978 LINE",
"153.8 980 LINE"
);
}
);
width = 250;
}
);
unicode = 00B4;
},
{
glyphname = grave;
layers = (
{
layerId = "15DF123F-E657-482A-A0A1-05C4B0BC92C6";
paths = (
{
closed = 1;
nodes = (
"150 1224 LINE",
"156 1230 LINE",
"180 978 LINE",
"174 978 LINE"
);
}
);
width = 250;
}
);
unicode = 0060;
},
{
glyphname = hungarumlaut;
layers = (
{
guideLines = (
{
position = "{30.871, 901}";
},
{
position = "{-30.139, 555}";
}
);
layerId = "15DF123F-E657-482A-A0A1-05C4B0BC92C6";
paths = (
{
closed = 1;
nodes = (
"297.771 1184 LINE",
"303.242 1181 LINE",
"201.685 968 LINE",
"197.037 970 LINE"
);
},
{
closed = 1;
nodes = (
"227.771 1184 LINE",
"233.242 1181 LINE",
"131.685 968 LINE",
"127.037 970 LINE"
);
}
);
width = 250;
}
);
unicode = 02DD;
userData = {
com.typemytype.robofont.guideline.magnetic.1emCWSQy5G = 5;
com.typemytype.robofont.guideline.magnetic.s1MFYmxmed = 5;
};
},
{
glyphname = circumflex;
layers = (
{
layerId = "15DF123F-E657-482A-A0A1-05C4B0BC92C6";
paths = (
{
closed = 1;
nodes = (
"203.624 979 LINE",
"197.624 979 LINE",
"205.65 1206 LINE",
"125.624 979 LINE",
"119.624 979 LINE",
"201.708 1212 LINE",
"211.708 1212 LINE"
);
}
);
width = 250;
}
);
unicode = 02C6;
},
{
glyphname = caron;
layers = (
{
layerId = "15DF123F-E657-482A-A0A1-05C4B0BC92C6";
paths = (
{
closed = 1;
nodes = (
"160.708 1212 LINE",
"166.708 1212 LINE",
"158.682 985 LINE",
"238.708 1212 LINE",
"244.708 1212 LINE",
"162.624 979 LINE",
"152.624 979 LINE"
);
}
);
width = 250;
}
);
unicode = 02C7;
},
{
glyphname = breve;
layers = (
{
layerId = "15DF123F-E657-482A-A0A1-05C4B0BC92C6";
paths = (
{
closed = 1;
nodes = (
"272.126 1169 LINE",
"244.083 1061 OFFCURVE",
"193.979 964 OFFCURVE",
"166.979 964 QCURVE SMOOTH",
"140.979 964 OFFCURVE",
"125.083 1061 OFFCURVE",
"134.126 1169 QCURVE",
"140.303 1170 LINE",
"130.788 1065 OFFCURVE",
"144.037 970 OFFCURVE",
"168.037 970 QCURVE SMOOTH",
"193.037 970 OFFCURVE",
"239.788 1065 OFFCURVE",
"266.303 1170 QCURVE"
);
}
);
width = 250;
}
);
unicode = 02D8;
},
{
glyphname = tilde;
layers = (
{
layerId = "15DF123F-E657-482A-A0A1-05C4B0BC92C6";
paths = (
{
closed = 1;
nodes = (
"104.677 1019 OFFCURVE",
"129.733 1042 OFFCURVE",
"144.733 1042 QCURVE SMOOTH",
"154.733 1042 OFFCURVE",
"170.088 1027 OFFCURVE",
"177.325 1017 QCURVE SMOOTH",
"183.738 1008 OFFCURVE",
"196.622 996 OFFCURVE",
"204.622 996 QCURVE SMOOTH",
"216.622 996 OFFCURVE",
"234.619 1013 OFFCURVE",
"245.675 1036 QCURVE",
"250.498 1035 LINE",
"237.561 1007 OFFCURVE",
"216.564 990 OFFCURVE",
"203.564 990 QCURVE SMOOTH",
"193.564 990 OFFCURVE",
"177.209 1005 OFFCURVE",
"171.619 1013 QCURVE SMOOTH",
"165.206 1022 OFFCURVE",
"151.675 1036 OFFCURVE",
"143.675 1036 QCURVE SMOOTH",
"130.675 1036 OFFCURVE",
"108.796 1014 OFFCURVE",
"96.564 990 QCURVE",
"92.093 993 LINE"
);
}
);
width = 250;
}
);
unicode = 02DC;
},
{
glyphname = macron;
layers = (
{
layerId = "15DF123F-E657-482A-A0A1-05C4B0BC92C6";
paths = (
{
closed = 1;
nodes = (
"110.032 1004 LINE",
"239.032 1004 LINE",
"237.974 998 LINE",
"108.974 998 LINE"
);
}
);
width = 250;
}
);
unicode = 00AF;
},
{
glyphname = dieresis;
layers = (
{
layerId = "15DF123F-E657-482A-A0A1-05C4B0BC92C6";
paths = (
{
closed = 1;
nodes = (
"117.267 1011 OFFCURVE",
"128.206 1022 OFFCURVE",
"137.206 1022 QCURVE SMOOTH",
"146.206 1022 OFFCURVE",
"154.267 1011 OFFCURVE",
"153.032 1004 QCURVE SMOOTH",
"151.798 997 OFFCURVE",
"139.858 986 OFFCURVE",
"130.858 986 QCURVE SMOOTH",
"121.858 986 OFFCURVE",
"114.798 997 OFFCURVE",
"116.032 1004 QCURVE SMOOTH"
);
},
{
closed = 1;
nodes = (
"190.267 1011 OFFCURVE",
"201.206 1022 OFFCURVE",
"211.206 1022 QCURVE SMOOTH",
"220.206 1022 OFFCURVE",
"227.267 1011 OFFCURVE",
"225.856 1003 QCURVE SMOOTH",
"224.622 996 OFFCURVE",
"213.858 986 OFFCURVE",
"204.858 986 QCURVE SMOOTH",
"194.858 986 OFFCURVE",
"187.622 996 OFFCURVE",
"188.856 1003 QCURVE SMOOTH"
);
}
);
width = 250;
}
);
unicode = 00A8;
},
{
glyphname = dotaccent;
layers = (
{
layerId = "15DF123F-E657-482A-A0A1-05C4B0BC92C6";
paths = (
{
closed = 1;
nodes = (
"153.619 1013 OFFCURVE",
"169.088 1027 OFFCURVE",
"180.088 1027 QCURVE SMOOTH",
"191.088 1027 OFFCURVE",
"201.619 1013 OFFCURVE",
"200.032 1004 QCURVE SMOOTH",
"198.445 995 OFFCURVE",
"182.977 981 OFFCURVE",
"171.977 981 QCURVE SMOOTH",
"160.977 981 OFFCURVE",
"150.445 995 OFFCURVE",
"152.032 1004 QCURVE SMOOTH"
);
}
);
width = 250;
}
);
unicode = 02D9;
},
{
glyphname = ring;
layers = (
{
layerId = "15DF123F-E657-482A-A0A1-05C4B0BC92C6";
paths = (
{
closed = 1;
nodes = (
"132.015 1123 OFFCURVE",
"176.89 1179 OFFCURVE",
"208.89 1179 QCURVE SMOOTH",
"240.89 1179 OFFCURVE",
"266.015 1123 OFFCURVE",
"256.67 1070 QCURVE SMOOTH",
"247.677 1019 OFFCURVE",
"202.979 964 OFFCURVE",
"170.979 964 QCURVE SMOOTH",
"138.979 964 OFFCURVE",
"113.677 1019 OFFCURVE",
"122.67 1070 QCURVE SMOOTH"
);
},
{
closed = 1;
nodes = (
"119.206 1022 OFFCURVE",
"142.037 970 OFFCURVE",
"172.037 970 QCURVE SMOOTH",
"202.037 970 OFFCURVE",
"243.206 1022 OFFCURVE",
"251.67 1070 QCURVE SMOOTH",
"260.486 1120 OFFCURVE",
"238.008 1174 OFFCURVE",
"208.008 1174 QCURVE",
"178.008 1174 OFFCURVE",
"136.486 1120 OFFCURVE",
"127.67 1070 QCURVE SMOOTH"
);
}
);
width = 250;
}
);
unicode = 02DA;
},
{
glyphname = cedilla;
layers = (
{
layerId = "15DF123F-E657-482A-A0A1-05C4B0BC92C6";
paths = (
{
closed = 1;
nodes = (
"-12.297 21 LINE",
"-27.29 -30 LINE",
"0.534 -31 OFFCURVE",
"26.833 -69 OFFCURVE",
"19.78 -109 QCURVE SMOOTH",
"9.906 -165 OFFCURVE",
"-52.026 -227 OFFCURVE",
"-87.026 -227 QCURVE",
"-85.968 -221 LINE",
"-52.968 -221 OFFCURVE",
"4.611 -161 OFFCURVE",
"13.604 -110 QCURVE SMOOTH",
"20.304 -72 OFFCURVE",
"-2.524 -37 OFFCURVE",
"-34.171 -35 QCURVE",
"-18.297 21 LINE"
);
}
);
width = 250;
}
);
unicode = 00B8;
},
{
glyphname = ogonek;
layers = (
{
layerId = "15DF123F-E657-482A-A0A1-05C4B0BC92C6";
paths = (
{
closed = 1;
nodes = (
"-29.295 4 LINE",
"-52.879 -22 OFFCURVE",
"-85.222 -92 OFFCURVE",
"-92.099 -131 QCURVE SMOOTH",
"-98.799 -169 OFFCURVE",
"-81.852 -209 OFFCURVE",
"-59.852 -209 QCURVE SMOOTH",
"-43.852 -209 OFFCURVE",
"-10.678 -191 OFFCURVE",
"-1.092 -182 QCURVE",
"0.203 -186 LINE",
"-14.265 -200 OFFCURVE",
"-46.91 -215 OFFCURVE",
"-61.91 -215 QCURVE SMOOTH",
"-86.91 -215 OFFCURVE",
"-105.152 -171 OFFCURVE",
"-97.923 -130 QCURVE SMOOTH",
"-91.398 -93 OFFCURVE",
"-57.703 -21 OFFCURVE",
"-32.589 8 QCURVE"
);
}
);
width = 250;
}
);
unicode = 02DB;
},
{
glyphname = copyright;
layers = (
{
guideLines = (
{
position = "{30.871, 901}";
},
{
position = "{-30.139, 555}";
}
);
layerId = "15DF123F-E657-482A-A0A1-05C4B0BC92C6";
paths = (
{
closed = 1;
nodes = (
"1180.275 546 LINE",
"1150.123 375 OFFCURVE",
"885.147 205 OFFCURVE",
"721.147 205 QCURVE SMOOTH",
"550.147 205 OFFCURVE",
"368.055 437 OFFCURVE",
"408.081 664 QCURVE SMOOTH",
"414.958 703 LINE SMOOTH",
"455.16 931 OFFCURVE",
"721.303 1170 OFFCURVE",
"908.303 1170 QCURVE SMOOTH",
"1095.303 1170 OFFCURVE",
"1258.329 983 OFFCURVE",
"1231.175 829 QCURVE",
"1049.175 829 LINE",
"1064.692 917 OFFCURVE",
"977.385 1006 OFFCURVE",
"878.385 1006 QCURVE SMOOTH",
"771.385 1006 OFFCURVE",
"637.052 868 OFFCURVE",
"615.716 747 QCURVE SMOOTH",
"593.499 621 LINE SMOOTH",
"571.987 499 OFFCURVE",
"666.83 362 OFFCURVE",
"773.83 362 QCURVE SMOOTH",
"872.83 362 OFFCURVE",
"982.581 457 OFFCURVE",
"998.275 546 QCURVE"
);
},
{
closed = 1;
nodes = (
"128.531 400 OFFCURVE",
"435.705 4 OFFCURVE",
"700.705 4 QCURVE SMOOTH",
"964.705 4 OFFCURVE",
"1411.531 400 OFFCURVE",
"1462.137 687 QCURVE SMOOTH",
"1512.919 975 OFFCURVE",
"1205.039 1367 OFFCURVE",
"941.039 1367 QCURVE SMOOTH",
"676.039 1367 OFFCURVE",
"229.919 975 OFFCURVE",
"179.137 687 QCURVE SMOOTH"
);
},
{
closed = 1;
nodes = (
"93.204 1039 OFFCURVE",
"640.841 1519 OFFCURVE",
"966.841 1519 QCURVE SMOOTH",
"1291.841 1519 OFFCURVE",
"1671.204 1039 OFFCURVE",
"1609.137 687 QCURVE SMOOTH",
"1547.422 337 OFFCURVE",
"998.08 -147 OFFCURVE",
"673.08 -147 QCURVE SMOOTH",
"347.08 -147 OFFCURVE",
"-30.578 337 OFFCURVE",
"31.137 687 QCURVE SMOOTH"
);
}
);
width = 1654;
}
);
leftKerningGroup = copyright;
rightKerningGroup = copyright;
unicode = 00A9;
userData = {
com.typemytype.robofont.guideline.magnetic.0Pjz0qKr8z = 5;
com.typemytype.robofont.guideline.magnetic.sJo8BlDiJ7 = 5;
};
},
{
glyphname = registered;
layers = (
{
layerId = "15DF123F-E657-482A-A0A1-05C4B0BC92C6";
paths = (
{
closed = 1;
nodes = (
"93.204 1039 OFFCURVE",
"640.841 1519 OFFCURVE",
"966.841 1519 QCURVE SMOOTH",
"1291.841 1519 OFFCURVE",
"1671.204 1039 OFFCURVE",
"1609.137 687 QCURVE SMOOTH",
"1547.422 337 OFFCURVE",
"998.08 -147 OFFCURVE",
"673.08 -147 QCURVE SMOOTH",
"347.08 -147 OFFCURVE",
"-30.578 337 OFFCURVE",
"31.137 687 QCURVE SMOOTH"
);
},
{
closed = 1;
nodes = (
"128.531 400 OFFCURVE",
"435.705 4 OFFCURVE",
"700.705 4 QCURVE SMOOTH",
"964.705 4 OFFCURVE",
"1411.531 400 OFFCURVE",
"1462.137 687 QCURVE SMOOTH",
"1512.919 975 OFFCURVE",
"1205.039 1367 OFFCURVE",
"941.039 1367 QCURVE SMOOTH",
"676.039 1367 OFFCURVE",
"229.919 975 OFFCURVE",
"179.137 687 QCURVE SMOOTH"
);
},
{
closed = 1;
nodes = (
"641.267 597 LINE",
"575.674 225 LINE",
"410.674 225 LINE",
"575.187 1158 LINE",
"897.187 1158 LINE SMOOTH",
"1069.187 1158 OFFCURVE",
"1248.501 1018 OFFCURVE",
"1223.639 877 QCURVE SMOOTH",
"1203.714 764 OFFCURVE",
"1072.849 640 OFFCURVE",
"959.97 618 QCURVE",
"986.915 595 OFFCURVE",
"1005.567 559 OFFCURVE",
"1017.453 530 QCURVE SMOOTH",
"1135.847 243 LINE",
"1132.674 225 LINE",
"953.674 225 LINE",
"832.267 597 LINE"
);
},
{
closed = 1;
nodes = (
"713.561 1007 LINE",
"666.129 738 LINE",
"849.129 738 LINE SMOOTH",
"922.129 738 OFFCURVE",
"1028.18 795 OFFCURVE",
"1039.465 859 QCURVE SMOOTH",
"1053.747 940 OFFCURVE",
"989.385 1006 OFFCURVE",
"871.561 1007 QCURVE SMOOTH"
);
}
);
width = 1654;
}
);
leftKerningGroup = copyright;
rightKerningGroup = copyright;
unicode = 00AE;
},
{
glyphname = trademark;
layers = (
{
layerId = "15DF123F-E657-482A-A0A1-05C4B0BC92C6";
paths = (
{
closed = 1;
nodes = (
"150.969 1446 LINE",
"858.969 1446 LINE",
"831.109 1288 LINE",
"563.109 1288 LINE",
"457.666 690 LINE",
"285.666 690 LINE",
"391.109 1288 LINE",
"123.109 1288 LINE"
);
},
{
closed = 1;
nodes = (
"976.969 1446 LINE",
"1147.969 1446 LINE",
"1301.699 866 LINE",
"1309.699 866 LINE",
"1671.969 1446 LINE",
"1842.969 1446 LINE",
"1709.666 690 LINE",
"1560.666 690 LINE",
"1644.421 1165 LINE",
"1632.421 1165 LINE",
"1342.666 690 LINE",
"1206.666 690 LINE",
"1094.421 1165 LINE",
"1082.421 1165 LINE",
"998.666 690 LINE",
"843.666 690 LINE"
);
}
);
width = 1881;
}
);
unicode = 2122;
},
{
glyphname = degree;
layers = (
{
layerId = "15DF123F-E657-482A-A0A1-05C4B0BC92C6";
paths = (
{
closed = 1;
nodes = (
"236.281 1323 OFFCURVE",
"414.435 1477 OFFCURVE",
"518.435 1477 QCURVE SMOOTH",
"621.435 1477 OFFCURVE",
"742.275 1322.97 OFFCURVE",
"723.59 1217 QCURVE SMOOTH",
"704.773 1110.284 OFFCURVE",
"530.259 960 OFFCURVE",
"427.274 960 QCURVE SMOOTH",
"323.543 960 OFFCURVE",
"198.723 1110 OFFCURVE",
"217.59 1217 QCURVE"
);
},
{
closed = 1;
nodes = (
"331.852 1161.776 OFFCURVE",
"396.112 1088 OFFCURVE",
"449.844 1088 QCURVE SMOOTH",
"503.575 1088 OFFCURVE",
"589.852 1161.776 OFFCURVE",
"599.59 1217 QCURVE SMOOTH",
"609.459 1272.97 OFFCURVE",
"549.596 1349 OFFCURVE",
"495.865 1349 QCURVE SMOOTH",
"442.134 1349 OFFCURVE",
"351.459 1272.97 OFFCURVE",
"341.59 1217 QCURVE"
);
}
);
width = 765;
}
);
unicode = 00B0;
},
{
glyphname = diagonalbarL;
layers = (
{
layerId = "15DF123F-E657-482A-A0A1-05C4B0BC92C6";
paths = (
{
closed = 1;
nodes = (
"-27.247 492 LINE",
"112.741 577 LINE",
"113.506 570 LINE",
"-27.305 486 LINE"
);
}
);
width = 164;
}
);
},
{
glyphname = diagonalbarO;
layers = (
{
layerId = "15DF123F-E657-482A-A0A1-05C4B0BC92C6";
paths = (
{
closed = 1;
nodes = (
"-45.239 27 LINE",
"-44.887 29 LINE",
"139.064 783 LINE",
"143.359 779 LINE",
"-39.592 25 LINE",
"-39.944 23 LINE",
"-65.988 -85 LINE",
"-72.988 -85 LINE"
);
},
{
closed = 1;
nodes = (
"328.486 1534 LINE",
"304.206 1436 LINE",
"304.029 1435 LINE",
"143.359 779 LINE",
"139.064 783 LINE",
"298.382 1437 LINE",
"298.558 1438 LINE",
"321.486 1534 LINE"
);
}
);
width = 254;
}
);
},
{
glyphname = diagonalbarl;
layers = (
{
layerId = "15DF123F-E657-482A-A0A1-05C4B0BC92C6";
paths = (
{
closed = 1;
nodes = (
"-9.73 580 LINE",
"27.501 604 LINE",
"104.847 657 LINE",
"105.965 652 LINE",
"27.796 600 LINE",
"-7.259 577 LINE"
);
}
);
width = 141;
}
);
},
{
glyphname = diagonalbaro;
layers = (
{
layerId = "15DF123F-E657-482A-A0A1-05C4B0BC92C6";
paths = (
{
closed = 1;
nodes = (
"-68.065 45 LINE",
"-68.065 45 LINE",
"68.866 521 LINE",
"72.69 520 LINE",
"-67.3 38 LINE",
"-67.3 38 LINE",
"-88.877 -39 LINE",
"-92.7 -38 LINE"
);
},
{
closed = 1;
nodes = (
"205.74 991 LINE",
"179.342 898 LINE",
"179.342 898 LINE",
"72.69 520 LINE",
"68.866 521 LINE",
"176.047 902 LINE",
"176.047 902 LINE",
"200.916 992 LINE"
);
}
);
width = 191;
}
);
},
{
glyphname = engtail;
layers = (
{
layerId = "15DF123F-E657-482A-A0A1-05C4B0BC92C6";
paths = (
{
closed = 1;
nodes = (
"427.502 190 LINE",
"359.616 -195 LINE SMOOTH",
"341.984 -295 OFFCURVE",
"194.887 -443 OFFCURVE",
"62.887 -443 QCURVE SMOOTH",
"-9.113 -443 OFFCURVE",
"-128.181 -381 OFFCURVE",
"-159.012 -329 QCURVE",
"-82.787 -254 LINE",
"-48.016 -295 OFFCURVE",
"21.694 -325 OFFCURVE",
"62.694 -325 QCURVE SMOOTH",
"106.694 -325 OFFCURVE",
"181.273 -265 OFFCURVE",
"198.906 -165 QCURVE SMOOTH",
"212.836 -86 OFFCURVE",
"254.449 150 OFFCURVE",
"254.449 150 QCURVE",
"324.502 190 LINE"
);
}
);
width = 629;
}
);
},
{
glyphname = horizontalbarH;
layers = (
{
layerId = "15DF123F-E657-482A-A0A1-05C4B0BC92C6";
paths = (
{
closed = 1;
nodes = (
"256.556 1041 LINE",
"257.614 1047 LINE",
"290.614 1047 LINE",
"287.556 1041 LINE"
);
},
{
closed = 1;
nodes = (
"77.614 1047 LINE",
"113.614 1047 LINE",
"112.556 1041 LINE",
"77.556 1041 LINE"
);
},
{
closed = 1;
nodes = (
"113.614 1047 LINE",
"257.614 1047 LINE",
"256.556 1041 LINE",
"112.556 1041 LINE"
);
}
);
width = 273;
}
);
},
{
glyphname = horizontalbarlc;
layers = (
{
layerId = "15DF123F-E657-482A-A0A1-05C4B0BC92C6";
paths = (
{
closed = 1;
nodes = (
"41.356 796 LINE",
"43.414 802 LINE",
"91.414 802 LINE",
"187.414 802 LINE",
"186.356 796 LINE",
"89.356 796 LINE"
);
}
);
width = 202;
}
);
},
{
glyphname = idotless;
layers = (
{
layerId = "15DF123F-E657-482A-A0A1-05C4B0BC92C6";
paths = (
{
closed = 1;
nodes = (
"72 912 LINE",
"78 912 LINE",
"-49 0 LINE",
"-54 0 LINE"
);
}
);
width = 106;
}
);
leftKerningGroup = mnpr_LC;
rightKerningGroup = u_LC;
},
{
glyphname = jdotless;
layers = (
{
layerId = "15DF123F-E657-482A-A0A1-05C4B0BC92C6";
paths = (
{
closed = 1;
nodes = (
"-216 -420 LINE",
"-212 -424 OFFCURVE",
"-192 -432 OFFCURVE",
"-175 -432 QCURVE SMOOTH",
"-146 -432 OFFCURVE",
"-107 -380 OFFCURVE",
"-98 -318 QCURVE SMOOTH",
"72 912 LINE",
"78 912 LINE",
"-94 -324 LINE SMOOTH",
"-102 -384 OFFCURVE",
"-144 -437 OFFCURVE",
"-176 -437 QCURVE SMOOTH",
"-192 -437 OFFCURVE",
"-211 -430 OFFCURVE",
"-216 -426 QCURVE"
);
}
);
width = 97;
}
);
rightKerningGroup = j_LC;
},
{
glyphname = zerosuperior;
layers = (
{
layerId = "15DF123F-E657-482A-A0A1-05C4B0BC92C6";
paths = (
{
closed = 1;
nodes = (
"175.631 1342 LINE SMOOTH",
"187.268 1408 OFFCURVE",
"220.437 1460 OFFCURVE",
"247.437 1460 QCURVE SMOOTH",
"274.437 1460 OFFCURVE",
"289.268 1408 OFFCURVE",
"277.631 1342 QCURVE SMOOTH",
"175.008 760 LINE SMOOTH",
"163.724 696 OFFCURVE",
"129.849 640 OFFCURVE",
"102.849 640 QCURVE SMOOTH",
"76.849 640 OFFCURVE",
"61.724 696 OFFCURVE",
"73.009 760 QCURVE SMOOTH"
);
},
{
closed = 1;
nodes = (
"68.958 703 OFFCURVE",
"79.907 646 OFFCURVE",
"103.907 646 QCURVE SMOOTH",
"127.907 646 OFFCURVE",
"158.958 703 OFFCURVE",
"168.48 757 QCURVE SMOOTH",
"271.631 1342 LINE SMOOTH",
"282.387 1403 OFFCURVE",
"270.379 1454 OFFCURVE",
"246.379 1454 QCURVE SMOOTH",
"222.379 1454 OFFCURVE",
"192.387 1403 OFFCURVE",
"181.631 1342 QCURVE SMOOTH",
"78.48 757 LINE SMOOTH"
);
}
);
width = 236;
}
);
},
{
glyphname = gravecomb.case;
layers = (
{
layerId = "15DF123F-E657-482A-A0A1-05C4B0BC92C6";
paths = (
{
closed = 1;
nodes = (
"264.512 1761 LINE",
"271.041 1764 LINE",
"330.604 1529 LINE",
"325.075 1526 LINE"
);
}
);
width = 250;
}
);
},
{
glyphname = acutecomb.case;
layers = (
{
layerId = "15DF123F-E657-482A-A0A1-05C4B0BC92C6";
paths = (
{
closed = 1;
nodes = (
"366.041 1764 LINE",
"371.512 1761 LINE",
"228.075 1526 LINE",
"223.604 1529 LINE"
);
}
);
width = 250;
}
);
},
{
glyphname = circumflexcomb.case;
layers = (
{
layerId = "15DF123F-E657-482A-A0A1-05C4B0BC92C6";
paths = (
{
closed = 1;
nodes = (
"296.019 1503 LINE",
"290.019 1503 LINE",
"298.046 1730 LINE",
"218.019 1503 LINE",
"212.019 1503 LINE",
"294.104 1736 LINE",
"304.104 1736 LINE"
);
}
);
width = 250;
}
);
},
{
glyphname = tildecomb.case;
layers = (
{
layerId = "15DF123F-E657-482A-A0A1-05C4B0BC92C6";
paths = (
{
closed = 1;
nodes = (
"199.541 1557 OFFCURVE",
"224.597 1580 OFFCURVE",
"239.597 1580 QCURVE SMOOTH",
"249.597 1580 OFFCURVE",
"264.952 1565 OFFCURVE",
"272.188 1555 QCURVE SMOOTH",
"278.602 1546 OFFCURVE",
"291.486 1534 OFFCURVE",
"299.486 1534 QCURVE SMOOTH",
"311.486 1534 OFFCURVE",
"329.483 1551 OFFCURVE",
"340.539 1574 QCURVE",
"345.362 1573 LINE",
"332.425 1545 OFFCURVE",
"311.428 1528 OFFCURVE",
"298.428 1528 QCURVE SMOOTH",
"288.428 1528 OFFCURVE",
"272.073 1543 OFFCURVE",
"266.483 1551 QCURVE SMOOTH",
"260.07 1560 OFFCURVE",
"246.539 1574 OFFCURVE",
"238.539 1574 QCURVE SMOOTH",
"225.539 1574 OFFCURVE",
"203.659 1552 OFFCURVE",
"191.428 1528 QCURVE",
"186.957 1531 LINE"
);
}
);
width = 250;
}
);
},
{
glyphname = macroncomb.case;
layers = (
{
layerId = "15DF123F-E657-482A-A0A1-05C4B0BC92C6";
paths = (
{
closed = 1;
nodes = (
"201.017 1520 LINE",
"330.017 1520 LINE",
"328.959 1514 LINE",
"199.959 1514 LINE"
);
}
);
width = 250;
}
);
},
{
glyphname = brevecomb.case;
layers = (
{
layerId = "15DF123F-E657-482A-A0A1-05C4B0BC92C6";
paths = (
{
closed = 1;
nodes = (
"376.693 1728 LINE",
"348.826 1621 OFFCURVE",
"295.899 1525 OFFCURVE",
"265.899 1525 QCURVE SMOOTH",
"237.899 1525 OFFCURVE",
"218.826 1621 OFFCURVE",
"226.693 1728 QCURVE",
"233.869 1729 LINE",
"224.531 1625 OFFCURVE",
"240.957 1531 OFFCURVE",
"266.957 1531 QCURVE SMOOTH",
"293.957 1531 OFFCURVE",
"343.531 1625 OFFCURVE",
"370.869 1729 QCURVE"
);
}
);
width = 250;
}
);
},
{
glyphname = dotaccentcomb.case;
layers = (
{
layerId = "15DF123F-E657-482A-A0A1-05C4B0BC92C6";
paths = (
{
closed = 1;
nodes = (
"245.309 1533 OFFCURVE",
"260.778 1547 OFFCURVE",
"271.778 1547 QCURVE SMOOTH",
"282.778 1547 OFFCURVE",
"293.309 1533 OFFCURVE",
"291.722 1524 QCURVE SMOOTH",
"290.135 1515 OFFCURVE",
"274.667 1501 OFFCURVE",
"263.667 1501 QCURVE SMOOTH",
"252.667 1501 OFFCURVE",
"242.135 1515 OFFCURVE",
"243.722 1524 QCURVE SMOOTH"
);
}
);
width = 250;
}
);
},
{
glyphname = dieresiscomb.case;
layers = (
{
layerId = "15DF123F-E657-482A-A0A1-05C4B0BC92C6";
paths = (
{
closed = 1;
nodes = (
"188.133 1532 OFFCURVE",
"200.249 1544 OFFCURVE",
"209.249 1544 QCURVE SMOOTH",
"218.249 1544 OFFCURVE",
"227.133 1532 OFFCURVE",
"225.899 1525 QCURVE SMOOTH",
"224.664 1518 OFFCURVE",
"211.548 1506 OFFCURVE",
"202.548 1506 QCURVE SMOOTH",
"193.548 1506 OFFCURVE",
"185.664 1518 OFFCURVE",
"186.899 1525 QCURVE SMOOTH"
);
},
{
closed = 1;
nodes = (
"301.133 1532 OFFCURVE",
"313.249 1544 OFFCURVE",
"323.249 1544 QCURVE SMOOTH",
"332.249 1544 OFFCURVE",
"340.133 1532 OFFCURVE",
"338.722 1524 QCURVE SMOOTH",
"337.488 1517 OFFCURVE",
"325.548 1506 OFFCURVE",
"316.548 1506 QCURVE SMOOTH",
"306.548 1506 OFFCURVE",
"298.488 1517 OFFCURVE",
"299.722 1524 QCURVE SMOOTH"
);
}
);
width = 250;
}
);
},
{
glyphname = hookabovecomb.case;
layers = (
{
layerId = "15DF123F-E657-482A-A0A1-05C4B0BC92C6";
paths = (
{
closed = 1;
nodes = (
"223.077 1509 LINE SMOOTH",
"223.783 1513 OFFCURVE",
"228.488 1517 OFFCURVE",
"235.488 1517 QCURVE SMOOTH",
"263.488 1517 OFFCURVE",
"305.128 1566 OFFCURVE",
"312.886 1610 QCURVE SMOOTH",
"319.94 1650 OFFCURVE",
"299.522 1693 OFFCURVE",
"278.522 1693 QCURVE SMOOTH",
"263.522 1693 OFFCURVE",
"235.229 1680 OFFCURVE",
"224.29 1669 QCURVE",
"221.171 1674 LINE",
"234.287 1686 OFFCURVE",
"264.58 1699 OFFCURVE",
"279.58 1699 QCURVE SMOOTH",
"303.58 1699 OFFCURVE",
"326.469 1653 OFFCURVE",
"318.886 1610 QCURVE SMOOTH",
"310.423 1562 OFFCURVE",
"264.43 1511 OFFCURVE",
"229.43 1511 QCURVE",
"226.961 1497 LINE",
"220.961 1497 LINE"
);
}
);
width = 250;
}
);
},
{
glyphname = ringcomb.case;
layers = (
{
layerId = "15DF123F-E657-482A-A0A1-05C4B0BC92C6";
paths = (
{
closed = 1;
nodes = (
"225.469 1653 OFFCURVE",
"270.343 1709 OFFCURVE",
"302.343 1709 QCURVE SMOOTH",
"334.343 1709 OFFCURVE",
"359.469 1653 OFFCURVE",
"350.123 1600 QCURVE SMOOTH",
"341.13 1549 OFFCURVE",
"296.432 1494 OFFCURVE",
"264.432 1494 QCURVE SMOOTH",
"232.433 1494 OFFCURVE",
"207.13 1549 OFFCURVE",
"216.123 1600 QCURVE SMOOTH"
);
},
{
closed = 1;
nodes = (
"212.659 1552 OFFCURVE",
"235.49 1500 OFFCURVE",
"265.49 1500 QCURVE SMOOTH",
"295.49 1500 OFFCURVE",
"336.659 1552 OFFCURVE",
"345.123 1600 QCURVE SMOOTH",
"353.94 1650 OFFCURVE",
"331.461 1704 OFFCURVE",
"301.461 1704 QCURVE",
"271.461 1704 OFFCURVE",
"229.94 1650 OFFCURVE",
"221.123 1600 QCURVE SMOOTH"
);
}
);
width = 250;
}
);
},
{
glyphname = caroncomb.case;
layers = (
{
layerId = "15DF123F-E657-482A-A0A1-05C4B0BC92C6";
paths = (
{
closed = 1;
nodes = (
"253.104 1736 LINE",
"259.104 1736 LINE",
"251.077 1509 LINE",
"331.104 1736 LINE",
"337.104 1736 LINE",
"255.019 1503 LINE",
"245.019 1503 LINE"
);
}
);
width = 250;
}
);
},
{
glyphname = breveinvertedcomb.case;
layers = (
{
layerId = "15DF123F-E657-482A-A0A1-05C4B0BC92C6";
paths = (
{
closed = 1;
nodes = (
"191.075 1526 LINE",
"218.942 1633 OFFCURVE",
"271.869 1729 OFFCURVE",
"301.869 1729 QCURVE SMOOTH",
"329.869 1729 OFFCURVE",
"348.942 1633 OFFCURVE",
"341.075 1526 QCURVE",
"333.899 1525 LINE",
"343.237 1629 OFFCURVE",
"326.811 1723 OFFCURVE",
"300.811 1723 QCURVE SMOOTH",
"273.811 1723 OFFCURVE",
"224.237 1629 OFFCURVE",
"196.899 1525 QCURVE"
);
}
);
width = 250;
}
);
},
{
glyphname = horncomb.case;
layers = (
{
layerId = "15DF123F-E657-482A-A0A1-05C4B0BC92C6";
paths = (
{
closed = 1;
nodes = (
"140.732 1456 LINE SMOOTH",
"167.732 1456 OFFCURVE",
"198.785 1496 OFFCURVE",
"205.309 1533 QCURVE SMOOTH",
"209.717 1558 OFFCURVE",
"213.594 1597 OFFCURVE",
"212.944 1616 QCURVE",
"218.944 1616 LINE",
"218.594 1597 OFFCURVE",
"215.717 1558 OFFCURVE",
"211.309 1533 QCURVE SMOOTH",
"204.433 1494 OFFCURVE",
"169.674 1450 OFFCURVE",
"139.674 1450 QCURVE SMOOTH",
"136.674 1450 OFFCURVE",
"131.674 1450 OFFCURVE",
"127.674 1450 QCURVE",
"128.732 1456 LINE"
);
}
);
width = 250;
}
);
},
{
glyphname = commaaccentcomb.case;
layers = (
{
layerId = "15DF123F-E657-482A-A0A1-05C4B0BC92C6";
paths = (
{
closed = 1;
nodes = (
"-58.425 -320 OFFCURVE",
"-47.077 -284 OFFCURVE",
"-4.507 -156 QCURVE",
"1.669 -155 LINE",
"-89.115 -426 LINE",
"-94.763 -424 LINE"
);
}
);
width = 250;
}
);
},
{
glyphname = cedillacomb.case;
layers = (
{
layerId = "15DF123F-E657-482A-A0A1-05C4B0BC92C6";
paths = (
{
closed = 1;
nodes = (
"-15.884 12 LINE",
"-31.877 -39 LINE",
"-0.053 -40 OFFCURVE",
"31.246 -78 OFFCURVE",
"24.193 -118 QCURVE SMOOTH",
"14.319 -174 OFFCURVE",
"-54.613 -236 OFFCURVE",
"-95.613 -236 QCURVE",
"-94.555 -230 LINE",
"-56.555 -230 OFFCURVE",
"8.024 -170 OFFCURVE",
"17.017 -119 QCURVE SMOOTH",
"23.718 -81 OFFCURVE",
"-3.111 -46 OFFCURVE",
"-39.758 -44 QCURVE",
"-22.884 12 LINE"
);
}
);
width = 250;
}
);
},
{
glyphname = ogonekcomb.case;
layers = (
{
layerId = "15DF123F-E657-482A-A0A1-05C4B0BC92C6";
paths = (
{
closed = 1;
nodes = (
"-103.398 -93 OFFCURVE",
"-64.879 -22 OFFCURVE",
"-35.766 7 QCURVE",
"-31.471 3 LINE",
"-59.056 -23 OFFCURVE",
"-97.222 -92 OFFCURVE",
"-104.099 -131 QCURVE SMOOTH",
"-110.799 -169 OFFCURVE",
"-86.676 -208 OFFCURVE",
"-59.676 -208 QCURVE SMOOTH",
"-40.676 -208 OFFCURVE",
"-0.502 -190 OFFCURVE",
"10.085 -181 QCURVE",
"12.38 -185 LINE",
"-5.089 -199 OFFCURVE",
"-43.734 -214 OFFCURVE",
"-62.734 -214 QCURVE SMOOTH",
"-92.734 -214 OFFCURVE",
"-117.152 -171 OFFCURVE",
"-109.923 -130 QCURVE SMOOTH"
);
}
);
width = 250;
}
);
},
{
glyphname = acutecombstack.case;
layers = (
{
layerId = "15DF123F-E657-482A-A0A1-05C4B0BC92C6";
paths = (
{
closed = 1;
nodes = (
"336.466 1670 LINE",
"340.937 1667 LINE",
"228.075 1526 LINE",
"224.604 1529 LINE"
);
}
);
width = 250;
}
);
},
{
glyphname = brevecombstack.case;
layers = (
{
layerId = "15DF123F-E657-482A-A0A1-05C4B0BC92C6";
paths = (
{
closed = 1;
nodes = (
"366.113 1668 LINE",
"347.947 1599 OFFCURVE",
"296.899 1525 OFFCURVE",
"265.899 1525 QCURVE SMOOTH",
"235.899 1525 OFFCURVE",
"209.947 1599 OFFCURVE",
"216.113 1668 QCURVE",
"223.29 1669 LINE",
"216.652 1603 OFFCURVE",
"239.957 1531 OFFCURVE",
"266.957 1531 QCURVE SMOOTH",
"294.957 1531 OFFCURVE",
"343.652 1603 OFFCURVE",
"360.29 1669 QCURVE"
);
}
);
width = 250;
}
);
},
{
glyphname = circumflexcombstack.case;
layers = (
{
layerId = "15DF123F-E657-482A-A0A1-05C4B0BC92C6";
paths = (
{
closed = 1;
nodes = (
"296.019 1503 LINE",
"290.019 1503 LINE",
"287.466 1670 LINE",
"218.019 1503 LINE",
"212.019 1503 LINE",
"283.524 1676 LINE",
"293.524 1676 LINE"
);
}
);
width = 250;
}
);
},
{
glyphname = dieresiscombstack.case;
layers = (
{
layerId = "15DF123F-E657-482A-A0A1-05C4B0BC92C6";
paths = (
{
closed = 1;
nodes = (
"188.133 1532 OFFCURVE",
"200.249 1544 OFFCURVE",
"209.249 1544 QCURVE SMOOTH",
"218.249 1544 OFFCURVE",
"227.133 1532 OFFCURVE",
"225.899 1525 QCURVE SMOOTH",
"224.664 1518 OFFCURVE",
"211.548 1506 OFFCURVE",
"202.548 1506 QCURVE SMOOTH",
"193.548 1506 OFFCURVE",
"185.664 1518 OFFCURVE",
"186.899 1525 QCURVE SMOOTH"
);
},
{
closed = 1;
nodes = (
"301.133 1532 OFFCURVE",
"313.249 1544 OFFCURVE",
"323.249 1544 QCURVE SMOOTH",
"332.249 1544 OFFCURVE",
"340.133 1532 OFFCURVE",
"338.722 1524 QCURVE SMOOTH",
"337.488 1517 OFFCURVE",
"325.548 1506 OFFCURVE",
"316.548 1506 QCURVE SMOOTH",
"306.548 1506 OFFCURVE",
"298.488 1517 OFFCURVE",
"299.722 1524 QCURVE SMOOTH"
);
}
);
width = 250;
}
);
},
{
glyphname = dotaccentcombstack.case;
layers = (
{
layerId = "15DF123F-E657-482A-A0A1-05C4B0BC92C6";
paths = (
{
closed = 1;
nodes = (
"245.309 1533 OFFCURVE",
"260.778 1547 OFFCURVE",
"271.778 1547 QCURVE SMOOTH",
"282.778 1547 OFFCURVE",
"293.309 1533 OFFCURVE",
"291.722 1524 QCURVE SMOOTH",
"290.135 1515 OFFCURVE",
"274.667 1501 OFFCURVE",
"263.667 1501 QCURVE SMOOTH",
"252.667 1501 OFFCURVE",
"242.135 1515 OFFCURVE",
"243.722 1524 QCURVE SMOOTH"
);
}
);
width = 250;
}
);
},
{
glyphname = gravecombstack.case;
layers = (
{
layerId = "15DF123F-E657-482A-A0A1-05C4B0BC92C6";
paths = (
{
closed = 1;
nodes = (
"248.937 1667 LINE",
"254.466 1670 LINE",
"316.604 1529 LINE",
"312.075 1526 LINE"
);
}
);
width = 250;
}
);
},
{
glyphname = hookabovecombstack.case;
layers = (
{
layerId = "15DF123F-E657-482A-A0A1-05C4B0BC92C6";
paths = (
{
closed = 1;
nodes = (
"223.077 1509 LINE SMOOTH",
"223.783 1513 OFFCURVE",
"228.488 1517 OFFCURVE",
"235.488 1517 QCURVE SMOOTH",
"263.488 1517 OFFCURVE",
"305.128 1566 OFFCURVE",
"312.886 1610 QCURVE SMOOTH",
"319.94 1650 OFFCURVE",
"299.522 1693 OFFCURVE",
"278.522 1693 QCURVE SMOOTH",
"263.522 1693 OFFCURVE",
"235.229 1680 OFFCURVE",
"224.29 1669 QCURVE",
"221.171 1674 LINE",
"234.287 1686 OFFCURVE",
"264.58 1699 OFFCURVE",
"279.58 1699 QCURVE SMOOTH",
"303.58 1699 OFFCURVE",
"326.469 1653 OFFCURVE",
"318.886 1610 QCURVE SMOOTH",
"310.423 1562 OFFCURVE",
"264.43 1511 OFFCURVE",
"229.43 1511 QCURVE",
"226.961 1497 LINE",
"220.961 1497 LINE"
);
}
);
width = 250;
}
);
},
{
glyphname = macroncombstack.case;
layers = (
{
layerId = "15DF123F-E657-482A-A0A1-05C4B0BC92C6";
paths = (
{
closed = 1;
nodes = (
"201.017 1520 LINE",
"330.017 1520 LINE",
"328.959 1514 LINE",
"199.959 1514 LINE"
);
}
);
width = 250;
}
);
},
{
glyphname = tildecombstack.case;
layers = (
{
layerId = "15DF123F-E657-482A-A0A1-05C4B0BC92C6";
paths = (
{
closed = 1;
nodes = (
"199.541 1557 OFFCURVE",
"224.597 1580 OFFCURVE",
"239.597 1580 QCURVE SMOOTH",
"249.597 1580 OFFCURVE",
"264.952 1565 OFFCURVE",
"272.188 1555 QCURVE SMOOTH",
"278.602 1546 OFFCURVE",
"291.486 1534 OFFCURVE",
"299.486 1534 QCURVE SMOOTH",
"311.486 1534 OFFCURVE",
"329.483 1551 OFFCURVE",
"340.539 1574 QCURVE",
"345.362 1573 LINE",
"332.425 1545 OFFCURVE",
"311.428 1528 OFFCURVE",
"298.428 1528 QCURVE SMOOTH",
"288.428 1528 OFFCURVE",
"272.073 1543 OFFCURVE",
"266.483 1551 QCURVE SMOOTH",
"260.07 1560 OFFCURVE",
"246.539 1574 OFFCURVE",
"238.539 1574 QCURVE SMOOTH",
"225.539 1574 OFFCURVE",
"203.659 1552 OFFCURVE",
"191.428 1528 QCURVE",
"186.957 1531 LINE"
);
}
);
width = 250;
}
);
},
{
glyphname = caroncomb.alt;
layers = (
{
layerId = "15DF123F-E657-482A-A0A1-05C4B0BC92C6";
paths = (
{
closed = 1;
nodes = (
"260.329 1397 LINE SMOOTH",
"266.152 1396 LINE",
"155.609 1081 LINE",
"149.962 1083 LINE"
);
}
);
width = 250;
}
);
},
{
glyphname = dollar.rvrn;
layers = (
{
layerId = "15DF123F-E657-482A-A0A1-05C4B0BC92C6";
paths = (
{
closed = 1;
nodes = (
"-31.242 458 LINE",
"-25.242 458 LINE",
"-66.326 225 LINE SMOOTH",
"-88.72 98 OFFCURVE",
"-62.942 6 OFFCURVE",
"-28.942 6 QCURVE SMOOTH",
"5.058 6 OFFCURVE",
"64.572 111 OFFCURVE",
"101.777 322 QCURVE SMOOTH",
"132.106 494 OFFCURVE",
"132.021 675 OFFCURVE",
"108.417 785 QCURVE SMOOTH",
"83.813 895 OFFCURVE",
"71.264 1028 OFFCURVE",
"103.532 1211 QCURVE SMOOTH",
"129.628 1359 OFFCURVE",
"187.732 1456 OFFCURVE",
"226.732 1456 QCURVE SMOOTH",
"266.732 1456 OFFCURVE",
"285.157 1362 OFFCURVE",
"262.235 1232 QCURVE SMOOTH",
"225.206 1022 LINE",
"219.206 1022 LINE",
"255.882 1230 LINE SMOOTH",
"278.452 1358 OFFCURVE",
"262.674 1450 OFFCURVE",
"225.674 1450 QCURVE SMOOTH",
"189.674 1450 OFFCURVE",
"134.923 1355 OFFCURVE",
"109.532 1211 QCURVE SMOOTH",
"77.969 1032 OFFCURVE",
"87.871 901 OFFCURVE",
"114.122 789 QCURVE SMOOTH",
"139.373 677 OFFCURVE",
"138.635 497 OFFCURVE",
"107.777 322 QCURVE SMOOTH",
"69.691 106 OFFCURVE",
"6 0 OFFCURVE",
"-30 0 QCURVE SMOOTH",
"-66 0 OFFCURVE",
"-95.249 95 OFFCURVE",
"-73.737 217 QCURVE SMOOTH"
);
},
{
closed = 1;
nodes = (
"-32.118 5 LINE",
"-26.118 5 LINE",
"-26.295 4 LINE",
"-26.647 2 LINE",
"-53.449 -150 LINE",
"-59.449 -150 LINE"
);
},
{
closed = 1;
nodes = (
"223.027 1452 LINE",
"223.379 1454 LINE",
"250.181 1606 LINE",
"256.181 1606 LINE",
"228.85 1451 LINE",
"222.85 1451 LINE"
);
}
);
width = 227;
}
);
},
{
glyphname = zero.prop;
layers = (
{
layerId = "15DF123F-E657-482A-A0A1-05C4B0BC92C6";
paths = (
{
closed = 1;
nodes = (
"145.165 1311 LINE SMOOTH",
"159.976 1395 OFFCURVE",
"208.437 1460 OFFCURVE",
"242.437 1460 QCURVE SMOOTH",
"277.437 1460 OFFCURVE",
"302.976 1395 OFFCURVE",
"288.165 1311 QCURVE SMOOTH",
"83.978 153 LINE SMOOTH",
"68.638 66 OFFCURVE",
"19.295 -4 OFFCURVE",
"-15.705 -4 QCURVE SMOOTH",
"-49.705 -4 OFFCURVE",
"-74.362 66 OFFCURVE",
"-59.022 153 QCURVE SMOOTH"
);
},
{
closed = 1;
nodes = (
"-67.657 70 OFFCURVE",
"-45.647 2 OFFCURVE",
"-14.647 2 QCURVE SMOOTH",
"17.353 2 OFFCURVE",
"63.343 70 OFFCURVE",
"77.978 153 QCURVE SMOOTH",
"281.812 1309 LINE SMOOTH",
"296.271 1391 OFFCURVE",
"273.379 1454 OFFCURVE",
"241.379 1454 QCURVE SMOOTH",
"210.379 1454 OFFCURVE",
"165.271 1391 OFFCURVE",
"150.812 1309 QCURVE SMOOTH",
"-53.022 153 LINE SMOOTH"
);
}
);
width = 227;
}
);
},
{
glyphname = one.prop;
layers = (
{
layerId = "15DF123F-E657-482A-A0A1-05C4B0BC92C6";
paths = (
{
closed = 1;
nodes = (
"262.498 1449 LINE",
"128.51 1364 LINE",
"126.921 1372 LINE",
"263.732 1456 LINE",
"269.732 1456 LINE",
"13 0 LINE",
"7 0 LINE"
);
}
);
width = 227;
}
);
},
{
glyphname = two.prop;
layers = (
{
layerId = "15DF123F-E657-482A-A0A1-05C4B0BC92C6";
paths = (
{
closed = 1;
nodes = (
"-96.295 4 LINE",
"129.257 665 LINE SMOOTH",
"178.472 808 OFFCURVE",
"234.387 989 OFFCURVE",
"265.774 1167 QCURVE SMOOTH",
"299.099 1356 OFFCURVE",
"284.556 1455 OFFCURVE",
"245.556 1455 QCURVE SMOOTH",
"207.556 1455 OFFCURVE",
"149.805 1360 OFFCURVE",
"127.059 1231 QCURVE SMOOTH",
"96.025 1055 LINE",
"90.025 1055 LINE",
"121.059 1231 LINE SMOOTH",
"144.686 1365 OFFCURVE",
"205.614 1461 OFFCURVE",
"246.614 1461 QCURVE SMOOTH",
"288.614 1461 OFFCURVE",
"305.805 1360 OFFCURVE",
"271.774 1167 QCURVE SMOOTH",
"240.035 987 OFFCURVE",
"184.649 809 OFFCURVE",
"134.728 662 QCURVE SMOOTH",
"-89.942 6 LINE",
"80.058 6 LINE",
"79 0 LINE",
"-97 0 LINE"
);
}
);
width = 227;
}
);
},
{
glyphname = three.prop;
layers = (
{
layerId = "15DF123F-E657-482A-A0A1-05C4B0BC92C6";
paths = (
{
closed = 1;
nodes = (
"-27.351 395 LINE",
"-21.351 395 LINE",
"-52.208 220 LINE SMOOTH",
"-73.367 100 OFFCURVE",
"-56.647 2 OFFCURVE",
"-16.647 2 QCURVE SMOOTH",
"21.353 2 OFFCURVE",
"70.985 102 OFFCURVE",
"111.541 332 QCURVE SMOOTH",
"152.801 566 OFFCURVE",
"162.303 756 OFFCURVE",
"118.303 756 QCURVE SMOOTH",
"89.303 756 LINE",
"90.361 762 LINE",
"116.361 762 LINE SMOOTH",
"150.361 762 OFFCURVE",
"210.866 935 OFFCURVE",
"241.547 1109 QCURVE SMOOTH",
"286.686 1365 OFFCURVE",
"270.556 1455 OFFCURVE",
"234.556 1455 QCURVE SMOOTH",
"196.556 1455 OFFCURVE",
"155.276 1357 OFFCURVE",
"139.583 1268 QCURVE SMOOTH",
"107.315 1085 LINE",
"101.315 1085 LINE",
"133.583 1268 LINE SMOOTH",
"149.452 1358 OFFCURVE",
"194.614 1461 OFFCURVE",
"236.614 1461 QCURVE SMOOTH",
"274.614 1461 OFFCURVE",
"292.863 1366 OFFCURVE",
"247.37 1108 QCURVE SMOOTH",
"216.689 934 OFFCURVE",
"155.066 766 OFFCURVE",
"129.185 761 QCURVE",
"128.832 759 LINE",
"165.127 755 OFFCURVE",
"160.212 574 OFFCURVE",
"117.541 332 QCURVE SMOOTH",
"76.633 100 OFFCURVE",
"23.295 -4 OFFCURVE",
"-17.705 -4 QCURVE SMOOTH",
"-60.705 -4 OFFCURVE",
"-79.544 99 OFFCURVE",
"-58.208 220 QCURVE SMOOTH"
);
}
);
width = 227;
}
);
},
{
glyphname = four.prop;
layers = (
{
layerId = "15DF123F-E657-482A-A0A1-05C4B0BC92C6";
paths = (
{
closed = 1;
nodes = (
"95.299 376 LINE",
"96.004 380 LINE",
"284.674 1450 LINE",
"278.674 1450 LINE",
"-45.819 381 LINE",
"99.181 381 LINE",
"103.181 381 LINE",
"149.181 381 LINE",
"148.123 375 LINE",
"-51.877 375 LINE",
"-50.29 384 LINE",
"275.732 1456 LINE",
"291.732 1456 LINE",
"35 0 LINE",
"29 0 LINE"
);
}
);
width = 227;
}
);
},
{
glyphname = five.prop;
layers = (
{
layerId = "15DF123F-E657-482A-A0A1-05C4B0BC92C6";
paths = (
{
closed = 1;
nodes = (
"-39.232 390 LINE",
"-33.232 390 LINE",
"-65.324 208 LINE SMOOTH",
"-86.365 83 OFFCURVE",
"-61.647 2 OFFCURVE",
"-17.647 2 QCURVE SMOOTH",
"21.353 2 OFFCURVE",
"80.749 112 OFFCURVE",
"142.992 465 QCURVE SMOOTH",
"206.822 827 OFFCURVE",
"188.929 907 OFFCURVE",
"153.929 907 QCURVE SMOOTH",
"124.929 907 OFFCURVE",
"75.054 851 OFFCURVE",
"50.595 769 QCURVE",
"44.595 769 LINE",
"186.732 1456 LINE",
"313.732 1456 LINE",
"312.674 1450 LINE",
"191.674 1450 LINE",
"55.709 798 LINE",
"73.112 857 OFFCURVE",
"124.987 913 OFFCURVE",
"155.987 913 QCURVE SMOOTH",
"190.987 913 OFFCURVE",
"213.704 832 OFFCURVE",
"148.992 465 QCURVE SMOOTH",
"86.043 108 OFFCURVE",
"27.295 -4 OFFCURVE",
"-19.705 -4 QCURVE SMOOTH",
"-68.705 -4 OFFCURVE",
"-93.189 84 OFFCURVE",
"-71.324 208 QCURVE SMOOTH"
);
}
);
width = 227;
}
);
},
{
glyphname = six.prop;
layers = (
{
layerId = "15DF123F-E657-482A-A0A1-05C4B0BC92C6";
paths = (
{
closed = 1;
nodes = (
"13.555 644 LINE SMOOTH",
"105.597 1166 OFFCURVE",
"216.614 1461 OFFCURVE",
"287.614 1461 QCURVE SMOOTH",
"305.614 1461 LINE",
"304.556 1455 LINE",
"286.556 1455 LINE SMOOTH",
"220.556 1455 OFFCURVE",
"110.187 1158 OFFCURVE",
"17.791 634 QCURVE SMOOTH",
"14.265 614 LINE SMOOTH",
"-66.669 155 OFFCURVE",
"-62.824 1 OFFCURVE",
"-8.824 1 QCURVE SMOOTH",
"34.176 1 OFFCURVE",
"93.509 139 OFFCURVE",
"149.229 455 QCURVE SMOOTH",
"204.948 771 OFFCURVE",
"193.699 866 OFFCURVE",
"150.699 866 QCURVE SMOOTH",
"96.699 866 OFFCURVE",
"13.736 611 OFFCURVE",
"-12.89 460 QCURVE",
"-17.89 460 LINE",
"12.968 635 OFFCURVE",
"96.757 872 OFFCURVE",
"150.757 872 QCURVE SMOOTH",
"196.757 872 OFFCURVE",
"211.83 776 OFFCURVE",
"155.229 455 QCURVE SMOOTH",
"98.98 136 OFFCURVE",
"38.118 -5 OFFCURVE",
"-11.882 -5 QCURVE SMOOTH",
"-64.882 -5 OFFCURVE",
"-73.375 151 OFFCURVE",
"8.265 614 QCURVE SMOOTH"
);
}
);
width = 227;
}
);
},
{
glyphname = seven.prop;
layers = (
{
layerId = "15DF123F-E657-482A-A0A1-05C4B0BC92C6";
paths = (
{
closed = 1;
nodes = (
"337.674 1450 LINE",
"137.674 1450 LINE",
"138.732 1456 LINE",
"345.732 1456 LINE",
"345.027 1452 LINE",
"-49 0 LINE",
"-56 0 LINE"
);
}
);
width = 227;
}
);
},
{
glyphname = eight.prop;
layers = (
{
layerId = "15DF123F-E657-482A-A0A1-05C4B0BC92C6";
paths = (
{
closed = 1;
nodes = (
"-6.552 564 OFFCURVE",
"55.364 745 OFFCURVE",
"105.774 753 QCURVE",
"105.774 753 LINE",
"61.009 760 OFFCURVE",
"77.1 942 OFFCURVE",
"109.721 1127 QCURVE SMOOTH",
"148.689 1348 OFFCURVE",
"199.614 1461 OFFCURVE",
"243.614 1461 QCURVE SMOOTH",
"288.614 1461 OFFCURVE",
"299.512 1347 OFFCURVE",
"260.721 1127 QCURVE SMOOTH",
"227.924 941 OFFCURVE",
"178.185 761 OFFCURVE",
"132.774 753 QCURVE",
"132.774 753 LINE",
"184.187 744 OFFCURVE",
"175.567 559 OFFCURVE",
"143.475 377 QCURVE SMOOTH",
"107.857 175 OFFCURVE",
"37.295 -4 OFFCURVE",
"-14.705 -4 QCURVE SMOOTH",
"-66.705 -4 OFFCURVE",
"-76.024 170 OFFCURVE",
"-39.525 377 QCURVE SMOOTH"
);
},
{
closed = 1;
nodes = (
"-69.319 174 OFFCURVE",
"-59.647 2 OFFCURVE",
"-13.647 2 QCURVE SMOOTH",
"32.353 2 OFFCURVE",
"102.563 179 OFFCURVE",
"137.475 377 QCURVE SMOOTH",
"168.861 555 OFFCURVE",
"178.245 750 OFFCURVE",
"118.245 750 QCURVE SMOOTH",
"63.245 750 OFFCURVE",
"-1.257 560 OFFCURVE",
"-33.525 377 QCURVE SMOOTH"
);
},
{
closed = 1;
nodes = (
"83.334 949 OFFCURVE",
"68.303 756 OFFCURVE",
"119.303 756 QCURVE SMOOTH",
"170.303 756 OFFCURVE",
"223.511 950 OFFCURVE",
"254.721 1127 QCURVE SMOOTH",
"291.044 1333 OFFCURVE",
"286.556 1455 OFFCURVE",
"242.556 1455 QCURVE SMOOTH",
"199.556 1455 OFFCURVE",
"151.044 1333 OFFCURVE",
"114.721 1127 QCURVE SMOOTH"
);
}
);
width = 227;
}
);
},
{
glyphname = nine.prop;
layers = (
{
layerId = "15DF123F-E657-482A-A0A1-05C4B0BC92C6";
paths = (
{
closed = 1;
nodes = (
"130.339 1329 OFFCURVE",
"189.614 1461 OFFCURVE",
"239.614 1461 QCURVE SMOOTH",
"292.614 1461 OFFCURVE",
"302.694 1314 OFFCURVE",
"219.467 842 QCURVE SMOOTH",
"214.178 812 LINE SMOOTH",
"122.135 290 OFFCURVE",
"11.118 -5 OFFCURVE",
"-59.882 -5 QCURVE SMOOTH",
"-77.882 -5 LINE",
"-76.824 1 LINE",
"-58.824 1 LINE SMOOTH",
"7.176 1 OFFCURVE",
"117.545 298 OFFCURVE",
"209.941 822 QCURVE SMOOTH",
"213.467 842 LINE SMOOTH",
"295.988 1310 OFFCURVE",
"290.556 1455 OFFCURVE",
"236.556 1455 QCURVE SMOOTH",
"193.556 1455 OFFCURVE",
"135.81 1326 OFFCURVE",
"78.503 1001 QCURVE SMOOTH",
"22.784 685 OFFCURVE",
"28.033 590 OFFCURVE",
"70.033 590 QCURVE SMOOTH",
"134.033 590 OFFCURVE",
"213.996 845 OFFCURVE",
"240.622 996 QCURVE",
"245.622 996 LINE",
"214.764 821 OFFCURVE",
"133.975 584 OFFCURVE",
"68.975 584 QCURVE SMOOTH",
"21.975 584 OFFCURVE",
"15.902 680 OFFCURVE",
"72.503 1001 QCURVE SMOOTH"
);
}
);
width = 227;
}
);
},
{
glyphname = .notdef;
layers = (
{
layerId = "15DF123F-E657-482A-A0A1-05C4B0BC92C6";
paths = (
{
closed = 1;
nodes = (
"255.732 1456 LINE",
"246.21 1402 LINE",
"896.21 1402 LINE",
"905.732 1456 LINE"
);
},
{
closed = 1;
nodes = (
"228.732 1456 LINE",
"-28 0 LINE",
"26 0 LINE",
"282.732 1456 LINE"
);
},
{
closed = 1;
nodes = (
"680 0 LINE",
"626 0 LINE",
"882.732 1456 LINE",
"936.732 1456 LINE"
);
},
{
closed = 1;
nodes = (
"8.522 54 LINE",
"-1 0 LINE",
"649 0 LINE",
"658.522 54 LINE"
);
},
{
closed = 1;
nodes = (
"61.29 30 LINE",
"3.29 30 LINE",
"842.442 1426 LINE",
"900.442 1426 LINE"
);
},
{
closed = 1;
nodes = (
"654.29 30 LINE",
"307.442 1426 LINE",
"249.442 1426 LINE",
"596.29 30 LINE"
);
}
